ISO-10303-21;
HEADER;
/* Generated by software containing ST-Developer
 * from STEP Tools, Inc. (www.steptools.com) 
 */

FILE_DESCRIPTION(
/* description */ (''),
/* implementation_level */ '2;1');

FILE_NAME(
/* name */ 'a_label.step',
/* time_stamp */ '2026-07-08T10:56:05+03:00',
/* author */ (''),
/* organization */ (''),
/* preprocessor_version */ 'ST-DEVELOPER v20.1',
/* originating_system */ 'Autodesk Translation Framework v15.8.0.0',
/* authorisation */ '');

FILE_SCHEMA (('AUTOMOTIVE_DESIGN { 1 0 10303 214 3 1 1 }'));
ENDSEC;

DATA;
#10=MECHANICAL_DESIGN_GEOMETRIC_PRESENTATION_REPRESENTATION('',(#13),#570);
#11=SHAPE_REPRESENTATION_RELATIONSHIP('SRR','None',#577,#12);
#12=ADVANCED_BREP_SHAPE_REPRESENTATION('',(#14),#569);
#13=STYLED_ITEM('',(#586),#14);
#14=MANIFOLD_SOLID_BREP('a_label',#346);
#15=CYLINDRICAL_SURFACE('',#376,5.75000000000001);
#16=CYLINDRICAL_SURFACE('',#379,3.50000000000002);
#17=CIRCLE('',#373,3.50000000000002);
#18=CIRCLE('',#374,5.75000000000001);
#19=CIRCLE('',#377,5.75000000000001);
#20=CIRCLE('',#380,3.50000000000002);
#21=FACE_BOUND('',#43,.T.);
#22=FACE_BOUND('',#56,.T.);
#23=FACE_OUTER_BOUND('',#42,.T.);
#24=FACE_OUTER_BOUND('',#44,.T.);
#25=FACE_OUTER_BOUND('',#45,.T.);
#26=FACE_OUTER_BOUND('',#46,.T.);
#27=FACE_OUTER_BOUND('',#47,.T.);
#28=FACE_OUTER_BOUND('',#48,.T.);
#29=FACE_OUTER_BOUND('',#49,.T.);
#30=FACE_OUTER_BOUND('',#50,.T.);
#31=FACE_OUTER_BOUND('',#51,.T.);
#32=FACE_OUTER_BOUND('',#52,.T.);
#33=FACE_OUTER_BOUND('',#53,.T.);
#34=FACE_OUTER_BOUND('',#54,.T.);
#35=FACE_OUTER_BOUND('',#55,.T.);
#36=FACE_OUTER_BOUND('',#57,.T.);
#37=FACE_OUTER_BOUND('',#58,.T.);
#38=FACE_OUTER_BOUND('',#59,.T.);
#39=FACE_OUTER_BOUND('',#60,.T.);
#40=FACE_OUTER_BOUND('',#61,.T.);
#41=FACE_OUTER_BOUND('',#62,.T.);
#42=EDGE_LOOP('',(#220,#221,#222,#223,#224,#225,#226,#227));
#43=EDGE_LOOP('',(#228,#229,#230));
#44=EDGE_LOOP('',(#231,#232,#233,#234));
#45=EDGE_LOOP('',(#235,#236,#237,#238));
#46=EDGE_LOOP('',(#239,#240,#241,#242));
#47=EDGE_LOOP('',(#243,#244,#245,#246));
#48=EDGE_LOOP('',(#247,#248,#249,#250));
#49=EDGE_LOOP('',(#251,#252,#253,#254));
#50=EDGE_LOOP('',(#255,#256,#257,#258));
#51=EDGE_LOOP('',(#259,#260,#261,#262));
#52=EDGE_LOOP('',(#263,#264,#265,#266));
#53=EDGE_LOOP('',(#267,#268,#269,#270));
#54=EDGE_LOOP('',(#271,#272,#273,#274));
#55=EDGE_LOOP('',(#275,#276,#277,#278));
#56=EDGE_LOOP('',(#279,#280,#281,#282,#283,#284,#285,#286));
#57=EDGE_LOOP('',(#287,#288,#289,#290));
#58=EDGE_LOOP('',(#291,#292,#293,#294));
#59=EDGE_LOOP('',(#295,#296,#297,#298));
#60=EDGE_LOOP('',(#299,#300,#301,#302));
#61=EDGE_LOOP('',(#303,#304,#305));
#62=EDGE_LOOP('',(#306,#307,#308,#309));
#63=LINE('',#476,#104);
#64=LINE('',#478,#105);
#65=LINE('',#480,#106);
#66=LINE('',#482,#107);
#67=LINE('',#484,#108);
#68=LINE('',#486,#109);
#69=LINE('',#488,#110);
#70=LINE('',#489,#111);
#71=LINE('',#492,#112);
#72=LINE('',#494,#113);
#73=LINE('',#495,#114);
#74=LINE('',#499,#115);
#75=LINE('',#500,#116);
#76=LINE('',#501,#117);
#77=LINE('',#504,#118);
#78=LINE('',#505,#119);
#79=LINE('',#507,#120);
#80=LINE('',#511,#121);
#81=LINE('',#512,#122);
#82=LINE('',#513,#123);
#83=LINE('',#516,#124);
#84=LINE('',#517,#125);
#85=LINE('',#520,#126);
#86=LINE('',#521,#127);
#87=LINE('',#524,#128);
#88=LINE('',#525,#129);
#89=LINE('',#528,#130);
#90=LINE('',#529,#131);
#91=LINE('',#532,#132);
#92=LINE('',#533,#133);
#93=LINE('',#536,#134);
#94=LINE('',#537,#135);
#95=LINE('',#539,#136);
#96=LINE('',#545,#137);
#97=LINE('',#548,#138);
#98=LINE('',#551,#139);
#99=LINE('',#553,#140);
#100=LINE('',#554,#141);
#101=LINE('',#558,#142);
#102=LINE('',#561,#143);
#103=LINE('',#562,#144);
#104=VECTOR('',#387,10.);
#105=VECTOR('',#388,10.);
#106=VECTOR('',#389,10.);
#107=VECTOR('',#390,10.);
#108=VECTOR('',#391,10.);
#109=VECTOR('',#392,10.);
#110=VECTOR('',#393,10.);
#111=VECTOR('',#394,10.);
#112=VECTOR('',#395,10.);
#113=VECTOR('',#396,10.);
#114=VECTOR('',#397,10.);
#115=VECTOR('',#400,10.);
#116=VECTOR('',#401,10.);
#117=VECTOR('',#402,10.);
#118=VECTOR('',#405,10.);
#119=VECTOR('',#406,10.);
#120=VECTOR('',#409,10.);
#121=VECTOR('',#412,10.);
#122=VECTOR('',#413,10.);
#123=VECTOR('',#414,10.);
#124=VECTOR('',#417,10.);
#125=VECTOR('',#418,10.);
#126=VECTOR('',#421,10.);
#127=VECTOR('',#422,10.);
#128=VECTOR('',#425,10.);
#129=VECTOR('',#426,10.);
#130=VECTOR('',#429,10.);
#131=VECTOR('',#430,10.);
#132=VECTOR('',#433,10.);
#133=VECTOR('',#434,10.);
#134=VECTOR('',#437,10.);
#135=VECTOR('',#438,10.);
#136=VECTOR('',#441,10.);
#137=VECTOR('',#446,10.);
#138=VECTOR('',#449,10.);
#139=VECTOR('',#452,10.);
#140=VECTOR('',#453,10.);
#141=VECTOR('',#454,10.);
#142=VECTOR('',#459,10.);
#143=VECTOR('',#462,10.);
#144=VECTOR('',#463,10.);
#145=VERTEX_POINT('',#474);
#146=VERTEX_POINT('',#475);
#147=VERTEX_POINT('',#477);
#148=VERTEX_POINT('',#479);
#149=VERTEX_POINT('',#481);
#150=VERTEX_POINT('',#483);
#151=VERTEX_POINT('',#485);
#152=VERTEX_POINT('',#487);
#153=VERTEX_POINT('',#490);
#154=VERTEX_POINT('',#491);
#155=VERTEX_POINT('',#493);
#156=VERTEX_POINT('',#497);
#157=VERTEX_POINT('',#498);
#158=VERTEX_POINT('',#503);
#159=VERTEX_POINT('',#509);
#160=VERTEX_POINT('',#510);
#161=VERTEX_POINT('',#515);
#162=VERTEX_POINT('',#519);
#163=VERTEX_POINT('',#523);
#164=VERTEX_POINT('',#527);
#165=VERTEX_POINT('',#531);
#166=VERTEX_POINT('',#535);
#167=VERTEX_POINT('',#541);
#168=VERTEX_POINT('',#542);
#169=VERTEX_POINT('',#544);
#170=VERTEX_POINT('',#546);
#171=VERTEX_POINT('',#550);
#172=VERTEX_POINT('',#552);
#173=VERTEX_POINT('',#556);
#174=VERTEX_POINT('',#560);
#175=EDGE_CURVE('',#145,#146,#63,.T.);
#176=EDGE_CURVE('',#146,#147,#64,.T.);
#177=EDGE_CURVE('',#147,#148,#65,.T.);
#178=EDGE_CURVE('',#148,#149,#66,.T.);
#179=EDGE_CURVE('',#149,#150,#67,.T.);
#180=EDGE_CURVE('',#150,#151,#68,.T.);
#181=EDGE_CURVE('',#151,#152,#69,.T.);
#182=EDGE_CURVE('',#152,#145,#70,.T.);
#183=EDGE_CURVE('',#153,#154,#71,.T.);
#184=EDGE_CURVE('',#154,#155,#72,.T.);
#185=EDGE_CURVE('',#155,#153,#73,.T.);
#186=EDGE_CURVE('',#156,#157,#74,.T.);
#187=EDGE_CURVE('',#156,#153,#75,.T.);
#188=EDGE_CURVE('',#157,#155,#76,.T.);
#189=EDGE_CURVE('',#157,#158,#77,.T.);
#190=EDGE_CURVE('',#158,#154,#78,.T.);
#191=EDGE_CURVE('',#158,#156,#79,.T.);
#192=EDGE_CURVE('',#159,#160,#80,.T.);
#193=EDGE_CURVE('',#159,#145,#81,.T.);
#194=EDGE_CURVE('',#160,#152,#82,.T.);
#195=EDGE_CURVE('',#160,#161,#83,.T.);
#196=EDGE_CURVE('',#161,#151,#84,.T.);
#197=EDGE_CURVE('',#161,#162,#85,.T.);
#198=EDGE_CURVE('',#162,#150,#86,.T.);
#199=EDGE_CURVE('',#162,#163,#87,.T.);
#200=EDGE_CURVE('',#163,#149,#88,.T.);
#201=EDGE_CURVE('',#163,#164,#89,.T.);
#202=EDGE_CURVE('',#164,#148,#90,.T.);
#203=EDGE_CURVE('',#164,#165,#91,.T.);
#204=EDGE_CURVE('',#165,#147,#92,.T.);
#205=EDGE_CURVE('',#165,#166,#93,.T.);
#206=EDGE_CURVE('',#166,#146,#94,.T.);
#207=EDGE_CURVE('',#166,#159,#95,.T.);
#208=EDGE_CURVE('',#167,#168,#17,.T.);
#209=EDGE_CURVE('',#169,#168,#96,.T.);
#210=EDGE_CURVE('',#170,#169,#18,.T.);
#211=EDGE_CURVE('',#167,#170,#97,.T.);
#212=EDGE_CURVE('',#168,#171,#98,.T.);
#213=EDGE_CURVE('',#172,#171,#99,.T.);
#214=EDGE_CURVE('',#169,#172,#100,.T.);
#215=EDGE_CURVE('',#173,#172,#19,.T.);
#216=EDGE_CURVE('',#170,#173,#101,.F.);
#217=EDGE_CURVE('',#174,#173,#102,.T.);
#218=EDGE_CURVE('',#167,#174,#103,.T.);
#219=EDGE_CURVE('',#171,#174,#20,.T.);
#220=ORIENTED_EDGE('',*,*,#175,.T.);
#221=ORIENTED_EDGE('',*,*,#176,.T.);
#222=ORIENTED_EDGE('',*,*,#177,.T.);
#223=ORIENTED_EDGE('',*,*,#178,.T.);
#224=ORIENTED_EDGE('',*,*,#179,.T.);
#225=ORIENTED_EDGE('',*,*,#180,.T.);
#226=ORIENTED_EDGE('',*,*,#181,.T.);
#227=ORIENTED_EDGE('',*,*,#182,.T.);
#228=ORIENTED_EDGE('',*,*,#183,.T.);
#229=ORIENTED_EDGE('',*,*,#184,.T.);
#230=ORIENTED_EDGE('',*,*,#185,.T.);
#231=ORIENTED_EDGE('',*,*,#186,.F.);
#232=ORIENTED_EDGE('',*,*,#187,.T.);
#233=ORIENTED_EDGE('',*,*,#185,.F.);
#234=ORIENTED_EDGE('',*,*,#188,.F.);
#235=ORIENTED_EDGE('',*,*,#189,.F.);
#236=ORIENTED_EDGE('',*,*,#188,.T.);
#237=ORIENTED_EDGE('',*,*,#184,.F.);
#238=ORIENTED_EDGE('',*,*,#190,.F.);
#239=ORIENTED_EDGE('',*,*,#191,.F.);
#240=ORIENTED_EDGE('',*,*,#190,.T.);
#241=ORIENTED_EDGE('',*,*,#183,.F.);
#242=ORIENTED_EDGE('',*,*,#187,.F.);
#243=ORIENTED_EDGE('',*,*,#192,.F.);
#244=ORIENTED_EDGE('',*,*,#193,.T.);
#245=ORIENTED_EDGE('',*,*,#182,.F.);
#246=ORIENTED_EDGE('',*,*,#194,.F.);
#247=ORIENTED_EDGE('',*,*,#195,.F.);
#248=ORIENTED_EDGE('',*,*,#194,.T.);
#249=ORIENTED_EDGE('',*,*,#181,.F.);
#250=ORIENTED_EDGE('',*,*,#196,.F.);
#251=ORIENTED_EDGE('',*,*,#197,.F.);
#252=ORIENTED_EDGE('',*,*,#196,.T.);
#253=ORIENTED_EDGE('',*,*,#180,.F.);
#254=ORIENTED_EDGE('',*,*,#198,.F.);
#255=ORIENTED_EDGE('',*,*,#199,.F.);
#256=ORIENTED_EDGE('',*,*,#198,.T.);
#257=ORIENTED_EDGE('',*,*,#179,.F.);
#258=ORIENTED_EDGE('',*,*,#200,.F.);
#259=ORIENTED_EDGE('',*,*,#201,.F.);
#260=ORIENTED_EDGE('',*,*,#200,.T.);
#261=ORIENTED_EDGE('',*,*,#178,.F.);
#262=ORIENTED_EDGE('',*,*,#202,.F.);
#263=ORIENTED_EDGE('',*,*,#203,.F.);
#264=ORIENTED_EDGE('',*,*,#202,.T.);
#265=ORIENTED_EDGE('',*,*,#177,.F.);
#266=ORIENTED_EDGE('',*,*,#204,.F.);
#267=ORIENTED_EDGE('',*,*,#205,.F.);
#268=ORIENTED_EDGE('',*,*,#204,.T.);
#269=ORIENTED_EDGE('',*,*,#176,.F.);
#270=ORIENTED_EDGE('',*,*,#206,.F.);
#271=ORIENTED_EDGE('',*,*,#207,.F.);
#272=ORIENTED_EDGE('',*,*,#206,.T.);
#273=ORIENTED_EDGE('',*,*,#175,.F.);
#274=ORIENTED_EDGE('',*,*,#193,.F.);
#275=ORIENTED_EDGE('',*,*,#208,.T.);
#276=ORIENTED_EDGE('',*,*,#209,.F.);
#277=ORIENTED_EDGE('',*,*,#210,.F.);
#278=ORIENTED_EDGE('',*,*,#211,.F.);
#279=ORIENTED_EDGE('',*,*,#192,.T.);
#280=ORIENTED_EDGE('',*,*,#195,.T.);
#281=ORIENTED_EDGE('',*,*,#197,.T.);
#282=ORIENTED_EDGE('',*,*,#199,.T.);
#283=ORIENTED_EDGE('',*,*,#201,.T.);
#284=ORIENTED_EDGE('',*,*,#203,.T.);
#285=ORIENTED_EDGE('',*,*,#205,.T.);
#286=ORIENTED_EDGE('',*,*,#207,.T.);
#287=ORIENTED_EDGE('',*,*,#209,.T.);
#288=ORIENTED_EDGE('',*,*,#212,.T.);
#289=ORIENTED_EDGE('',*,*,#213,.F.);
#290=ORIENTED_EDGE('',*,*,#214,.F.);
#291=ORIENTED_EDGE('',*,*,#210,.T.);
#292=ORIENTED_EDGE('',*,*,#214,.T.);
#293=ORIENTED_EDGE('',*,*,#215,.F.);
#294=ORIENTED_EDGE('',*,*,#216,.F.);
#295=ORIENTED_EDGE('',*,*,#211,.T.);
#296=ORIENTED_EDGE('',*,*,#216,.T.);
#297=ORIENTED_EDGE('',*,*,#217,.F.);
#298=ORIENTED_EDGE('',*,*,#218,.F.);
#299=ORIENTED_EDGE('',*,*,#208,.F.);
#300=ORIENTED_EDGE('',*,*,#218,.T.);
#301=ORIENTED_EDGE('',*,*,#219,.F.);
#302=ORIENTED_EDGE('',*,*,#212,.F.);
#303=ORIENTED_EDGE('',*,*,#186,.T.);
#304=ORIENTED_EDGE('',*,*,#189,.T.);
#305=ORIENTED_EDGE('',*,*,#191,.T.);
#306=ORIENTED_EDGE('',*,*,#219,.T.);
#307=ORIENTED_EDGE('',*,*,#217,.T.);
#308=ORIENTED_EDGE('',*,*,#215,.T.);
#309=ORIENTED_EDGE('',*,*,#213,.T.);
#310=PLANE('',#360);
#311=PLANE('',#361);
#312=PLANE('',#362);
#313=PLANE('',#363);
#314=PLANE('',#364);
#315=PLANE('',#365);
#316=PLANE('',#366);
#317=PLANE('',#367);
#318=PLANE('',#368);
#319=PLANE('',#369);
#320=PLANE('',#370);
#321=PLANE('',#371);
#322=PLANE('',#372);
#323=PLANE('',#375);
#324=PLANE('',#378);
#325=PLANE('',#381);
#326=PLANE('',#382);
#327=ADVANCED_FACE('',(#23,#21),#310,.T.);
#328=ADVANCED_FACE('',(#24),#311,.T.);
#329=ADVANCED_FACE('',(#25),#312,.T.);
#330=ADVANCED_FACE('',(#26),#313,.T.);
#331=ADVANCED_FACE('',(#27),#314,.T.);
#332=ADVANCED_FACE('',(#28),#315,.T.);
#333=ADVANCED_FACE('',(#29),#316,.T.);
#334=ADVANCED_FACE('',(#30),#317,.T.);
#335=ADVANCED_FACE('',(#31),#318,.T.);
#336=ADVANCED_FACE('',(#32),#319,.T.);
#337=ADVANCED_FACE('',(#33),#320,.T.);
#338=ADVANCED_FACE('',(#34),#321,.T.);
#339=ADVANCED_FACE('',(#35,#22),#322,.T.);
#340=ADVANCED_FACE('',(#36),#323,.T.);
#341=ADVANCED_FACE('',(#37),#15,.F.);
#342=ADVANCED_FACE('',(#38),#324,.T.);
#343=ADVANCED_FACE('',(#39),#16,.T.);
#344=ADVANCED_FACE('',(#40),#325,.T.);
#345=ADVANCED_FACE('',(#41),#326,.F.);
#346=CLOSED_SHELL('',(#327,#328,#329,#330,#331,#332,#333,#334,#335,#336,
#337,#338,#339,#340,#341,#342,#343,#344,#345));
#347=DERIVED_UNIT_ELEMENT(#349,1.);
#348=DERIVED_UNIT_ELEMENT(#572,-3.);
#349=(
MASS_UNIT()
NAMED_UNIT(*)
SI_UNIT(.KILO.,.GRAM.)
);
#350=DERIVED_UNIT((#347,#348));
#351=MEASURE_REPRESENTATION_ITEM('density measure',
POSITIVE_RATIO_MEASURE(7850.),#350);
#352=PROPERTY_DEFINITION_REPRESENTATION(#357,#354);
#353=PROPERTY_DEFINITION_REPRESENTATION(#358,#355);
#354=REPRESENTATION('material name',(#356),#569);
#355=REPRESENTATION('density',(#351),#569);
#356=DESCRIPTIVE_REPRESENTATION_ITEM('Steel','Steel');
#357=PROPERTY_DEFINITION('material property','material name',#579);
#358=PROPERTY_DEFINITION('material property','density of part',#579);
#359=AXIS2_PLACEMENT_3D('',#472,#383,#384);
#360=AXIS2_PLACEMENT_3D('',#473,#385,#386);
#361=AXIS2_PLACEMENT_3D('',#496,#398,#399);
#362=AXIS2_PLACEMENT_3D('',#502,#403,#404);
#363=AXIS2_PLACEMENT_3D('',#506,#407,#408);
#364=AXIS2_PLACEMENT_3D('',#508,#410,#411);
#365=AXIS2_PLACEMENT_3D('',#514,#415,#416);
#366=AXIS2_PLACEMENT_3D('',#518,#419,#420);
#367=AXIS2_PLACEMENT_3D('',#522,#423,#424);
#368=AXIS2_PLACEMENT_3D('',#526,#427,#428);
#369=AXIS2_PLACEMENT_3D('',#530,#431,#432);
#370=AXIS2_PLACEMENT_3D('',#534,#435,#436);
#371=AXIS2_PLACEMENT_3D('',#538,#439,#440);
#372=AXIS2_PLACEMENT_3D('',#540,#442,#443);
#373=AXIS2_PLACEMENT_3D('',#543,#444,#445);
#374=AXIS2_PLACEMENT_3D('',#547,#447,#448);
#375=AXIS2_PLACEMENT_3D('',#549,#450,#451);
#376=AXIS2_PLACEMENT_3D('',#555,#455,#456);
#377=AXIS2_PLACEMENT_3D('',#557,#457,#458);
#378=AXIS2_PLACEMENT_3D('',#559,#460,#461);
#379=AXIS2_PLACEMENT_3D('',#563,#464,#465);
#380=AXIS2_PLACEMENT_3D('',#564,#466,#467);
#381=AXIS2_PLACEMENT_3D('',#565,#468,#469);
#382=AXIS2_PLACEMENT_3D('',#566,#470,#471);
#383=DIRECTION('axis',(0.,0.,1.));
#384=DIRECTION('refdir',(1.,0.,0.));
#385=DIRECTION('center_axis',(0.,0.,1.));
#386=DIRECTION('ref_axis',(1.,0.,0.));
#387=DIRECTION('',(0.28975688707498,-0.957100280217605,0.));
#388=DIRECTION('',(0.999999970741129,-0.000241904402823434,0.));
#389=DIRECTION('',(-0.351535438445326,0.936174575342149,0.));
#390=DIRECTION('',(-0.999999970741129,0.000241904402824467,0.));
#391=DIRECTION('',(-0.352040788226946,-0.935984659823306,0.));
#392=DIRECTION('',(0.999999970741129,-0.0002419044028264,0.));
#393=DIRECTION('',(0.283407317582301,0.958999631043101,0.));
#394=DIRECTION('',(0.999999970741129,-0.00024190440281894,0.));
#395=DIRECTION('',(-0.999999970741129,0.000241904402819601,0.));
#396=DIRECTION('',(0.290924520246628,0.95674600784078,0.));
#397=DIRECTION('',(0.2933407306141,-0.956007958001808,0.));
#398=DIRECTION('center_axis',(-0.956007958001808,-0.2933407306141,0.));
#399=DIRECTION('ref_axis',(0.2933407306141,-0.956007958001808,0.));
#400=DIRECTION('',(-0.2933407306141,0.956007958001808,0.));
#401=DIRECTION('',(0.,0.,1.));
#402=DIRECTION('',(0.,0.,1.));
#403=DIRECTION('center_axis',(0.95674600784078,-0.290924520246628,0.));
#404=DIRECTION('ref_axis',(0.290924520246628,0.95674600784078,0.));
#405=DIRECTION('',(-0.290924520246628,-0.95674600784078,0.));
#406=DIRECTION('',(0.,0.,1.));
#407=DIRECTION('center_axis',(0.000241904402819601,0.99999997074113,0.));
#408=DIRECTION('ref_axis',(-0.999999970741129,0.000241904402819601,0.));
#409=DIRECTION('',(0.999999970741129,-0.000241904402819601,0.));
#410=DIRECTION('center_axis',(-0.00024190440281894,-0.99999997074113,0.));
#411=DIRECTION('ref_axis',(0.999999970741129,-0.00024190440281894,0.));
#412=DIRECTION('',(-0.999999970741129,0.00024190440281894,0.));
#413=DIRECTION('',(0.,0.,1.));
#414=DIRECTION('',(0.,0.,1.));
#415=DIRECTION('center_axis',(0.958999631043101,-0.283407317582301,0.));
#416=DIRECTION('ref_axis',(0.283407317582301,0.958999631043101,0.));
#417=DIRECTION('',(-0.283407317582301,-0.958999631043101,0.));
#418=DIRECTION('',(0.,0.,1.));
#419=DIRECTION('center_axis',(-0.0002419044028264,-0.99999997074113,0.));
#420=DIRECTION('ref_axis',(0.999999970741129,-0.0002419044028264,0.));
#421=DIRECTION('',(-0.999999970741129,0.0002419044028264,0.));
#422=DIRECTION('',(0.,0.,1.));
#423=DIRECTION('center_axis',(-0.935984659823306,0.352040788226946,0.));
#424=DIRECTION('ref_axis',(-0.352040788226946,-0.935984659823306,0.));
#425=DIRECTION('',(0.352040788226946,0.935984659823306,0.));
#426=DIRECTION('',(0.,0.,1.));
#427=DIRECTION('center_axis',(0.000241904402824467,0.99999997074113,0.));
#428=DIRECTION('ref_axis',(-0.999999970741129,0.000241904402824467,0.));
#429=DIRECTION('',(0.999999970741129,-0.000241904402824467,0.));
#430=DIRECTION('',(0.,0.,1.));
#431=DIRECTION('center_axis',(0.936174575342149,0.351535438445326,0.));
#432=DIRECTION('ref_axis',(-0.351535438445326,0.936174575342149,0.));
#433=DIRECTION('',(0.351535438445326,-0.936174575342149,0.));
#434=DIRECTION('',(0.,0.,1.));
#435=DIRECTION('center_axis',(-0.000241904402823434,-0.99999997074113,0.));
#436=DIRECTION('ref_axis',(0.999999970741129,-0.000241904402823434,0.));
#437=DIRECTION('',(-0.999999970741129,0.000241904402823434,0.));
#438=DIRECTION('',(0.,0.,1.));
#439=DIRECTION('center_axis',(-0.957100280217605,-0.28975688707498,0.));
#440=DIRECTION('ref_axis',(0.28975688707498,-0.957100280217605,0.));
#441=DIRECTION('',(-0.28975688707498,0.957100280217605,0.));
#442=DIRECTION('center_axis',(0.,0.,1.));
#443=DIRECTION('ref_axis',(-1.,0.,0.));
#444=DIRECTION('center_axis',(0.,0.,1.));
#445=DIRECTION('ref_axis',(0.906307787036651,0.422618261740698,0.));
#446=DIRECTION('',(-0.422618261740692,0.906307787036653,0.));
#447=DIRECTION('center_axis',(0.,0.,1.));
#448=DIRECTION('ref_axis',(-1.,0.,0.));
#449=DIRECTION('',(0.422618261740695,-0.906307787036652,0.));
#450=DIRECTION('center_axis',(-0.906307787036653,-0.422618261740692,0.));
#451=DIRECTION('ref_axis',(-0.422618261740692,0.906307787036653,0.));
#452=DIRECTION('',(0.,0.,-1.));
#453=DIRECTION('',(-0.422618261740692,0.906307787036653,0.));
#454=DIRECTION('',(0.,0.,-1.));
#455=DIRECTION('center_axis',(0.,0.,-1.));
#456=DIRECTION('ref_axis',(-1.,0.,0.));
#457=DIRECTION('center_axis',(0.,0.,1.));
#458=DIRECTION('ref_axis',(-1.,0.,0.));
#459=DIRECTION('',(0.,0.,1.));
#460=DIRECTION('center_axis',(0.906307787036652,0.422618261740695,0.));
#461=DIRECTION('ref_axis',(0.422618261740695,-0.906307787036652,0.));
#462=DIRECTION('',(0.422618261740695,-0.906307787036652,0.));
#463=DIRECTION('',(0.,0.,-1.));
#464=DIRECTION('center_axis',(0.,0.,-1.));
#465=DIRECTION('ref_axis',(0.906307787036651,0.422618261740698,0.));
#466=DIRECTION('center_axis',(0.,0.,-1.));
#467=DIRECTION('ref_axis',(0.906307787036651,0.422618261740698,0.));
#468=DIRECTION('center_axis',(0.,0.,1.));
#469=DIRECTION('ref_axis',(-1.,0.,0.));
#470=DIRECTION('center_axis',(0.,0.,1.));
#471=DIRECTION('ref_axis',(-1.,0.,0.));
#472=CARTESIAN_POINT('',(0.,0.,0.));
#473=CARTESIAN_POINT('Origin',(115.90633535667,101.410346180456,7.91));
#474=CARTESIAN_POINT('',(116.717565114258,99.8194722470766,7.91));
#475=CARTESIAN_POINT('',(116.95496639716,99.0353085411397,7.91));
#476=CARTESIAN_POINT('',(116.95496639716,99.0353085411397,7.91));
#477=CARTESIAN_POINT('',(118.491942451204,99.0349367398543,7.91));
#478=CARTESIAN_POINT('',(118.491942451204,99.0349367398543,7.91));
#479=CARTESIAN_POINT('',(116.708145822934,103.7853683275,7.91));
#480=CARTESIAN_POINT('',(116.708145822934,103.7853683275,7.91));
#481=CARTESIAN_POINT('',(115.107126815127,103.785755621058,7.91));
#482=CARTESIAN_POINT('',(115.107126815127,103.785755621058,7.91));
#483=CARTESIAN_POINT('',(113.320728262137,99.0361876793712,7.91));
#484=CARTESIAN_POINT('',(113.320728262137,99.0361876793712,7.91));
#485=CARTESIAN_POINT('',(114.819430683028,99.0358251366464,7.91));
#486=CARTESIAN_POINT('',(114.819430683028,99.0358251366464,7.91));
#487=CARTESIAN_POINT('',(115.051136269211,99.819875363563,7.91));
#488=CARTESIAN_POINT('',(115.051136269211,99.819875363563,7.91));
#489=CARTESIAN_POINT('',(116.717565114258,99.8194722470766,7.91));
#490=CARTESIAN_POINT('',(116.413344418474,100.846660260784,7.91));
#491=CARTESIAN_POINT('',(115.370181060028,100.8469126066,7.91));
#492=CARTESIAN_POINT('',(115.370181060028,100.8469126066,7.91));
#493=CARTESIAN_POINT('',(115.889365962777,102.554324833715,7.91));
#494=CARTESIAN_POINT('',(115.889365962777,102.554324833715,7.91));
#495=CARTESIAN_POINT('',(116.413344418474,100.846660260784,7.91));
#496=CARTESIAN_POINT('Origin',(115.889365962777,102.554324833715,7.11));
#497=CARTESIAN_POINT('',(116.413344418474,100.846660260784,7.11));
#498=CARTESIAN_POINT('',(115.889365962777,102.554324833715,7.11));
#499=CARTESIAN_POINT('',(116.378947792259,100.958760098815,7.11));
#500=CARTESIAN_POINT('',(116.413344418474,100.846660260784,7.11));
#501=CARTESIAN_POINT('',(115.889365962777,102.554324833715,7.11));
#502=CARTESIAN_POINT('Origin',(115.370181060028,100.8469126066,7.11));
#503=CARTESIAN_POINT('',(115.370181060028,100.8469126066,7.11));
#504=CARTESIAN_POINT('',(115.234122376925,100.399464582003,7.11));
#505=CARTESIAN_POINT('',(115.370181060028,100.8469126066,7.11));
#506=CARTESIAN_POINT('Origin',(116.413344418474,100.846660260784,7.11));
#507=CARTESIAN_POINT('',(116.682414530486,100.846595171537,7.11));
#508=CARTESIAN_POINT('Origin',(115.051136269211,99.819875363563,7.11));
#509=CARTESIAN_POINT('',(116.717565114258,99.8194722470766,7.11));
#510=CARTESIAN_POINT('',(115.051136269211,99.819875363563,7.11));
#511=CARTESIAN_POINT('',(116.001186224108,99.8196455422893,7.11));
#512=CARTESIAN_POINT('',(116.717565114258,99.8194722470766,7.11));
#513=CARTESIAN_POINT('',(115.051136269211,99.819875363563,7.11));
#514=CARTESIAN_POINT('Origin',(114.819430683028,99.0358251366464,7.11));
#515=CARTESIAN_POINT('',(114.819430683028,99.0358251366464,7.11));
#516=CARTESIAN_POINT('',(114.952971377492,99.4877029421048,7.11));
#517=CARTESIAN_POINT('',(114.819430683028,99.0358251366464,7.11));
#518=CARTESIAN_POINT('Origin',(113.320728262137,99.0361876793712,7.11));
#519=CARTESIAN_POINT('',(113.320728262137,99.0361876793712,7.11));
#520=CARTESIAN_POINT('',(115.135887381193,99.0357485843756,7.11));
#521=CARTESIAN_POINT('',(113.320728262137,99.0361876793712,7.11));
#522=CARTESIAN_POINT('Origin',(115.107126815127,103.785755621058,7.11));
#523=CARTESIAN_POINT('',(115.107126815127,103.785755621058,7.11));
#524=CARTESIAN_POINT('',(114.496941484931,102.163431936383,7.11));
#525=CARTESIAN_POINT('',(115.107126815127,103.785755621058,7.11));
#526=CARTESIAN_POINT('Origin',(116.708145822934,103.7853683275,7.11));
#527=CARTESIAN_POINT('',(116.708145822934,103.7853683275,7.11));
#528=CARTESIAN_POINT('',(116.830170684541,103.785338809148,7.11));
#529=CARTESIAN_POINT('',(116.708145822934,103.7853683275,7.11));
#530=CARTESIAN_POINT('Origin',(118.491942451204,99.0349367398543,7.11));
#531=CARTESIAN_POINT('',(118.491942451204,99.0349367398543,7.11));
#532=CARTESIAN_POINT('',(118.3385526324,99.4434294059594,7.11));
#533=CARTESIAN_POINT('',(118.491942451204,99.0349367398543,7.11));
#534=CARTESIAN_POINT('Origin',(116.95496639716,99.0353085411397,7.11));
#535=CARTESIAN_POINT('',(116.95496639716,99.0353085411397,7.11));
#536=CARTESIAN_POINT('',(116.953006448704,99.0353090152598,7.11));
#537=CARTESIAN_POINT('',(116.95496639716,99.0353085411397,7.11));
#538=CARTESIAN_POINT('Origin',(116.717565114258,99.8194722470766,7.11));
#539=CARTESIAN_POINT('',(116.787124445088,99.5897097875845,7.11));
#540=CARTESIAN_POINT('Origin',(116.951131948508,99.3885409969538,7.11));
#541=CARTESIAN_POINT('',(118.934974490079,102.757080734856,7.11));
#542=CARTESIAN_POINT('',(112.590819980822,99.7987529026714,7.11));
#543=CARTESIAN_POINT('Origin',(115.76289723545,101.277916818764,7.11));
#544=CARTESIAN_POINT('',(115.160214689338,94.2886681687371,7.11));
#545=CARTESIAN_POINT('',(115.29521215231,93.9991651751437,7.11));
#546=CARTESIAN_POINT('',(121.504369198595,97.2469960009219,7.11));
#547=CARTESIAN_POINT('Origin',(120.260306839319,91.6331907989015,7.11));
#548=CARTESIAN_POINT('',(118.934974490079,102.757080734856,7.11));
#549=CARTESIAN_POINT('Origin',(115.29521215231,93.9991651751438,7.11));
#550=CARTESIAN_POINT('',(112.590819980822,99.7987529026714,5.51));
#551=CARTESIAN_POINT('',(112.590819980822,99.7987529026714,7.11));
#552=CARTESIAN_POINT('',(115.160214689338,94.2886681687371,5.51));
#553=CARTESIAN_POINT('',(115.29521215231,93.9991651751437,5.51));
#554=CARTESIAN_POINT('',(115.160214689338,94.288668168737,7.11));
#555=CARTESIAN_POINT('Origin',(120.260306839319,91.6331907989015,7.11));
#556=CARTESIAN_POINT('',(121.504369198595,97.2469960009219,5.51));
#557=CARTESIAN_POINT('Origin',(120.260306839319,91.6331907989015,5.51));
#558=CARTESIAN_POINT('',(121.504369198595,97.2469960009219,7.11));
#559=CARTESIAN_POINT('Origin',(118.934974490079,102.757080734856,7.11));
#560=CARTESIAN_POINT('',(118.934974490079,102.757080734856,5.51));
#561=CARTESIAN_POINT('',(118.934974490079,102.757080734856,5.51));
#562=CARTESIAN_POINT('',(118.934974490079,102.757080734856,7.11));
#563=CARTESIAN_POINT('Origin',(115.76289723545,101.277916818764,7.11));
#564=CARTESIAN_POINT('Origin',(115.76289723545,101.277916818764,5.51));
#565=CARTESIAN_POINT('Origin',(116.951131948508,99.3885409969538,7.11));
#566=CARTESIAN_POINT('Origin',(116.951131948508,99.3885409969538,5.51));
#567=UNCERTAINTY_MEASURE_WITH_UNIT(LENGTH_MEASURE(0.01),#571,
'DISTANCE_ACCURACY_VALUE',
'Maximum model space distance between geometric entities at asserted c
onnectivities');
#568=UNCERTAINTY_MEASURE_WITH_UNIT(LENGTH_MEASURE(0.01),#571,
'DISTANCE_ACCURACY_VALUE',
'Maximum model space distance between geometric entities at asserted c
onnectivities');
#569=(
GEOMETRIC_REPRESENTATION_CONTEXT(3)
GLOBAL_UNCERTAINTY_ASSIGNED_CONTEXT((#567))
GLOBAL_UNIT_ASSIGNED_CONTEXT((#571,#573,#574))
REPRESENTATION_CONTEXT('','3D')
);
#570=(
GEOMETRIC_REPRESENTATION_CONTEXT(3)
GLOBAL_UNCERTAINTY_ASSIGNED_CONTEXT((#568))
GLOBAL_UNIT_ASSIGNED_CONTEXT((#571,#573,#574))
REPRESENTATION_CONTEXT('','3D')
);
#571=(
LENGTH_UNIT()
NAMED_UNIT(*)
SI_UNIT(.MILLI.,.METRE.)
);
#572=(
LENGTH_UNIT()
NAMED_UNIT(*)
SI_UNIT($,.METRE.)
);
#573=(
NAMED_UNIT(*)
PLANE_ANGLE_UNIT()
SI_UNIT($,.RADIAN.)
);
#574=(
NAMED_UNIT(*)
SI_UNIT($,.STERADIAN.)
SOLID_ANGLE_UNIT()
);
#575=SHAPE_DEFINITION_REPRESENTATION(#576,#577);
#576=PRODUCT_DEFINITION_SHAPE('',$,#579);
#577=SHAPE_REPRESENTATION('',(#359),#569);
#578=PRODUCT_DEFINITION_CONTEXT('part definition',#583,'design');
#579=PRODUCT_DEFINITION('a_label','a_label',#580,#578);
#580=PRODUCT_DEFINITION_FORMATION('',$,#585);
#581=PRODUCT_RELATED_PRODUCT_CATEGORY('a_label','a_label',(#585));
#582=APPLICATION_PROTOCOL_DEFINITION('international standard',
'automotive_design',2009,#583);
#583=APPLICATION_CONTEXT(
'Core Data for Automotive Mechanical Design Process');
#584=PRODUCT_CONTEXT('part definition',#583,'mechanical');
#585=PRODUCT('a_label','a_label',$,(#584));
#586=PRESENTATION_STYLE_ASSIGNMENT((#587));
#587=SURFACE_STYLE_USAGE(.BOTH.,#588);
#588=SURFACE_SIDE_STYLE('',(#589));
#589=SURFACE_STYLE_FILL_AREA(#590);
#590=FILL_AREA_STYLE('Steel - Satin',(#591));
#591=FILL_AREA_STYLE_COLOUR('Steel - Satin',#592);
#592=COLOUR_RGB('Steel - Satin',0.627450980392157,0.627450980392157,0.627450980392157);
ENDSEC;
END-ISO-10303-21;
