ISO-10303-21;
HEADER;
/* Generated by software containing ST-Developer
 * from STEP Tools, Inc. (www.steptools.com) 
 */

FILE_DESCRIPTION(
/* description */ (''),
/* implementation_level */ '2;1');

FILE_NAME(
/* name */ 'b_label.step',
/* time_stamp */ '2026-07-08T10:56:16+03:00',
/* author */ (''),
/* organization */ (''),
/* preprocessor_version */ 'ST-DEVELOPER v20.1',
/* originating_system */ 'Autodesk Translation Framework v15.8.0.0',
/* authorisation */ '');

FILE_SCHEMA (('AUTOMOTIVE_DESIGN { 1 0 10303 214 3 1 1 }'));
ENDSEC;

DATA;
#10=MECHANICAL_DESIGN_GEOMETRIC_PRESENTATION_REPRESENTATION('',(#13),#1288);
#11=SHAPE_REPRESENTATION_RELATIONSHIP('SRR','None',#1295,#12);
#12=ADVANCED_BREP_SHAPE_REPRESENTATION('',(#14),#1287);
#13=STYLED_ITEM('',(#1304),#14);
#14=MANIFOLD_SOLID_BREP('b_label',#652);
#15=CYLINDRICAL_SURFACE('',#681,5.75000000000001);
#16=CYLINDRICAL_SURFACE('',#684,3.50000000000002);
#17=CIRCLE('',#677,3.50000000000002);
#18=CIRCLE('',#678,5.75000000000001);
#19=CIRCLE('',#682,5.75000000000001);
#20=CIRCLE('',#685,3.50000000000002);
#21=B_SPLINE_SURFACE_WITH_KNOTS('',3,1,((#921,#922),(#923,#924),(#925,#926),
(#927,#928),(#929,#930)),.UNSPECIFIED.,.F.,.F.,.F.,(4,1,4),(2,2),(-0.0559182713454762,
-0.0324944295417282,0.),(0.,0.0800000000000001),.UNSPECIFIED.);
#22=B_SPLINE_SURFACE_WITH_KNOTS('',3,1,((#938,#939),(#940,#941),(#942,#943),
(#944,#945),(#946,#947)),.UNSPECIFIED.,.F.,.F.,.F.,(4,1,4),(2,2),(-0.0403429254103789,
-0.0196030568752604,0.),(0.,0.0800000000000001),.UNSPECIFIED.);
#23=B_SPLINE_SURFACE_WITH_KNOTS('',3,1,((#955,#956),(#957,#958),(#959,#960),
(#961,#962),(#963,#964)),.UNSPECIFIED.,.F.,.F.,.F.,(4,1,4),(2,2),(-0.038200503763317,
-0.0193809272999823,0.),(0.,0.0800000000000001),.UNSPECIFIED.);
#24=B_SPLINE_SURFACE_WITH_KNOTS('',3,1,((#972,#973),(#974,#975),(#976,#977),
(#978,#979),(#980,#981)),.UNSPECIFIED.,.F.,.F.,.F.,(4,1,4),(2,2),(-0.056177068179761,
-0.0232556215415978,0.),(0.,0.0800000000000001),.UNSPECIFIED.);
#25=B_SPLINE_SURFACE_WITH_KNOTS('',3,1,((#1001,#1002),(#1003,#1004),(#1005,
#1006),(#1007,#1008),(#1009,#1010)),.UNSPECIFIED.,.F.,.F.,.F.,(4,1,4),(2,
2),(-0.0499410458319448,-0.0292701788303701,0.),(0.,0.0800000000000001),
 .UNSPECIFIED.);
#26=B_SPLINE_SURFACE_WITH_KNOTS('',3,1,((#1018,#1019),(#1020,#1021),(#1022,
#1023),(#1024,#1025),(#1026,#1027)),.UNSPECIFIED.,.F.,.F.,.F.,(4,1,4),(2,
2),(-0.0376371281137888,-0.0176285857350617,0.),(0.,0.0800000000000001),
 .UNSPECIFIED.);
#27=B_SPLINE_SURFACE_WITH_KNOTS('',3,1,((#1035,#1036),(#1037,#1038),(#1039,
#1040),(#1041,#1042),(#1043,#1044)),.UNSPECIFIED.,.F.,.F.,.F.,(4,1,4),(2,
2),(-0.0359714098691776,-0.0187720618030295,0.),(0.,0.0800000000000001),
 .UNSPECIFIED.);
#28=B_SPLINE_SURFACE_WITH_KNOTS('',3,1,((#1052,#1053),(#1054,#1055),(#1056,
#1057),(#1058,#1059),(#1060,#1061)),.UNSPECIFIED.,.F.,.F.,.F.,(4,1,4),(2,
2),(-0.0489400333225623,-0.0203992187739841,0.),(0.,0.0800000000000001),
 .UNSPECIFIED.);
#29=B_SPLINE_SURFACE_WITH_KNOTS('',3,1,((#1081,#1082),(#1083,#1084),(#1085,
#1086),(#1087,#1088),(#1089,#1090)),.UNSPECIFIED.,.F.,.F.,.F.,(4,1,4),(2,
2),(-0.112821194433266,-0.0613044346413693,0.),(0.,0.0800000000000001),
 .UNSPECIFIED.);
#30=B_SPLINE_SURFACE_WITH_KNOTS('',3,1,((#1098,#1099),(#1100,#1101),(#1102,
#1103),(#1104,#1105),(#1106,#1107)),.UNSPECIFIED.,.F.,.F.,.F.,(4,1,4),(2,
2),(-0.0940903438658812,-0.0470123472962895,0.),(0.,0.0800000000000001),
 .UNSPECIFIED.);
#31=B_SPLINE_SURFACE_WITH_KNOTS('',3,1,((#1115,#1116),(#1117,#1118),(#1119,
#1120),(#1121,#1122),(#1123,#1124)),.UNSPECIFIED.,.F.,.F.,.F.,(4,1,4),(2,
2),(-0.0782070185656855,-0.039670664592458,0.),(0.,0.0800000000000001),
 .UNSPECIFIED.);
#32=B_SPLINE_SURFACE_WITH_KNOTS('',3,1,((#1132,#1133),(#1134,#1135),(#1136,
#1137),(#1138,#1139),(#1140,#1141)),.UNSPECIFIED.,.F.,.F.,.F.,(4,1,4),(2,
2),(-0.0607538244463919,-0.0280648389376045,0.),(0.,0.0800000000000001),
 .UNSPECIFIED.);
#33=B_SPLINE_SURFACE_WITH_KNOTS('',3,1,((#1149,#1150),(#1151,#1152),(#1153,
#1154),(#1155,#1156),(#1157,#1158)),.UNSPECIFIED.,.F.,.F.,.F.,(4,1,4),(2,
2),(-0.0875754631013801,-0.0474744351037301,0.),(0.,0.0800000000000001),
 .UNSPECIFIED.);
#34=B_SPLINE_SURFACE_WITH_KNOTS('',3,1,((#1166,#1167),(#1168,#1169),(#1170,
#1171),(#1172,#1173),(#1174,#1175)),.UNSPECIFIED.,.F.,.F.,.F.,(4,1,4),(2,
2),(-0.0803098679780778,-0.0383596216300186,0.),(0.,0.0800000000000001),
 .UNSPECIFIED.);
#35=B_SPLINE_SURFACE_WITH_KNOTS('',3,1,((#1183,#1184),(#1185,#1186),(#1187,
#1188),(#1189,#1190),(#1191,#1192)),.UNSPECIFIED.,.F.,.F.,.F.,(4,1,4),(2,
2),(-0.0692266481307834,-0.035335941948446,0.),(0.,0.0800000000000001),
 .UNSPECIFIED.);
#36=B_SPLINE_SURFACE_WITH_KNOTS('',3,1,((#1200,#1201),(#1202,#1203),(#1204,
#1205),(#1206,#1207),(#1208,#1209)),.UNSPECIFIED.,.F.,.F.,.F.,(4,1,4),(2,
2),(-0.0667981792204613,-0.0333271959185297,0.),(0.,0.0800000000000001),
 .UNSPECIFIED.);
#37=B_SPLINE_SURFACE_WITH_KNOTS('',3,1,((#1217,#1218),(#1219,#1220),(#1221,
#1222),(#1223,#1224),(#1225,#1226)),.UNSPECIFIED.,.F.,.F.,.F.,(4,1,4),(2,
2),(-0.0581097538568837,-0.0249393657262789,0.),(0.,0.0800000000000001),
 .UNSPECIFIED.);
#38=B_SPLINE_SURFACE_WITH_KNOTS('',3,1,((#1234,#1235),(#1236,#1237),(#1238,
#1239),(#1240,#1241),(#1242,#1243)),.UNSPECIFIED.,.F.,.F.,.F.,(4,1,4),(2,
2),(-0.0661130767387127,-0.0415158459010751,0.),(0.,0.0800000000000001),
 .UNSPECIFIED.);
#39=FACE_BOUND('',#79,.T.);
#40=FACE_BOUND('',#80,.T.);
#41=FACE_BOUND('',#109,.T.);
#42=FACE_OUTER_BOUND('',#78,.T.);
#43=FACE_OUTER_BOUND('',#81,.T.);
#44=FACE_OUTER_BOUND('',#82,.T.);
#45=FACE_OUTER_BOUND('',#83,.T.);
#46=FACE_OUTER_BOUND('',#84,.T.);
#47=FACE_OUTER_BOUND('',#85,.T.);
#48=FACE_OUTER_BOUND('',#86,.T.);
#49=FACE_OUTER_BOUND('',#87,.T.);
#50=FACE_OUTER_BOUND('',#88,.T.);
#51=FACE_OUTER_BOUND('',#89,.T.);
#52=FACE_OUTER_BOUND('',#90,.T.);
#53=FACE_OUTER_BOUND('',#91,.T.);
#54=FACE_OUTER_BOUND('',#92,.T.);
#55=FACE_OUTER_BOUND('',#93,.T.);
#56=FACE_OUTER_BOUND('',#94,.T.);
#57=FACE_OUTER_BOUND('',#95,.T.);
#58=FACE_OUTER_BOUND('',#96,.T.);
#59=FACE_OUTER_BOUND('',#97,.T.);
#60=FACE_OUTER_BOUND('',#98,.T.);
#61=FACE_OUTER_BOUND('',#99,.T.);
#62=FACE_OUTER_BOUND('',#100,.T.);
#63=FACE_OUTER_BOUND('',#101,.T.);
#64=FACE_OUTER_BOUND('',#102,.T.);
#65=FACE_OUTER_BOUND('',#103,.T.);
#66=FACE_OUTER_BOUND('',#104,.T.);
#67=FACE_OUTER_BOUND('',#105,.T.);
#68=FACE_OUTER_BOUND('',#106,.T.);
#69=FACE_OUTER_BOUND('',#107,.T.);
#70=FACE_OUTER_BOUND('',#108,.T.);
#71=FACE_OUTER_BOUND('',#110,.T.);
#72=FACE_OUTER_BOUND('',#111,.T.);
#73=FACE_OUTER_BOUND('',#112,.T.);
#74=FACE_OUTER_BOUND('',#113,.T.);
#75=FACE_OUTER_BOUND('',#114,.T.);
#76=FACE_OUTER_BOUND('',#115,.T.);
#77=FACE_OUTER_BOUND('',#116,.T.);
#78=EDGE_LOOP('',(#414,#415,#416,#417,#418,#419,#420,#421,#422,#423,#424,
#425,#426));
#79=EDGE_LOOP('',(#427,#428,#429,#430,#431,#432,#433));
#80=EDGE_LOOP('',(#434,#435,#436,#437,#438,#439,#440));
#81=EDGE_LOOP('',(#441,#442,#443,#444));
#82=EDGE_LOOP('',(#445,#446,#447,#448));
#83=EDGE_LOOP('',(#449,#450,#451,#452));
#84=EDGE_LOOP('',(#453,#454,#455,#456));
#85=EDGE_LOOP('',(#457,#458,#459,#460));
#86=EDGE_LOOP('',(#461,#462,#463,#464));
#87=EDGE_LOOP('',(#465,#466,#467,#468));
#88=EDGE_LOOP('',(#469,#470,#471,#472));
#89=EDGE_LOOP('',(#473,#474,#475,#476));
#90=EDGE_LOOP('',(#477,#478,#479,#480));
#91=EDGE_LOOP('',(#481,#482,#483,#484));
#92=EDGE_LOOP('',(#485,#486,#487,#488));
#93=EDGE_LOOP('',(#489,#490,#491,#492));
#94=EDGE_LOOP('',(#493,#494,#495,#496));
#95=EDGE_LOOP('',(#497,#498,#499,#500));
#96=EDGE_LOOP('',(#501,#502,#503,#504));
#97=EDGE_LOOP('',(#505,#506,#507,#508));
#98=EDGE_LOOP('',(#509,#510,#511,#512));
#99=EDGE_LOOP('',(#513,#514,#515,#516));
#100=EDGE_LOOP('',(#517,#518,#519,#520));
#101=EDGE_LOOP('',(#521,#522,#523,#524));
#102=EDGE_LOOP('',(#525,#526,#527,#528));
#103=EDGE_LOOP('',(#529,#530,#531,#532));
#104=EDGE_LOOP('',(#533,#534,#535,#536));
#105=EDGE_LOOP('',(#537,#538,#539,#540));
#106=EDGE_LOOP('',(#541,#542,#543,#544));
#107=EDGE_LOOP('',(#545,#546,#547,#548));
#108=EDGE_LOOP('',(#549,#550,#551,#552));
#109=EDGE_LOOP('',(#553,#554,#555,#556,#557,#558,#559,#560,#561,#562,#563,
#564,#565));
#110=EDGE_LOOP('',(#566,#567,#568,#569,#570,#571,#572));
#111=EDGE_LOOP('',(#573,#574,#575,#576));
#112=EDGE_LOOP('',(#577,#578,#579,#580));
#113=EDGE_LOOP('',(#581,#582,#583,#584));
#114=EDGE_LOOP('',(#585,#586,#587,#588));
#115=EDGE_LOOP('',(#589,#590,#591,#592,#593,#594,#595));
#116=EDGE_LOOP('',(#596,#597,#598,#599));
#117=B_SPLINE_CURVE_WITH_KNOTS('',3,(#795,#796,#797,#798,#799),
 .UNSPECIFIED.,.F.,.F.,(4,1,4),(-0.0661130767387127,-0.0415158459010751,
0.),.UNSPECIFIED.);
#118=B_SPLINE_CURVE_WITH_KNOTS('',3,(#801,#802,#803,#804,#805),
 .UNSPECIFIED.,.F.,.F.,(4,1,4),(-0.0581097538568837,-0.0249393657262789,
0.),.UNSPECIFIED.);
#119=B_SPLINE_CURVE_WITH_KNOTS('',3,(#807,#808,#809,#810,#811),
 .UNSPECIFIED.,.F.,.F.,(4,1,4),(-0.0667981792204613,-0.0333271959185297,
0.),.UNSPECIFIED.);
#120=B_SPLINE_CURVE_WITH_KNOTS('',3,(#813,#814,#815,#816,#817),
 .UNSPECIFIED.,.F.,.F.,(4,1,4),(-0.0692266481307834,-0.035335941948446,
0.),.UNSPECIFIED.);
#121=B_SPLINE_CURVE_WITH_KNOTS('',3,(#819,#820,#821,#822,#823),
 .UNSPECIFIED.,.F.,.F.,(4,1,4),(-0.0803098679780778,-0.0383596216300186,
0.),.UNSPECIFIED.);
#122=B_SPLINE_CURVE_WITH_KNOTS('',3,(#825,#826,#827,#828,#829),
 .UNSPECIFIED.,.F.,.F.,(4,1,4),(-0.0875754631013801,-0.0474744351037301,
0.),.UNSPECIFIED.);
#123=B_SPLINE_CURVE_WITH_KNOTS('',3,(#831,#832,#833,#834,#835),
 .UNSPECIFIED.,.F.,.F.,(4,1,4),(-0.0607538244463919,-0.0280648389376045,
0.),.UNSPECIFIED.);
#124=B_SPLINE_CURVE_WITH_KNOTS('',3,(#837,#838,#839,#840,#841),
 .UNSPECIFIED.,.F.,.F.,(4,1,4),(-0.0782070185656855,-0.039670664592458,
0.),.UNSPECIFIED.);
#125=B_SPLINE_CURVE_WITH_KNOTS('',3,(#843,#844,#845,#846,#847),
 .UNSPECIFIED.,.F.,.F.,(4,1,4),(-0.0940903438658812,-0.0470123472962895,
0.),.UNSPECIFIED.);
#126=B_SPLINE_CURVE_WITH_KNOTS('',3,(#849,#850,#851,#852,#853),
 .UNSPECIFIED.,.F.,.F.,(4,1,4),(-0.112821194433266,-0.0613044346413693,
0.),.UNSPECIFIED.);
#127=B_SPLINE_CURVE_WITH_KNOTS('',3,(#861,#862,#863,#864,#865),
 .UNSPECIFIED.,.F.,.F.,(4,1,4),(-0.0489400333225623,-0.0203992187739841,
0.),.UNSPECIFIED.);
#128=B_SPLINE_CURVE_WITH_KNOTS('',3,(#867,#868,#869,#870,#871),
 .UNSPECIFIED.,.F.,.F.,(4,1,4),(-0.0359714098691776,-0.0187720618030295,
0.),.UNSPECIFIED.);
#129=B_SPLINE_CURVE_WITH_KNOTS('',3,(#873,#874,#875,#876,#877),
 .UNSPECIFIED.,.F.,.F.,(4,1,4),(-0.0376371281137888,-0.0176285857350617,
0.),.UNSPECIFIED.);
#130=B_SPLINE_CURVE_WITH_KNOTS('',3,(#879,#880,#881,#882,#883),
 .UNSPECIFIED.,.F.,.F.,(4,1,4),(-0.0499410458319448,-0.0292701788303701,
0.),.UNSPECIFIED.);
#131=B_SPLINE_CURVE_WITH_KNOTS('',3,(#891,#892,#893,#894,#895),
 .UNSPECIFIED.,.F.,.F.,(4,1,4),(-0.056177068179761,-0.0232556215415978,
0.),.UNSPECIFIED.);
#132=B_SPLINE_CURVE_WITH_KNOTS('',3,(#897,#898,#899,#900,#901),
 .UNSPECIFIED.,.F.,.F.,(4,1,4),(-0.038200503763317,-0.0193809272999823,
0.),.UNSPECIFIED.);
#133=B_SPLINE_CURVE_WITH_KNOTS('',3,(#903,#904,#905,#906,#907),
 .UNSPECIFIED.,.F.,.F.,(4,1,4),(-0.0403429254103789,-0.0196030568752604,
0.),.UNSPECIFIED.);
#134=B_SPLINE_CURVE_WITH_KNOTS('',3,(#909,#910,#911,#912,#913),
 .UNSPECIFIED.,.F.,.F.,(4,1,4),(-0.0559182713454762,-0.0324944295417282,
0.),.UNSPECIFIED.);
#135=B_SPLINE_CURVE_WITH_KNOTS('',3,(#932,#933,#934,#935,#936),
 .UNSPECIFIED.,.F.,.F.,(4,1,4),(0.,0.0324944295417282,0.0559182713454762),
 .UNSPECIFIED.);
#136=B_SPLINE_CURVE_WITH_KNOTS('',3,(#949,#950,#951,#952,#953),
 .UNSPECIFIED.,.F.,.F.,(4,1,4),(0.,0.0196030568752604,0.0403429254103789),
 .UNSPECIFIED.);
#137=B_SPLINE_CURVE_WITH_KNOTS('',3,(#966,#967,#968,#969,#970),
 .UNSPECIFIED.,.F.,.F.,(4,1,4),(0.,0.0193809272999823,0.038200503763317),
 .UNSPECIFIED.);
#138=B_SPLINE_CURVE_WITH_KNOTS('',3,(#983,#984,#985,#986,#987),
 .UNSPECIFIED.,.F.,.F.,(4,1,4),(0.,0.0232556215415978,0.056177068179761),
 .UNSPECIFIED.);
#139=B_SPLINE_CURVE_WITH_KNOTS('',3,(#1012,#1013,#1014,#1015,#1016),
 .UNSPECIFIED.,.F.,.F.,(4,1,4),(0.,0.0292701788303701,0.0499410458319448),
 .UNSPECIFIED.);
#140=B_SPLINE_CURVE_WITH_KNOTS('',3,(#1029,#1030,#1031,#1032,#1033),
 .UNSPECIFIED.,.F.,.F.,(4,1,4),(0.,0.0176285857350617,0.0376371281137888),
 .UNSPECIFIED.);
#141=B_SPLINE_CURVE_WITH_KNOTS('',3,(#1046,#1047,#1048,#1049,#1050),
 .UNSPECIFIED.,.F.,.F.,(4,1,4),(0.,0.0187720618030295,0.0359714098691776),
 .UNSPECIFIED.);
#142=B_SPLINE_CURVE_WITH_KNOTS('',3,(#1063,#1064,#1065,#1066,#1067),
 .UNSPECIFIED.,.F.,.F.,(4,1,4),(0.,0.0203992187739841,0.0489400333225623),
 .UNSPECIFIED.);
#143=B_SPLINE_CURVE_WITH_KNOTS('',3,(#1092,#1093,#1094,#1095,#1096),
 .UNSPECIFIED.,.F.,.F.,(4,1,4),(0.,0.0613044346413693,0.112821194433266),
 .UNSPECIFIED.);
#144=B_SPLINE_CURVE_WITH_KNOTS('',3,(#1109,#1110,#1111,#1112,#1113),
 .UNSPECIFIED.,.F.,.F.,(4,1,4),(0.,0.0470123472962895,0.0940903438658812),
 .UNSPECIFIED.);
#145=B_SPLINE_CURVE_WITH_KNOTS('',3,(#1126,#1127,#1128,#1129,#1130),
 .UNSPECIFIED.,.F.,.F.,(4,1,4),(0.,0.039670664592458,0.0782070185656855),
 .UNSPECIFIED.);
#146=B_SPLINE_CURVE_WITH_KNOTS('',3,(#1143,#1144,#1145,#1146,#1147),
 .UNSPECIFIED.,.F.,.F.,(4,1,4),(0.,0.0280648389376045,0.0607538244463919),
 .UNSPECIFIED.);
#147=B_SPLINE_CURVE_WITH_KNOTS('',3,(#1160,#1161,#1162,#1163,#1164),
 .UNSPECIFIED.,.F.,.F.,(4,1,4),(0.,0.0474744351037301,0.0875754631013801),
 .UNSPECIFIED.);
#148=B_SPLINE_CURVE_WITH_KNOTS('',3,(#1177,#1178,#1179,#1180,#1181),
 .UNSPECIFIED.,.F.,.F.,(4,1,4),(0.,0.0383596216300186,0.0803098679780778),
 .UNSPECIFIED.);
#149=B_SPLINE_CURVE_WITH_KNOTS('',3,(#1194,#1195,#1196,#1197,#1198),
 .UNSPECIFIED.,.F.,.F.,(4,1,4),(0.,0.035335941948446,0.0692266481307834),
 .UNSPECIFIED.);
#150=B_SPLINE_CURVE_WITH_KNOTS('',3,(#1211,#1212,#1213,#1214,#1215),
 .UNSPECIFIED.,.F.,.F.,(4,1,4),(0.,0.0333271959185297,0.0667981792204613),
 .UNSPECIFIED.);
#151=B_SPLINE_CURVE_WITH_KNOTS('',3,(#1228,#1229,#1230,#1231,#1232),
 .UNSPECIFIED.,.F.,.F.,(4,1,4),(0.,0.0249393657262789,0.0581097538568837),
 .UNSPECIFIED.);
#152=B_SPLINE_CURVE_WITH_KNOTS('',3,(#1245,#1246,#1247,#1248,#1249),
 .UNSPECIFIED.,.F.,.F.,(4,1,4),(0.,0.0415158459010751,0.0661130767387127),
 .UNSPECIFIED.);
#153=LINE('',#791,#206);
#154=LINE('',#793,#207);
#155=LINE('',#854,#208);
#156=LINE('',#857,#209);
#157=LINE('',#859,#210);
#158=LINE('',#884,#211);
#159=LINE('',#887,#212);
#160=LINE('',#889,#213);
#161=LINE('',#914,#214);
#162=LINE('',#918,#215);
#163=LINE('',#919,#216);
#164=LINE('',#920,#217);
#165=LINE('',#937,#218);
#166=LINE('',#954,#219);
#167=LINE('',#971,#220);
#168=LINE('',#988,#221);
#169=LINE('',#991,#222);
#170=LINE('',#992,#223);
#171=LINE('',#994,#224);
#172=LINE('',#998,#225);
#173=LINE('',#999,#226);
#174=LINE('',#1000,#227);
#175=LINE('',#1017,#228);
#176=LINE('',#1034,#229);
#177=LINE('',#1051,#230);
#178=LINE('',#1068,#231);
#179=LINE('',#1071,#232);
#180=LINE('',#1072,#233);
#181=LINE('',#1074,#234);
#182=LINE('',#1078,#235);
#183=LINE('',#1079,#236);
#184=LINE('',#1080,#237);
#185=LINE('',#1097,#238);
#186=LINE('',#1114,#239);
#187=LINE('',#1131,#240);
#188=LINE('',#1148,#241);
#189=LINE('',#1165,#242);
#190=LINE('',#1182,#243);
#191=LINE('',#1199,#244);
#192=LINE('',#1216,#245);
#193=LINE('',#1233,#246);
#194=LINE('',#1250,#247);
#195=LINE('',#1253,#248);
#196=LINE('',#1254,#249);
#197=LINE('',#1256,#250);
#198=LINE('',#1262,#251);
#199=LINE('',#1265,#252);
#200=LINE('',#1269,#253);
#201=LINE('',#1271,#254);
#202=LINE('',#1272,#255);
#203=LINE('',#1276,#256);
#204=LINE('',#1279,#257);
#205=LINE('',#1280,#258);
#206=VECTOR('',#692,10.);
#207=VECTOR('',#693,10.);
#208=VECTOR('',#694,10.);
#209=VECTOR('',#695,10.);
#210=VECTOR('',#696,10.);
#211=VECTOR('',#697,10.);
#212=VECTOR('',#698,10.);
#213=VECTOR('',#699,10.);
#214=VECTOR('',#700,10.);
#215=VECTOR('',#703,10.);
#216=VECTOR('',#704,10.);
#217=VECTOR('',#705,10.);
#218=VECTOR('',#706,10.);
#219=VECTOR('',#707,10.);
#220=VECTOR('',#708,10.);
#221=VECTOR('',#709,10.);
#222=VECTOR('',#712,10.);
#223=VECTOR('',#713,10.);
#224=VECTOR('',#716,10.);
#225=VECTOR('',#719,10.);
#226=VECTOR('',#720,10.);
#227=VECTOR('',#721,10.);
#228=VECTOR('',#722,10.);
#229=VECTOR('',#723,10.);
#230=VECTOR('',#724,10.);
#231=VECTOR('',#725,10.);
#232=VECTOR('',#728,10.);
#233=VECTOR('',#729,10.);
#234=VECTOR('',#732,10.);
#235=VECTOR('',#735,10.);
#236=VECTOR('',#736,10.);
#237=VECTOR('',#737,10.);
#238=VECTOR('',#738,10.);
#239=VECTOR('',#739,10.);
#240=VECTOR('',#740,10.);
#241=VECTOR('',#741,10.);
#242=VECTOR('',#742,10.);
#243=VECTOR('',#743,10.);
#244=VECTOR('',#744,10.);
#245=VECTOR('',#745,10.);
#246=VECTOR('',#746,10.);
#247=VECTOR('',#747,10.);
#248=VECTOR('',#750,10.);
#249=VECTOR('',#751,10.);
#250=VECTOR('',#754,10.);
#251=VECTOR('',#759,10.);
#252=VECTOR('',#762,10.);
#253=VECTOR('',#767,10.);
#254=VECTOR('',#768,10.);
#255=VECTOR('',#769,10.);
#256=VECTOR('',#774,10.);
#257=VECTOR('',#777,10.);
#258=VECTOR('',#778,10.);
#259=VERTEX_POINT('',#789);
#260=VERTEX_POINT('',#790);
#261=VERTEX_POINT('',#792);
#262=VERTEX_POINT('',#794);
#263=VERTEX_POINT('',#800);
#264=VERTEX_POINT('',#806);
#265=VERTEX_POINT('',#812);
#266=VERTEX_POINT('',#818);
#267=VERTEX_POINT('',#824);
#268=VERTEX_POINT('',#830);
#269=VERTEX_POINT('',#836);
#270=VERTEX_POINT('',#842);
#271=VERTEX_POINT('',#848);
#272=VERTEX_POINT('',#855);
#273=VERTEX_POINT('',#856);
#274=VERTEX_POINT('',#858);
#275=VERTEX_POINT('',#860);
#276=VERTEX_POINT('',#866);
#277=VERTEX_POINT('',#872);
#278=VERTEX_POINT('',#878);
#279=VERTEX_POINT('',#885);
#280=VERTEX_POINT('',#886);
#281=VERTEX_POINT('',#888);
#282=VERTEX_POINT('',#890);
#283=VERTEX_POINT('',#896);
#284=VERTEX_POINT('',#902);
#285=VERTEX_POINT('',#908);
#286=VERTEX_POINT('',#916);
#287=VERTEX_POINT('',#917);
#288=VERTEX_POINT('',#931);
#289=VERTEX_POINT('',#948);
#290=VERTEX_POINT('',#965);
#291=VERTEX_POINT('',#982);
#292=VERTEX_POINT('',#990);
#293=VERTEX_POINT('',#996);
#294=VERTEX_POINT('',#997);
#295=VERTEX_POINT('',#1011);
#296=VERTEX_POINT('',#1028);
#297=VERTEX_POINT('',#1045);
#298=VERTEX_POINT('',#1062);
#299=VERTEX_POINT('',#1070);
#300=VERTEX_POINT('',#1076);
#301=VERTEX_POINT('',#1077);
#302=VERTEX_POINT('',#1091);
#303=VERTEX_POINT('',#1108);
#304=VERTEX_POINT('',#1125);
#305=VERTEX_POINT('',#1142);
#306=VERTEX_POINT('',#1159);
#307=VERTEX_POINT('',#1176);
#308=VERTEX_POINT('',#1193);
#309=VERTEX_POINT('',#1210);
#310=VERTEX_POINT('',#1227);
#311=VERTEX_POINT('',#1244);
#312=VERTEX_POINT('',#1252);
#313=VERTEX_POINT('',#1258);
#314=VERTEX_POINT('',#1259);
#315=VERTEX_POINT('',#1261);
#316=VERTEX_POINT('',#1263);
#317=VERTEX_POINT('',#1268);
#318=VERTEX_POINT('',#1270);
#319=VERTEX_POINT('',#1274);
#320=VERTEX_POINT('',#1278);
#321=EDGE_CURVE('',#259,#260,#153,.T.);
#322=EDGE_CURVE('',#260,#261,#154,.T.);
#323=EDGE_CURVE('',#261,#262,#117,.T.);
#324=EDGE_CURVE('',#262,#263,#118,.T.);
#325=EDGE_CURVE('',#263,#264,#119,.T.);
#326=EDGE_CURVE('',#264,#265,#120,.T.);
#327=EDGE_CURVE('',#265,#266,#121,.T.);
#328=EDGE_CURVE('',#266,#267,#122,.T.);
#329=EDGE_CURVE('',#267,#268,#123,.T.);
#330=EDGE_CURVE('',#268,#269,#124,.T.);
#331=EDGE_CURVE('',#269,#270,#125,.T.);
#332=EDGE_CURVE('',#270,#271,#126,.T.);
#333=EDGE_CURVE('',#271,#259,#155,.T.);
#334=EDGE_CURVE('',#272,#273,#156,.T.);
#335=EDGE_CURVE('',#273,#274,#157,.T.);
#336=EDGE_CURVE('',#274,#275,#127,.T.);
#337=EDGE_CURVE('',#275,#276,#128,.T.);
#338=EDGE_CURVE('',#276,#277,#129,.T.);
#339=EDGE_CURVE('',#277,#278,#130,.T.);
#340=EDGE_CURVE('',#278,#272,#158,.T.);
#341=EDGE_CURVE('',#279,#280,#159,.T.);
#342=EDGE_CURVE('',#280,#281,#160,.T.);
#343=EDGE_CURVE('',#281,#282,#131,.T.);
#344=EDGE_CURVE('',#282,#283,#132,.T.);
#345=EDGE_CURVE('',#283,#284,#133,.T.);
#346=EDGE_CURVE('',#284,#285,#134,.T.);
#347=EDGE_CURVE('',#285,#279,#161,.T.);
#348=EDGE_CURVE('',#286,#287,#162,.T.);
#349=EDGE_CURVE('',#286,#279,#163,.T.);
#350=EDGE_CURVE('',#287,#285,#164,.T.);
#351=EDGE_CURVE('',#287,#288,#135,.T.);
#352=EDGE_CURVE('',#288,#284,#165,.T.);
#353=EDGE_CURVE('',#288,#289,#136,.T.);
#354=EDGE_CURVE('',#289,#283,#166,.T.);
#355=EDGE_CURVE('',#289,#290,#137,.T.);
#356=EDGE_CURVE('',#290,#282,#167,.T.);
#357=EDGE_CURVE('',#290,#291,#138,.T.);
#358=EDGE_CURVE('',#291,#281,#168,.T.);
#359=EDGE_CURVE('',#291,#292,#169,.T.);
#360=EDGE_CURVE('',#292,#280,#170,.T.);
#361=EDGE_CURVE('',#292,#286,#171,.T.);
#362=EDGE_CURVE('',#293,#294,#172,.T.);
#363=EDGE_CURVE('',#293,#272,#173,.T.);
#364=EDGE_CURVE('',#294,#278,#174,.T.);
#365=EDGE_CURVE('',#294,#295,#139,.T.);
#366=EDGE_CURVE('',#295,#277,#175,.T.);
#367=EDGE_CURVE('',#295,#296,#140,.T.);
#368=EDGE_CURVE('',#296,#276,#176,.T.);
#369=EDGE_CURVE('',#296,#297,#141,.T.);
#370=EDGE_CURVE('',#297,#275,#177,.T.);
#371=EDGE_CURVE('',#297,#298,#142,.T.);
#372=EDGE_CURVE('',#298,#274,#178,.T.);
#373=EDGE_CURVE('',#298,#299,#179,.T.);
#374=EDGE_CURVE('',#299,#273,#180,.T.);
#375=EDGE_CURVE('',#299,#293,#181,.T.);
#376=EDGE_CURVE('',#300,#301,#182,.T.);
#377=EDGE_CURVE('',#300,#259,#183,.T.);
#378=EDGE_CURVE('',#301,#271,#184,.T.);
#379=EDGE_CURVE('',#301,#302,#143,.T.);
#380=EDGE_CURVE('',#302,#270,#185,.T.);
#381=EDGE_CURVE('',#302,#303,#144,.T.);
#382=EDGE_CURVE('',#303,#269,#186,.T.);
#383=EDGE_CURVE('',#303,#304,#145,.T.);
#384=EDGE_CURVE('',#304,#268,#187,.T.);
#385=EDGE_CURVE('',#304,#305,#146,.T.);
#386=EDGE_CURVE('',#305,#267,#188,.T.);
#387=EDGE_CURVE('',#305,#306,#147,.T.);
#388=EDGE_CURVE('',#306,#266,#189,.T.);
#389=EDGE_CURVE('',#306,#307,#148,.T.);
#390=EDGE_CURVE('',#307,#265,#190,.T.);
#391=EDGE_CURVE('',#307,#308,#149,.T.);
#392=EDGE_CURVE('',#308,#264,#191,.T.);
#393=EDGE_CURVE('',#308,#309,#150,.T.);
#394=EDGE_CURVE('',#309,#263,#192,.T.);
#395=EDGE_CURVE('',#309,#310,#151,.T.);
#396=EDGE_CURVE('',#310,#262,#193,.T.);
#397=EDGE_CURVE('',#310,#311,#152,.T.);
#398=EDGE_CURVE('',#311,#261,#194,.T.);
#399=EDGE_CURVE('',#311,#312,#195,.T.);
#400=EDGE_CURVE('',#312,#260,#196,.T.);
#401=EDGE_CURVE('',#312,#300,#197,.T.);
#402=EDGE_CURVE('',#313,#314,#17,.T.);
#403=EDGE_CURVE('',#315,#314,#198,.T.);
#404=EDGE_CURVE('',#316,#315,#18,.T.);
#405=EDGE_CURVE('',#313,#316,#199,.T.);
#406=EDGE_CURVE('',#314,#317,#200,.T.);
#407=EDGE_CURVE('',#318,#317,#201,.T.);
#408=EDGE_CURVE('',#315,#318,#202,.T.);
#409=EDGE_CURVE('',#319,#318,#19,.T.);
#410=EDGE_CURVE('',#316,#319,#203,.F.);
#411=EDGE_CURVE('',#320,#319,#204,.T.);
#412=EDGE_CURVE('',#313,#320,#205,.T.);
#413=EDGE_CURVE('',#317,#320,#20,.T.);
#414=ORIENTED_EDGE('',*,*,#321,.T.);
#415=ORIENTED_EDGE('',*,*,#322,.T.);
#416=ORIENTED_EDGE('',*,*,#323,.T.);
#417=ORIENTED_EDGE('',*,*,#324,.T.);
#418=ORIENTED_EDGE('',*,*,#325,.T.);
#419=ORIENTED_EDGE('',*,*,#326,.T.);
#420=ORIENTED_EDGE('',*,*,#327,.T.);
#421=ORIENTED_EDGE('',*,*,#328,.T.);
#422=ORIENTED_EDGE('',*,*,#329,.T.);
#423=ORIENTED_EDGE('',*,*,#330,.T.);
#424=ORIENTED_EDGE('',*,*,#331,.T.);
#425=ORIENTED_EDGE('',*,*,#332,.T.);
#426=ORIENTED_EDGE('',*,*,#333,.T.);
#427=ORIENTED_EDGE('',*,*,#334,.T.);
#428=ORIENTED_EDGE('',*,*,#335,.T.);
#429=ORIENTED_EDGE('',*,*,#336,.T.);
#430=ORIENTED_EDGE('',*,*,#337,.T.);
#431=ORIENTED_EDGE('',*,*,#338,.T.);
#432=ORIENTED_EDGE('',*,*,#339,.T.);
#433=ORIENTED_EDGE('',*,*,#340,.T.);
#434=ORIENTED_EDGE('',*,*,#341,.T.);
#435=ORIENTED_EDGE('',*,*,#342,.T.);
#436=ORIENTED_EDGE('',*,*,#343,.T.);
#437=ORIENTED_EDGE('',*,*,#344,.T.);
#438=ORIENTED_EDGE('',*,*,#345,.T.);
#439=ORIENTED_EDGE('',*,*,#346,.T.);
#440=ORIENTED_EDGE('',*,*,#347,.T.);
#441=ORIENTED_EDGE('',*,*,#348,.F.);
#442=ORIENTED_EDGE('',*,*,#349,.T.);
#443=ORIENTED_EDGE('',*,*,#347,.F.);
#444=ORIENTED_EDGE('',*,*,#350,.F.);
#445=ORIENTED_EDGE('',*,*,#351,.F.);
#446=ORIENTED_EDGE('',*,*,#350,.T.);
#447=ORIENTED_EDGE('',*,*,#346,.F.);
#448=ORIENTED_EDGE('',*,*,#352,.F.);
#449=ORIENTED_EDGE('',*,*,#353,.F.);
#450=ORIENTED_EDGE('',*,*,#352,.T.);
#451=ORIENTED_EDGE('',*,*,#345,.F.);
#452=ORIENTED_EDGE('',*,*,#354,.F.);
#453=ORIENTED_EDGE('',*,*,#355,.F.);
#454=ORIENTED_EDGE('',*,*,#354,.T.);
#455=ORIENTED_EDGE('',*,*,#344,.F.);
#456=ORIENTED_EDGE('',*,*,#356,.F.);
#457=ORIENTED_EDGE('',*,*,#357,.F.);
#458=ORIENTED_EDGE('',*,*,#356,.T.);
#459=ORIENTED_EDGE('',*,*,#343,.F.);
#460=ORIENTED_EDGE('',*,*,#358,.F.);
#461=ORIENTED_EDGE('',*,*,#359,.F.);
#462=ORIENTED_EDGE('',*,*,#358,.T.);
#463=ORIENTED_EDGE('',*,*,#342,.F.);
#464=ORIENTED_EDGE('',*,*,#360,.F.);
#465=ORIENTED_EDGE('',*,*,#361,.F.);
#466=ORIENTED_EDGE('',*,*,#360,.T.);
#467=ORIENTED_EDGE('',*,*,#341,.F.);
#468=ORIENTED_EDGE('',*,*,#349,.F.);
#469=ORIENTED_EDGE('',*,*,#362,.F.);
#470=ORIENTED_EDGE('',*,*,#363,.T.);
#471=ORIENTED_EDGE('',*,*,#340,.F.);
#472=ORIENTED_EDGE('',*,*,#364,.F.);
#473=ORIENTED_EDGE('',*,*,#365,.F.);
#474=ORIENTED_EDGE('',*,*,#364,.T.);
#475=ORIENTED_EDGE('',*,*,#339,.F.);
#476=ORIENTED_EDGE('',*,*,#366,.F.);
#477=ORIENTED_EDGE('',*,*,#367,.F.);
#478=ORIENTED_EDGE('',*,*,#366,.T.);
#479=ORIENTED_EDGE('',*,*,#338,.F.);
#480=ORIENTED_EDGE('',*,*,#368,.F.);
#481=ORIENTED_EDGE('',*,*,#369,.F.);
#482=ORIENTED_EDGE('',*,*,#368,.T.);
#483=ORIENTED_EDGE('',*,*,#337,.F.);
#484=ORIENTED_EDGE('',*,*,#370,.F.);
#485=ORIENTED_EDGE('',*,*,#371,.F.);
#486=ORIENTED_EDGE('',*,*,#370,.T.);
#487=ORIENTED_EDGE('',*,*,#336,.F.);
#488=ORIENTED_EDGE('',*,*,#372,.F.);
#489=ORIENTED_EDGE('',*,*,#373,.F.);
#490=ORIENTED_EDGE('',*,*,#372,.T.);
#491=ORIENTED_EDGE('',*,*,#335,.F.);
#492=ORIENTED_EDGE('',*,*,#374,.F.);
#493=ORIENTED_EDGE('',*,*,#375,.F.);
#494=ORIENTED_EDGE('',*,*,#374,.T.);
#495=ORIENTED_EDGE('',*,*,#334,.F.);
#496=ORIENTED_EDGE('',*,*,#363,.F.);
#497=ORIENTED_EDGE('',*,*,#376,.F.);
#498=ORIENTED_EDGE('',*,*,#377,.T.);
#499=ORIENTED_EDGE('',*,*,#333,.F.);
#500=ORIENTED_EDGE('',*,*,#378,.F.);
#501=ORIENTED_EDGE('',*,*,#379,.F.);
#502=ORIENTED_EDGE('',*,*,#378,.T.);
#503=ORIENTED_EDGE('',*,*,#332,.F.);
#504=ORIENTED_EDGE('',*,*,#380,.F.);
#505=ORIENTED_EDGE('',*,*,#381,.F.);
#506=ORIENTED_EDGE('',*,*,#380,.T.);
#507=ORIENTED_EDGE('',*,*,#331,.F.);
#508=ORIENTED_EDGE('',*,*,#382,.F.);
#509=ORIENTED_EDGE('',*,*,#383,.F.);
#510=ORIENTED_EDGE('',*,*,#382,.T.);
#511=ORIENTED_EDGE('',*,*,#330,.F.);
#512=ORIENTED_EDGE('',*,*,#384,.F.);
#513=ORIENTED_EDGE('',*,*,#385,.F.);
#514=ORIENTED_EDGE('',*,*,#384,.T.);
#515=ORIENTED_EDGE('',*,*,#329,.F.);
#516=ORIENTED_EDGE('',*,*,#386,.F.);
#517=ORIENTED_EDGE('',*,*,#387,.F.);
#518=ORIENTED_EDGE('',*,*,#386,.T.);
#519=ORIENTED_EDGE('',*,*,#328,.F.);
#520=ORIENTED_EDGE('',*,*,#388,.F.);
#521=ORIENTED_EDGE('',*,*,#389,.F.);
#522=ORIENTED_EDGE('',*,*,#388,.T.);
#523=ORIENTED_EDGE('',*,*,#327,.F.);
#524=ORIENTED_EDGE('',*,*,#390,.F.);
#525=ORIENTED_EDGE('',*,*,#391,.F.);
#526=ORIENTED_EDGE('',*,*,#390,.T.);
#527=ORIENTED_EDGE('',*,*,#326,.F.);
#528=ORIENTED_EDGE('',*,*,#392,.F.);
#529=ORIENTED_EDGE('',*,*,#393,.F.);
#530=ORIENTED_EDGE('',*,*,#392,.T.);
#531=ORIENTED_EDGE('',*,*,#325,.F.);
#532=ORIENTED_EDGE('',*,*,#394,.F.);
#533=ORIENTED_EDGE('',*,*,#395,.F.);
#534=ORIENTED_EDGE('',*,*,#394,.T.);
#535=ORIENTED_EDGE('',*,*,#324,.F.);
#536=ORIENTED_EDGE('',*,*,#396,.F.);
#537=ORIENTED_EDGE('',*,*,#397,.F.);
#538=ORIENTED_EDGE('',*,*,#396,.T.);
#539=ORIENTED_EDGE('',*,*,#323,.F.);
#540=ORIENTED_EDGE('',*,*,#398,.F.);
#541=ORIENTED_EDGE('',*,*,#399,.F.);
#542=ORIENTED_EDGE('',*,*,#398,.T.);
#543=ORIENTED_EDGE('',*,*,#322,.F.);
#544=ORIENTED_EDGE('',*,*,#400,.F.);
#545=ORIENTED_EDGE('',*,*,#401,.F.);
#546=ORIENTED_EDGE('',*,*,#400,.T.);
#547=ORIENTED_EDGE('',*,*,#321,.F.);
#548=ORIENTED_EDGE('',*,*,#377,.F.);
#549=ORIENTED_EDGE('',*,*,#402,.T.);
#550=ORIENTED_EDGE('',*,*,#403,.F.);
#551=ORIENTED_EDGE('',*,*,#404,.F.);
#552=ORIENTED_EDGE('',*,*,#405,.F.);
#553=ORIENTED_EDGE('',*,*,#376,.T.);
#554=ORIENTED_EDGE('',*,*,#379,.T.);
#555=ORIENTED_EDGE('',*,*,#381,.T.);
#556=ORIENTED_EDGE('',*,*,#383,.T.);
#557=ORIENTED_EDGE('',*,*,#385,.T.);
#558=ORIENTED_EDGE('',*,*,#387,.T.);
#559=ORIENTED_EDGE('',*,*,#389,.T.);
#560=ORIENTED_EDGE('',*,*,#391,.T.);
#561=ORIENTED_EDGE('',*,*,#393,.T.);
#562=ORIENTED_EDGE('',*,*,#395,.T.);
#563=ORIENTED_EDGE('',*,*,#397,.T.);
#564=ORIENTED_EDGE('',*,*,#399,.T.);
#565=ORIENTED_EDGE('',*,*,#401,.T.);
#566=ORIENTED_EDGE('',*,*,#362,.T.);
#567=ORIENTED_EDGE('',*,*,#365,.T.);
#568=ORIENTED_EDGE('',*,*,#367,.T.);
#569=ORIENTED_EDGE('',*,*,#369,.T.);
#570=ORIENTED_EDGE('',*,*,#371,.T.);
#571=ORIENTED_EDGE('',*,*,#373,.T.);
#572=ORIENTED_EDGE('',*,*,#375,.T.);
#573=ORIENTED_EDGE('',*,*,#403,.T.);
#574=ORIENTED_EDGE('',*,*,#406,.T.);
#575=ORIENTED_EDGE('',*,*,#407,.F.);
#576=ORIENTED_EDGE('',*,*,#408,.F.);
#577=ORIENTED_EDGE('',*,*,#404,.T.);
#578=ORIENTED_EDGE('',*,*,#408,.T.);
#579=ORIENTED_EDGE('',*,*,#409,.F.);
#580=ORIENTED_EDGE('',*,*,#410,.F.);
#581=ORIENTED_EDGE('',*,*,#405,.T.);
#582=ORIENTED_EDGE('',*,*,#410,.T.);
#583=ORIENTED_EDGE('',*,*,#411,.F.);
#584=ORIENTED_EDGE('',*,*,#412,.F.);
#585=ORIENTED_EDGE('',*,*,#402,.F.);
#586=ORIENTED_EDGE('',*,*,#412,.T.);
#587=ORIENTED_EDGE('',*,*,#413,.F.);
#588=ORIENTED_EDGE('',*,*,#406,.F.);
#589=ORIENTED_EDGE('',*,*,#348,.T.);
#590=ORIENTED_EDGE('',*,*,#351,.T.);
#591=ORIENTED_EDGE('',*,*,#353,.T.);
#592=ORIENTED_EDGE('',*,*,#355,.T.);
#593=ORIENTED_EDGE('',*,*,#357,.T.);
#594=ORIENTED_EDGE('',*,*,#359,.T.);
#595=ORIENTED_EDGE('',*,*,#361,.T.);
#596=ORIENTED_EDGE('',*,*,#413,.T.);
#597=ORIENTED_EDGE('',*,*,#411,.T.);
#598=ORIENTED_EDGE('',*,*,#409,.T.);
#599=ORIENTED_EDGE('',*,*,#407,.T.);
#600=PLANE('',#666);
#601=PLANE('',#667);
#602=PLANE('',#668);
#603=PLANE('',#669);
#604=PLANE('',#670);
#605=PLANE('',#671);
#606=PLANE('',#672);
#607=PLANE('',#673);
#608=PLANE('',#674);
#609=PLANE('',#675);
#610=PLANE('',#676);
#611=PLANE('',#679);
#612=PLANE('',#680);
#613=PLANE('',#683);
#614=PLANE('',#686);
#615=PLANE('',#687);
#616=ADVANCED_FACE('',(#42,#39,#40),#600,.T.);
#617=ADVANCED_FACE('',(#43),#601,.T.);
#618=ADVANCED_FACE('',(#44),#21,.T.);
#619=ADVANCED_FACE('',(#45),#22,.T.);
#620=ADVANCED_FACE('',(#46),#23,.T.);
#621=ADVANCED_FACE('',(#47),#24,.T.);
#622=ADVANCED_FACE('',(#48),#602,.T.);
#623=ADVANCED_FACE('',(#49),#603,.T.);
#624=ADVANCED_FACE('',(#50),#604,.T.);
#625=ADVANCED_FACE('',(#51),#25,.T.);
#626=ADVANCED_FACE('',(#52),#26,.T.);
#627=ADVANCED_FACE('',(#53),#27,.T.);
#628=ADVANCED_FACE('',(#54),#28,.T.);
#629=ADVANCED_FACE('',(#55),#605,.T.);
#630=ADVANCED_FACE('',(#56),#606,.T.);
#631=ADVANCED_FACE('',(#57),#607,.T.);
#632=ADVANCED_FACE('',(#58),#29,.T.);
#633=ADVANCED_FACE('',(#59),#30,.T.);
#634=ADVANCED_FACE('',(#60),#31,.T.);
#635=ADVANCED_FACE('',(#61),#32,.T.);
#636=ADVANCED_FACE('',(#62),#33,.T.);
#637=ADVANCED_FACE('',(#63),#34,.T.);
#638=ADVANCED_FACE('',(#64),#35,.T.);
#639=ADVANCED_FACE('',(#65),#36,.T.);
#640=ADVANCED_FACE('',(#66),#37,.T.);
#641=ADVANCED_FACE('',(#67),#38,.T.);
#642=ADVANCED_FACE('',(#68),#608,.T.);
#643=ADVANCED_FACE('',(#69),#609,.T.);
#644=ADVANCED_FACE('',(#70,#41),#610,.T.);
#645=ADVANCED_FACE('',(#71),#611,.T.);
#646=ADVANCED_FACE('',(#72),#612,.T.);
#647=ADVANCED_FACE('',(#73),#15,.F.);
#648=ADVANCED_FACE('',(#74),#613,.T.);
#649=ADVANCED_FACE('',(#75),#16,.T.);
#650=ADVANCED_FACE('',(#76),#614,.T.);
#651=ADVANCED_FACE('',(#77),#615,.F.);
#652=CLOSED_SHELL('',(#616,#617,#618,#619,#620,#621,#622,#623,#624,#625,
#626,#627,#628,#629,#630,#631,#632,#633,#634,#635,#636,#637,#638,#639,#640,
#641,#642,#643,#644,#645,#646,#647,#648,#649,#650,#651));
#653=DERIVED_UNIT_ELEMENT(#655,1.);
#654=DERIVED_UNIT_ELEMENT(#1290,-3.);
#655=(
MASS_UNIT()
NAMED_UNIT(*)
SI_UNIT(.KILO.,.GRAM.)
);
#656=DERIVED_UNIT((#653,#654));
#657=MEASURE_REPRESENTATION_ITEM('density measure',
POSITIVE_RATIO_MEASURE(7850.),#656);
#658=PROPERTY_DEFINITION_REPRESENTATION(#663,#660);
#659=PROPERTY_DEFINITION_REPRESENTATION(#664,#661);
#660=REPRESENTATION('material name',(#662),#1287);
#661=REPRESENTATION('density',(#657),#1287);
#662=DESCRIPTIVE_REPRESENTATION_ITEM('Steel','Steel');
#663=PROPERTY_DEFINITION('material property','material name',#1297);
#664=PROPERTY_DEFINITION('material property','density of part',#1297);
#665=AXIS2_PLACEMENT_3D('',#787,#688,#689);
#666=AXIS2_PLACEMENT_3D('',#788,#690,#691);
#667=AXIS2_PLACEMENT_3D('',#915,#701,#702);
#668=AXIS2_PLACEMENT_3D('',#989,#710,#711);
#669=AXIS2_PLACEMENT_3D('',#993,#714,#715);
#670=AXIS2_PLACEMENT_3D('',#995,#717,#718);
#671=AXIS2_PLACEMENT_3D('',#1069,#726,#727);
#672=AXIS2_PLACEMENT_3D('',#1073,#730,#731);
#673=AXIS2_PLACEMENT_3D('',#1075,#733,#734);
#674=AXIS2_PLACEMENT_3D('',#1251,#748,#749);
#675=AXIS2_PLACEMENT_3D('',#1255,#752,#753);
#676=AXIS2_PLACEMENT_3D('',#1257,#755,#756);
#677=AXIS2_PLACEMENT_3D('',#1260,#757,#758);
#678=AXIS2_PLACEMENT_3D('',#1264,#760,#761);
#679=AXIS2_PLACEMENT_3D('',#1266,#763,#764);
#680=AXIS2_PLACEMENT_3D('',#1267,#765,#766);
#681=AXIS2_PLACEMENT_3D('',#1273,#770,#771);
#682=AXIS2_PLACEMENT_3D('',#1275,#772,#773);
#683=AXIS2_PLACEMENT_3D('',#1277,#775,#776);
#684=AXIS2_PLACEMENT_3D('',#1281,#779,#780);
#685=AXIS2_PLACEMENT_3D('',#1282,#781,#782);
#686=AXIS2_PLACEMENT_3D('',#1283,#783,#784);
#687=AXIS2_PLACEMENT_3D('',#1284,#785,#786);
#688=DIRECTION('axis',(0.,0.,1.));
#689=DIRECTION('refdir',(1.,0.,0.));
#690=DIRECTION('center_axis',(0.,0.,1.));
#691=DIRECTION('ref_axis',(-1.,0.,0.));
#692=DIRECTION('',(0.,-1.,0.));
#693=DIRECTION('',(1.,0.,0.));
#694=DIRECTION('',(-1.,0.,0.));
#695=DIRECTION('',(0.,1.,0.));
#696=DIRECTION('',(1.,0.,0.));
#697=DIRECTION('',(-1.,0.,0.));
#698=DIRECTION('',(0.,1.,0.));
#699=DIRECTION('',(1.,0.,0.));
#700=DIRECTION('',(-1.,0.,0.));
#701=DIRECTION('center_axis',(0.,1.,0.));
#702=DIRECTION('ref_axis',(-1.,0.,0.));
#703=DIRECTION('',(1.,0.,0.));
#704=DIRECTION('',(0.,0.,1.));
#705=DIRECTION('',(0.,0.,1.));
#706=DIRECTION('',(0.,0.,1.));
#707=DIRECTION('',(0.,0.,1.));
#708=DIRECTION('',(0.,0.,1.));
#709=DIRECTION('',(0.,0.,1.));
#710=DIRECTION('center_axis',(0.,-1.,0.));
#711=DIRECTION('ref_axis',(1.,0.,0.));
#712=DIRECTION('',(-1.,0.,0.));
#713=DIRECTION('',(0.,0.,1.));
#714=DIRECTION('center_axis',(1.,0.,0.));
#715=DIRECTION('ref_axis',(0.,1.,0.));
#716=DIRECTION('',(0.,-1.,0.));
#717=DIRECTION('center_axis',(0.,1.,0.));
#718=DIRECTION('ref_axis',(-1.,0.,0.));
#719=DIRECTION('',(1.,0.,0.));
#720=DIRECTION('',(0.,0.,1.));
#721=DIRECTION('',(0.,0.,1.));
#722=DIRECTION('',(0.,0.,1.));
#723=DIRECTION('',(0.,0.,1.));
#724=DIRECTION('',(0.,0.,1.));
#725=DIRECTION('',(0.,0.,1.));
#726=DIRECTION('center_axis',(0.,-1.,0.));
#727=DIRECTION('ref_axis',(1.,0.,0.));
#728=DIRECTION('',(-1.,0.,0.));
#729=DIRECTION('',(0.,0.,1.));
#730=DIRECTION('center_axis',(1.,0.,0.));
#731=DIRECTION('ref_axis',(0.,1.,0.));
#732=DIRECTION('',(0.,-1.,0.));
#733=DIRECTION('center_axis',(0.,1.,0.));
#734=DIRECTION('ref_axis',(-1.,0.,0.));
#735=DIRECTION('',(1.,0.,0.));
#736=DIRECTION('',(0.,0.,1.));
#737=DIRECTION('',(0.,0.,1.));
#738=DIRECTION('',(0.,0.,1.));
#739=DIRECTION('',(0.,0.,1.));
#740=DIRECTION('',(0.,0.,1.));
#741=DIRECTION('',(0.,0.,1.));
#742=DIRECTION('',(0.,0.,1.));
#743=DIRECTION('',(0.,0.,1.));
#744=DIRECTION('',(0.,0.,1.));
#745=DIRECTION('',(0.,0.,1.));
#746=DIRECTION('',(0.,0.,1.));
#747=DIRECTION('',(0.,0.,1.));
#748=DIRECTION('center_axis',(0.,-1.,0.));
#749=DIRECTION('ref_axis',(1.,0.,0.));
#750=DIRECTION('',(-1.,0.,0.));
#751=DIRECTION('',(0.,0.,1.));
#752=DIRECTION('center_axis',(-1.,0.,0.));
#753=DIRECTION('ref_axis',(0.,-1.,0.));
#754=DIRECTION('',(0.,1.,0.));
#755=DIRECTION('center_axis',(0.,0.,1.));
#756=DIRECTION('ref_axis',(-1.,0.,0.));
#757=DIRECTION('center_axis',(0.,0.,1.));
#758=DIRECTION('ref_axis',(0.906307787036651,0.422618261740698,0.));
#759=DIRECTION('',(-0.422618261740692,0.906307787036653,0.));
#760=DIRECTION('center_axis',(0.,0.,1.));
#761=DIRECTION('ref_axis',(-1.,0.,0.));
#762=DIRECTION('',(0.422618261740695,-0.906307787036652,0.));
#763=DIRECTION('center_axis',(0.,0.,1.));
#764=DIRECTION('ref_axis',(-1.,0.,0.));
#765=DIRECTION('center_axis',(-0.906307787036653,-0.422618261740692,0.));
#766=DIRECTION('ref_axis',(-0.422618261740692,0.906307787036653,0.));
#767=DIRECTION('',(0.,0.,-1.));
#768=DIRECTION('',(-0.422618261740692,0.906307787036653,0.));
#769=DIRECTION('',(0.,0.,-1.));
#770=DIRECTION('center_axis',(0.,0.,-1.));
#771=DIRECTION('ref_axis',(-1.,0.,0.));
#772=DIRECTION('center_axis',(0.,0.,1.));
#773=DIRECTION('ref_axis',(-1.,0.,0.));
#774=DIRECTION('',(0.,0.,1.));
#775=DIRECTION('center_axis',(0.906307787036652,0.422618261740695,0.));
#776=DIRECTION('ref_axis',(0.422618261740695,-0.906307787036652,0.));
#777=DIRECTION('',(0.422618261740695,-0.906307787036652,0.));
#778=DIRECTION('',(0.,0.,-1.));
#779=DIRECTION('center_axis',(0.,0.,-1.));
#780=DIRECTION('ref_axis',(0.906307787036651,0.422618261740698,0.));
#781=DIRECTION('center_axis',(0.,0.,-1.));
#782=DIRECTION('ref_axis',(0.906307787036651,0.422618261740698,0.));
#783=DIRECTION('center_axis',(0.,0.,1.));
#784=DIRECTION('ref_axis',(-1.,0.,0.));
#785=DIRECTION('center_axis',(0.,0.,1.));
#786=DIRECTION('ref_axis',(-1.,0.,0.));
#787=CARTESIAN_POINT('',(0.,0.,0.));
#788=CARTESIAN_POINT('Origin',(143.751277502047,101.427684399671,7.91));
#789=CARTESIAN_POINT('',(141.556103590297,103.802684369868,7.91));
#790=CARTESIAN_POINT('',(141.556103590297,99.052684429473,7.91));
#791=CARTESIAN_POINT('',(141.556103590297,99.052684429473,7.91));
#792=CARTESIAN_POINT('',(144.08986895101,99.052684429473,7.91));
#793=CARTESIAN_POINT('',(144.08986895101,99.052684429473,7.91));
#794=CARTESIAN_POINT('',(144.747610974478,99.1174865992729,7.91));
#795=CARTESIAN_POINT('Ctrl Pts',(144.08986895101,99.052684429473,7.91));
#796=CARTESIAN_POINT('Ctrl Pts',(144.171753447855,99.0573036285028,7.91));
#797=CARTESIAN_POINT('Ctrl Pts',(144.391844728022,99.0697192317851,7.91));
#798=CARTESIAN_POINT('Ctrl Pts',(144.61038079227,99.0990612297803,7.91));
#799=CARTESIAN_POINT('Ctrl Pts',(144.747610974478,99.1174865992729,7.91));
#800=CARTESIAN_POINT('',(145.304909634756,99.2730118067924,7.91));
#801=CARTESIAN_POINT('Ctrl Pts',(144.747610974478,99.1174865992729,7.91));
#802=CARTESIAN_POINT('Ctrl Pts',(144.857819814196,99.1328735118029,7.91));
#803=CARTESIAN_POINT('Ctrl Pts',(145.050889865824,99.1598291716589,7.91));
#804=CARTESIAN_POINT('Ctrl Pts',(145.228628369513,99.2390234497138,7.91));
#805=CARTESIAN_POINT('Ctrl Pts',(145.304909634756,99.2730118067924,7.91));
#806=CARTESIAN_POINT('',(145.774725663828,99.739587429351,7.91));
#807=CARTESIAN_POINT('Ctrl Pts',(145.304909634756,99.2730118067924,7.91));
#808=CARTESIAN_POINT('Ctrl Pts',(145.398945837331,99.3352777059305,7.91));
#809=CARTESIAN_POINT('Ctrl Pts',(145.586614274083,99.4595420172723,7.91));
#810=CARTESIAN_POINT('Ctrl Pts',(145.712111914498,99.6463730139096,7.91));
#811=CARTESIAN_POINT('Ctrl Pts',(145.774725663828,99.739587429351,7.91));
#812=CARTESIAN_POINT('',(145.946451413797,100.403809669799,7.91));
#813=CARTESIAN_POINT('Ctrl Pts',(145.774725663828,99.739587429351,7.91));
#814=CARTESIAN_POINT('Ctrl Pts',(145.824806231319,99.842211133219,7.91));
#815=CARTESIAN_POINT('Ctrl Pts',(145.927103002747,100.051834827672,7.91));
#816=CARTESIAN_POINT('Ctrl Pts',(145.939912800617,100.284863088815,7.91));
#817=CARTESIAN_POINT('Ctrl Pts',(145.946451413797,100.403809669799,7.91));
#818=CARTESIAN_POINT('',(145.705063331293,101.157135489768,7.91));
#819=CARTESIAN_POINT('Ctrl Pts',(145.946451413797,100.403809669799,7.91));
#820=CARTESIAN_POINT('Ctrl Pts',(145.938318582318,100.546132908223,7.91));
#821=CARTESIAN_POINT('Ctrl Pts',(145.9227490284,100.818597589199,7.91));
#822=CARTESIAN_POINT('Ctrl Pts',(145.775429699286,101.047703943242,7.91));
#823=CARTESIAN_POINT('Ctrl Pts',(145.705063331293,101.157135489768,7.91));
#824=CARTESIAN_POINT('',(144.951737809347,101.579969647712,7.91));
#825=CARTESIAN_POINT('Ctrl Pts',(145.705063331293,101.157135489768,7.91));
#826=CARTESIAN_POINT('Ctrl Pts',(145.60711235021,101.251044129788,7.91));
#827=CARTESIAN_POINT('Ctrl Pts',(145.393200065215,101.45612846427,7.91));
#828=CARTESIAN_POINT('Ctrl Pts',(145.106926161915,101.536435440692,7.91));
#829=CARTESIAN_POINT('Ctrl Pts',(144.951737809347,101.579969647712,7.91));
#830=CARTESIAN_POINT('',(145.463674950766,101.897500279731,7.91));
#831=CARTESIAN_POINT('Ctrl Pts',(144.951737809347,101.579969647712,7.91));
#832=CARTESIAN_POINT('Ctrl Pts',(145.054641462327,101.619436861775,7.91));
#833=CARTESIAN_POINT('Ctrl Pts',(145.245892135013,101.692788302856,7.91));
#834=CARTESIAN_POINT('Ctrl Pts',(145.394860138489,101.832815579008,7.91));
#835=CARTESIAN_POINT('Ctrl Pts',(145.463674950766,101.897500279731,7.91));
#836=CARTESIAN_POINT('',(145.726124036478,102.620044472999,7.91));
#837=CARTESIAN_POINT('Ctrl Pts',(145.463674950766,101.897500279731,7.91));
#838=CARTESIAN_POINT('Ctrl Pts',(145.540217955016,102.003929979161,7.91));
#839=CARTESIAN_POINT('Ctrl Pts',(145.695556993023,102.219922117001,7.91));
#840=CARTESIAN_POINT('Ctrl Pts',(145.715836975382,102.485386924976,7.91));
#841=CARTESIAN_POINT('Ctrl Pts',(145.726124036478,102.620044472999,7.91));
#842=CARTESIAN_POINT('',(145.358371424841,103.462472978419,7.91));
#843=CARTESIAN_POINT('Ctrl Pts',(145.726124036478,102.620044472999,7.91));
#844=CARTESIAN_POINT('Ctrl Pts',(145.710843858141,102.780660203199,7.91));
#845=CARTESIAN_POINT('Ctrl Pts',(145.680304809355,103.10166768835,7.91));
#846=CARTESIAN_POINT('Ctrl Pts',(145.465632625562,103.342260504346,7.91));
#847=CARTESIAN_POINT('Ctrl Pts',(145.358371424841,103.462472978419,7.91));
#848=CARTESIAN_POINT('',(144.303716111349,103.802684369868,7.91));
#849=CARTESIAN_POINT('Ctrl Pts',(145.358371424841,103.462472978419,7.91));
#850=CARTESIAN_POINT('Ctrl Pts',(145.213959111661,103.561504958527,7.91));
#851=CARTESIAN_POINT('Ctrl Pts',(144.897697574062,103.778384015517,7.91));
#852=CARTESIAN_POINT('Ctrl Pts',(144.512839248205,103.794128940705,7.91));
#853=CARTESIAN_POINT('Ctrl Pts',(144.303716111349,103.802684369868,7.91));
#854=CARTESIAN_POINT('',(141.556103590297,103.802684369868,7.91));
#855=CARTESIAN_POINT('',(143.03683339374,101.939621690101,7.91));
#856=CARTESIAN_POINT('',(143.03683339374,102.840371850318,7.91));
#857=CARTESIAN_POINT('',(143.03683339374,102.840371850318,7.91));
#858=CARTESIAN_POINT('',(143.684855389761,102.840371850318,7.91));
#859=CARTESIAN_POINT('',(143.684855389761,102.840371850318,7.91));
#860=CARTESIAN_POINT('',(144.153051066565,102.723727944678,7.91));
#861=CARTESIAN_POINT('Ctrl Pts',(143.684855389761,102.840371850318,7.91));
#862=CARTESIAN_POINT('Ctrl Pts',(143.782028862935,102.839713891862,7.91));
#863=CARTESIAN_POINT('Ctrl Pts',(143.948655957868,102.83858566517,7.91));
#864=CARTESIAN_POINT('Ctrl Pts',(144.092919172831,102.757518441365,7.91));
#865=CARTESIAN_POINT('Ctrl Pts',(144.153051066565,102.723727944678,7.91));
#866=CARTESIAN_POINT('',(144.287515568899,102.399717095679,7.91));
#867=CARTESIAN_POINT('Ctrl Pts',(144.153051066565,102.723727944678,7.91));
#868=CARTESIAN_POINT('Ctrl Pts',(144.192249357431,102.679668209548,7.91));
#869=CARTESIAN_POINT('Ctrl Pts',(144.274230243074,102.587519903403,7.91));
#870=CARTESIAN_POINT('Ctrl Pts',(144.282959903176,102.464116480769,7.91));
#871=CARTESIAN_POINT('Ctrl Pts',(144.287515568899,102.399717095679,7.91));
#872=CARTESIAN_POINT('',(144.153051066565,102.057885649985,7.91));
#873=CARTESIAN_POINT('Ctrl Pts',(144.287515568899,102.399717095679,7.91));
#874=CARTESIAN_POINT('Ctrl Pts',(144.28347349899,102.331034519111,7.91));
#875=CARTESIAN_POINT('Ctrl Pts',(144.275870151374,102.201838954307,7.91));
#876=CARTESIAN_POINT('Ctrl Pts',(144.192227738966,102.10380368832,7.91));
#877=CARTESIAN_POINT('Ctrl Pts',(144.153051066565,102.057885649985,7.91));
#878=CARTESIAN_POINT('',(143.675135064291,101.939621690101,7.91));
#879=CARTESIAN_POINT('Ctrl Pts',(144.153051066565,102.057885649985,7.91));
#880=CARTESIAN_POINT('Ctrl Pts',(144.092120557494,102.023641139524,7.91));
#881=CARTESIAN_POINT('Ctrl Pts',(143.944911766212,101.940906019304,7.91));
#882=CARTESIAN_POINT('Ctrl Pts',(143.774823111574,101.940096276192,7.91));
#883=CARTESIAN_POINT('Ctrl Pts',(143.675135064291,101.939621690101,7.91));
#884=CARTESIAN_POINT('',(143.03683339374,101.939621690101,7.91));
#885=CARTESIAN_POINT('',(143.03683339374,100.07331860382,7.91));
#886=CARTESIAN_POINT('',(143.03683339374,101.035630825347,7.91));
#887=CARTESIAN_POINT('',(143.03683339374,101.035630825347,7.91));
#888=CARTESIAN_POINT('',(143.782058644461,101.035630825347,7.91));
#889=CARTESIAN_POINT('',(143.782058644461,101.035630825347,7.91));
#890=CARTESIAN_POINT('',(144.321536708044,100.907646539992,7.91));
#891=CARTESIAN_POINT('Ctrl Pts',(143.782058644461,101.035630825347,7.91));
#892=CARTESIAN_POINT('Ctrl Pts',(143.893991932279,101.035112561586,7.91));
#893=CARTESIAN_POINT('Ctrl Pts',(144.084994594175,101.034228197694,7.91));
#894=CARTESIAN_POINT('Ctrl Pts',(144.252283936948,100.944706031947,7.91));
#895=CARTESIAN_POINT('Ctrl Pts',(144.321536708044,100.907646539992,7.91));
#896=CARTESIAN_POINT('',(144.475441861319,100.569055202788,7.91));
#897=CARTESIAN_POINT('Ctrl Pts',(144.321536708044,100.907646539992,7.91));
#898=CARTESIAN_POINT('Ctrl Pts',(144.366423129257,100.861040311799,7.91));
#899=CARTESIAN_POINT('Ctrl Pts',(144.457534845069,100.766437683573,7.91));
#900=CARTESIAN_POINT('Ctrl Pts',(144.46941466516,100.635490778281,7.91));
#901=CARTESIAN_POINT('Ctrl Pts',(144.475441861319,100.569055202788,7.91));
#902=CARTESIAN_POINT('',(144.319916653799,100.207783106155,7.91));
#903=CARTESIAN_POINT('Ctrl Pts',(144.475441861319,100.569055202788,7.91));
#904=CARTESIAN_POINT('Ctrl Pts',(144.469723829496,100.497974867682,7.91));
#905=CARTESIAN_POINT('Ctrl Pts',(144.458601187569,100.359710314438,7.91));
#906=CARTESIAN_POINT('Ctrl Pts',(144.365268163601,100.257465129725,7.91));
#907=CARTESIAN_POINT('Ctrl Pts',(144.319916653799,100.207783106155,7.91));
#908=CARTESIAN_POINT('',(143.785298752951,100.07331860382,7.91));
#909=CARTESIAN_POINT('Ctrl Pts',(144.319916653799,100.207783106155,7.91));
#910=CARTESIAN_POINT('Ctrl Pts',(144.250949838001,100.168817848564,7.91));
#911=CARTESIAN_POINT('Ctrl Pts',(144.086309675557,100.075798528111,7.91));
#912=CARTESIAN_POINT('Ctrl Pts',(143.895929670429,100.074230053468,7.91));
#913=CARTESIAN_POINT('Ctrl Pts',(143.785298752951,100.07331860382,7.91));
#914=CARTESIAN_POINT('',(143.03683339374,100.07331860382,7.91));
#915=CARTESIAN_POINT('Origin',(143.785298752951,100.07331860382,7.11));
#916=CARTESIAN_POINT('',(143.03683339374,100.07331860382,7.11));
#917=CARTESIAN_POINT('',(143.785298752951,100.07331860382,7.11));
#918=CARTESIAN_POINT('',(144.317527447686,100.07331860382,7.11));
#919=CARTESIAN_POINT('',(143.03683339374,100.07331860382,7.11));
#920=CARTESIAN_POINT('',(143.785298752951,100.07331860382,7.11));
#921=CARTESIAN_POINT('Ctrl Pts',(144.319916653799,100.207783106155,7.11));
#922=CARTESIAN_POINT('Ctrl Pts',(144.319916653799,100.207783106155,7.91));
#923=CARTESIAN_POINT('Ctrl Pts',(144.250949838001,100.168817848564,7.11));
#924=CARTESIAN_POINT('Ctrl Pts',(144.250949838001,100.168817848564,7.91));
#925=CARTESIAN_POINT('Ctrl Pts',(144.086309675557,100.075798528111,7.11));
#926=CARTESIAN_POINT('Ctrl Pts',(144.086309675557,100.075798528111,7.91));
#927=CARTESIAN_POINT('Ctrl Pts',(143.895929670429,100.074230053468,7.11));
#928=CARTESIAN_POINT('Ctrl Pts',(143.895929670429,100.074230053468,7.91));
#929=CARTESIAN_POINT('Ctrl Pts',(143.785298752951,100.07331860382,7.11));
#930=CARTESIAN_POINT('Ctrl Pts',(143.785298752951,100.07331860382,7.91));
#931=CARTESIAN_POINT('',(144.319916653799,100.207783106155,7.11));
#932=CARTESIAN_POINT('Ctrl Pts',(143.785298752951,100.07331860382,7.11));
#933=CARTESIAN_POINT('Ctrl Pts',(143.895929670429,100.074230053468,7.11));
#934=CARTESIAN_POINT('Ctrl Pts',(144.086309675557,100.075798528111,7.11));
#935=CARTESIAN_POINT('Ctrl Pts',(144.250949838001,100.168817848564,7.11));
#936=CARTESIAN_POINT('Ctrl Pts',(144.319916653799,100.207783106155,7.11));
#937=CARTESIAN_POINT('',(144.319916653799,100.207783106155,7.11));
#938=CARTESIAN_POINT('Ctrl Pts',(144.475441861319,100.569055202788,7.11));
#939=CARTESIAN_POINT('Ctrl Pts',(144.475441861319,100.569055202788,7.91));
#940=CARTESIAN_POINT('Ctrl Pts',(144.469723829496,100.497974867682,7.11));
#941=CARTESIAN_POINT('Ctrl Pts',(144.469723829496,100.497974867682,7.91));
#942=CARTESIAN_POINT('Ctrl Pts',(144.458601187569,100.359710314438,7.11));
#943=CARTESIAN_POINT('Ctrl Pts',(144.458601187569,100.359710314438,7.91));
#944=CARTESIAN_POINT('Ctrl Pts',(144.365268163601,100.257465129725,7.11));
#945=CARTESIAN_POINT('Ctrl Pts',(144.365268163601,100.257465129725,7.91));
#946=CARTESIAN_POINT('Ctrl Pts',(144.319916653799,100.207783106155,7.11));
#947=CARTESIAN_POINT('Ctrl Pts',(144.319916653799,100.207783106155,7.91));
#948=CARTESIAN_POINT('',(144.475441861319,100.569055202788,7.11));
#949=CARTESIAN_POINT('Ctrl Pts',(144.319916653799,100.207783106155,7.11));
#950=CARTESIAN_POINT('Ctrl Pts',(144.365268163601,100.257465129725,7.11));
#951=CARTESIAN_POINT('Ctrl Pts',(144.458601187569,100.359710314438,7.11));
#952=CARTESIAN_POINT('Ctrl Pts',(144.469723829496,100.497974867682,7.11));
#953=CARTESIAN_POINT('Ctrl Pts',(144.475441861319,100.569055202788,7.11));
#954=CARTESIAN_POINT('',(144.475441861319,100.569055202788,7.11));
#955=CARTESIAN_POINT('Ctrl Pts',(144.321536708044,100.907646539992,7.11));
#956=CARTESIAN_POINT('Ctrl Pts',(144.321536708044,100.907646539992,7.91));
#957=CARTESIAN_POINT('Ctrl Pts',(144.366423129257,100.861040311799,7.11));
#958=CARTESIAN_POINT('Ctrl Pts',(144.366423129257,100.861040311799,7.91));
#959=CARTESIAN_POINT('Ctrl Pts',(144.457534845069,100.766437683573,7.11));
#960=CARTESIAN_POINT('Ctrl Pts',(144.457534845069,100.766437683573,7.91));
#961=CARTESIAN_POINT('Ctrl Pts',(144.46941466516,100.635490778281,7.11));
#962=CARTESIAN_POINT('Ctrl Pts',(144.46941466516,100.635490778281,7.91));
#963=CARTESIAN_POINT('Ctrl Pts',(144.475441861319,100.569055202788,7.11));
#964=CARTESIAN_POINT('Ctrl Pts',(144.475441861319,100.569055202788,7.91));
#965=CARTESIAN_POINT('',(144.321536708044,100.907646539992,7.11));
#966=CARTESIAN_POINT('Ctrl Pts',(144.475441861319,100.569055202788,7.11));
#967=CARTESIAN_POINT('Ctrl Pts',(144.46941466516,100.635490778281,7.11));
#968=CARTESIAN_POINT('Ctrl Pts',(144.457534845069,100.766437683573,7.11));
#969=CARTESIAN_POINT('Ctrl Pts',(144.366423129257,100.861040311799,7.11));
#970=CARTESIAN_POINT('Ctrl Pts',(144.321536708044,100.907646539992,7.11));
#971=CARTESIAN_POINT('',(144.321536708044,100.907646539992,7.11));
#972=CARTESIAN_POINT('Ctrl Pts',(143.782058644461,101.035630825347,7.11));
#973=CARTESIAN_POINT('Ctrl Pts',(143.782058644461,101.035630825347,7.91));
#974=CARTESIAN_POINT('Ctrl Pts',(143.893991932279,101.035112561586,7.11));
#975=CARTESIAN_POINT('Ctrl Pts',(143.893991932279,101.035112561586,7.91));
#976=CARTESIAN_POINT('Ctrl Pts',(144.084994594175,101.034228197694,7.11));
#977=CARTESIAN_POINT('Ctrl Pts',(144.084994594175,101.034228197694,7.91));
#978=CARTESIAN_POINT('Ctrl Pts',(144.252283936948,100.944706031947,7.11));
#979=CARTESIAN_POINT('Ctrl Pts',(144.252283936948,100.944706031947,7.91));
#980=CARTESIAN_POINT('Ctrl Pts',(144.321536708044,100.907646539992,7.11));
#981=CARTESIAN_POINT('Ctrl Pts',(144.321536708044,100.907646539992,7.91));
#982=CARTESIAN_POINT('',(143.782058644461,101.035630825347,7.11));
#983=CARTESIAN_POINT('Ctrl Pts',(144.321536708044,100.907646539992,7.11));
#984=CARTESIAN_POINT('Ctrl Pts',(144.252283936948,100.944706031947,7.11));
#985=CARTESIAN_POINT('Ctrl Pts',(144.084994594175,101.034228197694,7.11));
#986=CARTESIAN_POINT('Ctrl Pts',(143.893991932279,101.035112561586,7.11));
#987=CARTESIAN_POINT('Ctrl Pts',(143.782058644461,101.035630825347,7.11));
#988=CARTESIAN_POINT('',(143.782058644461,101.035630825347,7.11));
#989=CARTESIAN_POINT('Origin',(143.03683339374,101.035630825347,7.11));
#990=CARTESIAN_POINT('',(143.03683339374,101.035630825347,7.11));
#991=CARTESIAN_POINT('',(143.943294768081,101.035630825347,7.11));
#992=CARTESIAN_POINT('',(143.03683339374,101.035630825347,7.11));
#993=CARTESIAN_POINT('Origin',(143.03683339374,100.07331860382,7.11));
#994=CARTESIAN_POINT('',(143.03683339374,99.7309298003869,7.11));
#995=CARTESIAN_POINT('Origin',(143.675135064291,101.939621690101,7.11));
#996=CARTESIAN_POINT('',(143.03683339374,101.939621690101,7.11));
#997=CARTESIAN_POINT('',(143.675135064291,101.939621690101,7.11));
#998=CARTESIAN_POINT('',(144.262445603356,101.939621690101,7.11));
#999=CARTESIAN_POINT('',(143.03683339374,101.939621690101,7.11));
#1000=CARTESIAN_POINT('',(143.675135064291,101.939621690101,7.11));
#1001=CARTESIAN_POINT('Ctrl Pts',(144.153051066565,102.057885649985,7.11));
#1002=CARTESIAN_POINT('Ctrl Pts',(144.153051066565,102.057885649985,7.91));
#1003=CARTESIAN_POINT('Ctrl Pts',(144.092120557494,102.023641139524,7.11));
#1004=CARTESIAN_POINT('Ctrl Pts',(144.092120557494,102.023641139524,7.91));
#1005=CARTESIAN_POINT('Ctrl Pts',(143.944911766212,101.940906019304,7.11));
#1006=CARTESIAN_POINT('Ctrl Pts',(143.944911766212,101.940906019304,7.91));
#1007=CARTESIAN_POINT('Ctrl Pts',(143.774823111574,101.940096276192,7.11));
#1008=CARTESIAN_POINT('Ctrl Pts',(143.774823111574,101.940096276192,7.91));
#1009=CARTESIAN_POINT('Ctrl Pts',(143.675135064291,101.939621690101,7.11));
#1010=CARTESIAN_POINT('Ctrl Pts',(143.675135064291,101.939621690101,7.91));
#1011=CARTESIAN_POINT('',(144.153051066565,102.057885649985,7.11));
#1012=CARTESIAN_POINT('Ctrl Pts',(143.675135064291,101.939621690101,7.11));
#1013=CARTESIAN_POINT('Ctrl Pts',(143.774823111574,101.940096276192,7.11));
#1014=CARTESIAN_POINT('Ctrl Pts',(143.944911766212,101.940906019304,7.11));
#1015=CARTESIAN_POINT('Ctrl Pts',(144.092120557494,102.023641139524,7.11));
#1016=CARTESIAN_POINT('Ctrl Pts',(144.153051066565,102.057885649985,7.11));
#1017=CARTESIAN_POINT('',(144.153051066565,102.057885649985,7.11));
#1018=CARTESIAN_POINT('Ctrl Pts',(144.287515568899,102.399717095679,7.11));
#1019=CARTESIAN_POINT('Ctrl Pts',(144.287515568899,102.399717095679,7.91));
#1020=CARTESIAN_POINT('Ctrl Pts',(144.28347349899,102.331034519111,7.11));
#1021=CARTESIAN_POINT('Ctrl Pts',(144.28347349899,102.331034519111,7.91));
#1022=CARTESIAN_POINT('Ctrl Pts',(144.275870151374,102.201838954307,7.11));
#1023=CARTESIAN_POINT('Ctrl Pts',(144.275870151374,102.201838954307,7.91));
#1024=CARTESIAN_POINT('Ctrl Pts',(144.192227738966,102.10380368832,7.11));
#1025=CARTESIAN_POINT('Ctrl Pts',(144.192227738966,102.10380368832,7.91));
#1026=CARTESIAN_POINT('Ctrl Pts',(144.153051066565,102.057885649985,7.11));
#1027=CARTESIAN_POINT('Ctrl Pts',(144.153051066565,102.057885649985,7.91));
#1028=CARTESIAN_POINT('',(144.287515568899,102.399717095679,7.11));
#1029=CARTESIAN_POINT('Ctrl Pts',(144.153051066565,102.057885649985,7.11));
#1030=CARTESIAN_POINT('Ctrl Pts',(144.192227738966,102.10380368832,7.11));
#1031=CARTESIAN_POINT('Ctrl Pts',(144.275870151374,102.201838954307,7.11));
#1032=CARTESIAN_POINT('Ctrl Pts',(144.28347349899,102.331034519111,7.11));
#1033=CARTESIAN_POINT('Ctrl Pts',(144.287515568899,102.399717095679,7.11));
#1034=CARTESIAN_POINT('',(144.287515568899,102.399717095679,7.11));
#1035=CARTESIAN_POINT('Ctrl Pts',(144.153051066565,102.723727944678,7.11));
#1036=CARTESIAN_POINT('Ctrl Pts',(144.153051066565,102.723727944678,7.91));
#1037=CARTESIAN_POINT('Ctrl Pts',(144.192249357431,102.679668209548,7.11));
#1038=CARTESIAN_POINT('Ctrl Pts',(144.192249357431,102.679668209548,7.91));
#1039=CARTESIAN_POINT('Ctrl Pts',(144.274230243074,102.587519903403,7.11));
#1040=CARTESIAN_POINT('Ctrl Pts',(144.274230243074,102.587519903403,7.91));
#1041=CARTESIAN_POINT('Ctrl Pts',(144.282959903176,102.464116480769,7.11));
#1042=CARTESIAN_POINT('Ctrl Pts',(144.282959903176,102.464116480769,7.91));
#1043=CARTESIAN_POINT('Ctrl Pts',(144.287515568899,102.399717095679,7.11));
#1044=CARTESIAN_POINT('Ctrl Pts',(144.287515568899,102.399717095679,7.91));
#1045=CARTESIAN_POINT('',(144.153051066565,102.723727944678,7.11));
#1046=CARTESIAN_POINT('Ctrl Pts',(144.287515568899,102.399717095679,7.11));
#1047=CARTESIAN_POINT('Ctrl Pts',(144.282959903176,102.464116480769,7.11));
#1048=CARTESIAN_POINT('Ctrl Pts',(144.274230243074,102.587519903403,7.11));
#1049=CARTESIAN_POINT('Ctrl Pts',(144.192249357431,102.679668209548,7.11));
#1050=CARTESIAN_POINT('Ctrl Pts',(144.153051066565,102.723727944678,7.11));
#1051=CARTESIAN_POINT('',(144.153051066565,102.723727944678,7.11));
#1052=CARTESIAN_POINT('Ctrl Pts',(143.684855389761,102.840371850318,7.11));
#1053=CARTESIAN_POINT('Ctrl Pts',(143.684855389761,102.840371850318,7.91));
#1054=CARTESIAN_POINT('Ctrl Pts',(143.782028862935,102.839713891862,7.11));
#1055=CARTESIAN_POINT('Ctrl Pts',(143.782028862935,102.839713891862,7.91));
#1056=CARTESIAN_POINT('Ctrl Pts',(143.948655957868,102.83858566517,7.11));
#1057=CARTESIAN_POINT('Ctrl Pts',(143.948655957868,102.83858566517,7.91));
#1058=CARTESIAN_POINT('Ctrl Pts',(144.092919172831,102.757518441365,7.11));
#1059=CARTESIAN_POINT('Ctrl Pts',(144.092919172831,102.757518441365,7.91));
#1060=CARTESIAN_POINT('Ctrl Pts',(144.153051066565,102.723727944678,7.11));
#1061=CARTESIAN_POINT('Ctrl Pts',(144.153051066565,102.723727944678,7.91));
#1062=CARTESIAN_POINT('',(143.684855389761,102.840371850318,7.11));
#1063=CARTESIAN_POINT('Ctrl Pts',(144.153051066565,102.723727944678,7.11));
#1064=CARTESIAN_POINT('Ctrl Pts',(144.092919172831,102.757518441365,7.11));
#1065=CARTESIAN_POINT('Ctrl Pts',(143.948655957868,102.83858566517,7.11));
#1066=CARTESIAN_POINT('Ctrl Pts',(143.782028862935,102.839713891862,7.11));
#1067=CARTESIAN_POINT('Ctrl Pts',(143.684855389761,102.840371850318,7.11));
#1068=CARTESIAN_POINT('',(143.684855389761,102.840371850318,7.11));
#1069=CARTESIAN_POINT('Origin',(143.03683339374,102.840371850318,7.11));
#1070=CARTESIAN_POINT('',(143.03683339374,102.840371850318,7.11));
#1071=CARTESIAN_POINT('',(143.943294768081,102.840371850318,7.11));
#1072=CARTESIAN_POINT('',(143.03683339374,102.840371850318,7.11));
#1073=CARTESIAN_POINT('Origin',(143.03683339374,101.939621690101,7.11));
#1074=CARTESIAN_POINT('',(143.03683339374,100.664081343527,7.11));
#1075=CARTESIAN_POINT('Origin',(144.303716111349,103.802684369868,7.11));
#1076=CARTESIAN_POINT('',(141.556103590297,103.802684369868,7.11));
#1077=CARTESIAN_POINT('',(144.303716111349,103.802684369868,7.11));
#1078=CARTESIAN_POINT('',(144.576736126885,103.802684369868,7.11));
#1079=CARTESIAN_POINT('',(141.556103590297,103.802684369868,7.11));
#1080=CARTESIAN_POINT('',(144.303716111349,103.802684369868,7.11));
#1081=CARTESIAN_POINT('Ctrl Pts',(145.358371424841,103.462472978419,7.11));
#1082=CARTESIAN_POINT('Ctrl Pts',(145.358371424841,103.462472978419,7.91));
#1083=CARTESIAN_POINT('Ctrl Pts',(145.213959111661,103.561504958527,7.11));
#1084=CARTESIAN_POINT('Ctrl Pts',(145.213959111661,103.561504958527,7.91));
#1085=CARTESIAN_POINT('Ctrl Pts',(144.897697574062,103.778384015517,7.11));
#1086=CARTESIAN_POINT('Ctrl Pts',(144.897697574062,103.778384015517,7.91));
#1087=CARTESIAN_POINT('Ctrl Pts',(144.512839248205,103.794128940705,7.11));
#1088=CARTESIAN_POINT('Ctrl Pts',(144.512839248205,103.794128940705,7.91));
#1089=CARTESIAN_POINT('Ctrl Pts',(144.303716111349,103.802684369868,7.11));
#1090=CARTESIAN_POINT('Ctrl Pts',(144.303716111349,103.802684369868,7.91));
#1091=CARTESIAN_POINT('',(145.358371424841,103.462472978419,7.11));
#1092=CARTESIAN_POINT('Ctrl Pts',(144.303716111349,103.802684369868,7.11));
#1093=CARTESIAN_POINT('Ctrl Pts',(144.512839248205,103.794128940705,7.11));
#1094=CARTESIAN_POINT('Ctrl Pts',(144.897697574062,103.778384015517,7.11));
#1095=CARTESIAN_POINT('Ctrl Pts',(145.213959111661,103.561504958527,7.11));
#1096=CARTESIAN_POINT('Ctrl Pts',(145.358371424841,103.462472978419,7.11));
#1097=CARTESIAN_POINT('',(145.358371424841,103.462472978419,7.11));
#1098=CARTESIAN_POINT('Ctrl Pts',(145.726124036478,102.620044472999,7.11));
#1099=CARTESIAN_POINT('Ctrl Pts',(145.726124036478,102.620044472999,7.91));
#1100=CARTESIAN_POINT('Ctrl Pts',(145.710843858141,102.780660203199,7.11));
#1101=CARTESIAN_POINT('Ctrl Pts',(145.710843858141,102.780660203199,7.91));
#1102=CARTESIAN_POINT('Ctrl Pts',(145.680304809355,103.10166768835,7.11));
#1103=CARTESIAN_POINT('Ctrl Pts',(145.680304809355,103.10166768835,7.91));
#1104=CARTESIAN_POINT('Ctrl Pts',(145.465632625562,103.342260504346,7.11));
#1105=CARTESIAN_POINT('Ctrl Pts',(145.465632625562,103.342260504346,7.91));
#1106=CARTESIAN_POINT('Ctrl Pts',(145.358371424841,103.462472978419,7.11));
#1107=CARTESIAN_POINT('Ctrl Pts',(145.358371424841,103.462472978419,7.91));
#1108=CARTESIAN_POINT('',(145.726124036478,102.620044472999,7.11));
#1109=CARTESIAN_POINT('Ctrl Pts',(145.358371424841,103.462472978419,7.11));
#1110=CARTESIAN_POINT('Ctrl Pts',(145.465632625562,103.342260504346,7.11));
#1111=CARTESIAN_POINT('Ctrl Pts',(145.680304809355,103.10166768835,7.11));
#1112=CARTESIAN_POINT('Ctrl Pts',(145.710843858141,102.780660203199,7.11));
#1113=CARTESIAN_POINT('Ctrl Pts',(145.726124036478,102.620044472999,7.11));
#1114=CARTESIAN_POINT('',(145.726124036478,102.620044472999,7.11));
#1115=CARTESIAN_POINT('Ctrl Pts',(145.463674950766,101.897500279731,7.11));
#1116=CARTESIAN_POINT('Ctrl Pts',(145.463674950766,101.897500279731,7.91));
#1117=CARTESIAN_POINT('Ctrl Pts',(145.540217955016,102.003929979161,7.11));
#1118=CARTESIAN_POINT('Ctrl Pts',(145.540217955016,102.003929979161,7.91));
#1119=CARTESIAN_POINT('Ctrl Pts',(145.695556993023,102.219922117001,7.11));
#1120=CARTESIAN_POINT('Ctrl Pts',(145.695556993023,102.219922117001,7.91));
#1121=CARTESIAN_POINT('Ctrl Pts',(145.715836975382,102.485386924976,7.11));
#1122=CARTESIAN_POINT('Ctrl Pts',(145.715836975382,102.485386924976,7.91));
#1123=CARTESIAN_POINT('Ctrl Pts',(145.726124036478,102.620044472999,7.11));
#1124=CARTESIAN_POINT('Ctrl Pts',(145.726124036478,102.620044472999,7.91));
#1125=CARTESIAN_POINT('',(145.463674950766,101.897500279731,7.11));
#1126=CARTESIAN_POINT('Ctrl Pts',(145.726124036478,102.620044472999,7.11));
#1127=CARTESIAN_POINT('Ctrl Pts',(145.715836975382,102.485386924976,7.11));
#1128=CARTESIAN_POINT('Ctrl Pts',(145.695556993023,102.219922117001,7.11));
#1129=CARTESIAN_POINT('Ctrl Pts',(145.540217955016,102.003929979161,7.11));
#1130=CARTESIAN_POINT('Ctrl Pts',(145.463674950766,101.897500279731,7.11));
#1131=CARTESIAN_POINT('',(145.463674950766,101.897500279731,7.11));
#1132=CARTESIAN_POINT('Ctrl Pts',(144.951737809347,101.579969647712,7.11));
#1133=CARTESIAN_POINT('Ctrl Pts',(144.951737809347,101.579969647712,7.91));
#1134=CARTESIAN_POINT('Ctrl Pts',(145.054641462327,101.619436861775,7.11));
#1135=CARTESIAN_POINT('Ctrl Pts',(145.054641462327,101.619436861775,7.91));
#1136=CARTESIAN_POINT('Ctrl Pts',(145.245892135013,101.692788302856,7.11));
#1137=CARTESIAN_POINT('Ctrl Pts',(145.245892135013,101.692788302856,7.91));
#1138=CARTESIAN_POINT('Ctrl Pts',(145.394860138489,101.832815579008,7.11));
#1139=CARTESIAN_POINT('Ctrl Pts',(145.394860138489,101.832815579008,7.91));
#1140=CARTESIAN_POINT('Ctrl Pts',(145.463674950766,101.897500279731,7.11));
#1141=CARTESIAN_POINT('Ctrl Pts',(145.463674950766,101.897500279731,7.91));
#1142=CARTESIAN_POINT('',(144.951737809347,101.579969647712,7.11));
#1143=CARTESIAN_POINT('Ctrl Pts',(145.463674950766,101.897500279731,7.11));
#1144=CARTESIAN_POINT('Ctrl Pts',(145.394860138489,101.832815579008,7.11));
#1145=CARTESIAN_POINT('Ctrl Pts',(145.245892135013,101.692788302856,7.11));
#1146=CARTESIAN_POINT('Ctrl Pts',(145.054641462327,101.619436861775,7.11));
#1147=CARTESIAN_POINT('Ctrl Pts',(144.951737809347,101.579969647712,7.11));
#1148=CARTESIAN_POINT('',(144.951737809347,101.579969647712,7.11));
#1149=CARTESIAN_POINT('Ctrl Pts',(145.705063331293,101.157135489768,7.11));
#1150=CARTESIAN_POINT('Ctrl Pts',(145.705063331293,101.157135489768,7.91));
#1151=CARTESIAN_POINT('Ctrl Pts',(145.60711235021,101.251044129788,7.11));
#1152=CARTESIAN_POINT('Ctrl Pts',(145.60711235021,101.251044129788,7.91));
#1153=CARTESIAN_POINT('Ctrl Pts',(145.393200065215,101.45612846427,7.11));
#1154=CARTESIAN_POINT('Ctrl Pts',(145.393200065215,101.45612846427,7.91));
#1155=CARTESIAN_POINT('Ctrl Pts',(145.106926161915,101.536435440692,7.11));
#1156=CARTESIAN_POINT('Ctrl Pts',(145.106926161915,101.536435440692,7.91));
#1157=CARTESIAN_POINT('Ctrl Pts',(144.951737809347,101.579969647712,7.11));
#1158=CARTESIAN_POINT('Ctrl Pts',(144.951737809347,101.579969647712,7.91));
#1159=CARTESIAN_POINT('',(145.705063331293,101.157135489768,7.11));
#1160=CARTESIAN_POINT('Ctrl Pts',(144.951737809347,101.579969647712,7.11));
#1161=CARTESIAN_POINT('Ctrl Pts',(145.106926161915,101.536435440692,7.11));
#1162=CARTESIAN_POINT('Ctrl Pts',(145.393200065215,101.45612846427,7.11));
#1163=CARTESIAN_POINT('Ctrl Pts',(145.60711235021,101.251044129788,7.11));
#1164=CARTESIAN_POINT('Ctrl Pts',(145.705063331293,101.157135489768,7.11));
#1165=CARTESIAN_POINT('',(145.705063331293,101.157135489768,7.11));
#1166=CARTESIAN_POINT('Ctrl Pts',(145.946451413797,100.403809669799,7.11));
#1167=CARTESIAN_POINT('Ctrl Pts',(145.946451413797,100.403809669799,7.91));
#1168=CARTESIAN_POINT('Ctrl Pts',(145.938318582318,100.546132908223,7.11));
#1169=CARTESIAN_POINT('Ctrl Pts',(145.938318582318,100.546132908223,7.91));
#1170=CARTESIAN_POINT('Ctrl Pts',(145.9227490284,100.818597589199,7.11));
#1171=CARTESIAN_POINT('Ctrl Pts',(145.9227490284,100.818597589199,7.91));
#1172=CARTESIAN_POINT('Ctrl Pts',(145.775429699286,101.047703943242,7.11));
#1173=CARTESIAN_POINT('Ctrl Pts',(145.775429699286,101.047703943242,7.91));
#1174=CARTESIAN_POINT('Ctrl Pts',(145.705063331293,101.157135489768,7.11));
#1175=CARTESIAN_POINT('Ctrl Pts',(145.705063331293,101.157135489768,7.91));
#1176=CARTESIAN_POINT('',(145.946451413797,100.403809669799,7.11));
#1177=CARTESIAN_POINT('Ctrl Pts',(145.705063331293,101.157135489768,7.11));
#1178=CARTESIAN_POINT('Ctrl Pts',(145.775429699286,101.047703943242,7.11));
#1179=CARTESIAN_POINT('Ctrl Pts',(145.9227490284,100.818597589199,7.11));
#1180=CARTESIAN_POINT('Ctrl Pts',(145.938318582318,100.546132908223,7.11));
#1181=CARTESIAN_POINT('Ctrl Pts',(145.946451413797,100.403809669799,7.11));
#1182=CARTESIAN_POINT('',(145.946451413797,100.403809669799,7.11));
#1183=CARTESIAN_POINT('Ctrl Pts',(145.774725663828,99.739587429351,7.11));
#1184=CARTESIAN_POINT('Ctrl Pts',(145.774725663828,99.739587429351,7.91));
#1185=CARTESIAN_POINT('Ctrl Pts',(145.824806231319,99.842211133219,7.11));
#1186=CARTESIAN_POINT('Ctrl Pts',(145.824806231319,99.842211133219,7.91));
#1187=CARTESIAN_POINT('Ctrl Pts',(145.927103002747,100.051834827672,7.11));
#1188=CARTESIAN_POINT('Ctrl Pts',(145.927103002747,100.051834827672,7.91));
#1189=CARTESIAN_POINT('Ctrl Pts',(145.939912800617,100.284863088815,7.11));
#1190=CARTESIAN_POINT('Ctrl Pts',(145.939912800617,100.284863088815,7.91));
#1191=CARTESIAN_POINT('Ctrl Pts',(145.946451413797,100.403809669799,7.11));
#1192=CARTESIAN_POINT('Ctrl Pts',(145.946451413797,100.403809669799,7.91));
#1193=CARTESIAN_POINT('',(145.774725663828,99.739587429351,7.11));
#1194=CARTESIAN_POINT('Ctrl Pts',(145.946451413797,100.403809669799,7.11));
#1195=CARTESIAN_POINT('Ctrl Pts',(145.939912800617,100.284863088815,7.11));
#1196=CARTESIAN_POINT('Ctrl Pts',(145.927103002747,100.051834827672,7.11));
#1197=CARTESIAN_POINT('Ctrl Pts',(145.824806231319,99.842211133219,7.11));
#1198=CARTESIAN_POINT('Ctrl Pts',(145.774725663828,99.739587429351,7.11));
#1199=CARTESIAN_POINT('',(145.774725663828,99.739587429351,7.11));
#1200=CARTESIAN_POINT('Ctrl Pts',(145.304909634756,99.2730118067924,7.11));
#1201=CARTESIAN_POINT('Ctrl Pts',(145.304909634756,99.2730118067924,7.91));
#1202=CARTESIAN_POINT('Ctrl Pts',(145.398945837331,99.3352777059305,7.11));
#1203=CARTESIAN_POINT('Ctrl Pts',(145.398945837331,99.3352777059305,7.91));
#1204=CARTESIAN_POINT('Ctrl Pts',(145.586614274083,99.4595420172723,7.11));
#1205=CARTESIAN_POINT('Ctrl Pts',(145.586614274083,99.4595420172723,7.91));
#1206=CARTESIAN_POINT('Ctrl Pts',(145.712111914498,99.6463730139096,7.11));
#1207=CARTESIAN_POINT('Ctrl Pts',(145.712111914498,99.6463730139096,7.91));
#1208=CARTESIAN_POINT('Ctrl Pts',(145.774725663828,99.739587429351,7.11));
#1209=CARTESIAN_POINT('Ctrl Pts',(145.774725663828,99.739587429351,7.91));
#1210=CARTESIAN_POINT('',(145.304909634756,99.2730118067924,7.11));
#1211=CARTESIAN_POINT('Ctrl Pts',(145.774725663828,99.739587429351,7.11));
#1212=CARTESIAN_POINT('Ctrl Pts',(145.712111914498,99.6463730139096,7.11));
#1213=CARTESIAN_POINT('Ctrl Pts',(145.586614274083,99.4595420172723,7.11));
#1214=CARTESIAN_POINT('Ctrl Pts',(145.398945837331,99.3352777059305,7.11));
#1215=CARTESIAN_POINT('Ctrl Pts',(145.304909634756,99.2730118067924,7.11));
#1216=CARTESIAN_POINT('',(145.304909634756,99.2730118067924,7.11));
#1217=CARTESIAN_POINT('Ctrl Pts',(144.747610974478,99.1174865992729,7.11));
#1218=CARTESIAN_POINT('Ctrl Pts',(144.747610974478,99.1174865992729,7.91));
#1219=CARTESIAN_POINT('Ctrl Pts',(144.857819814196,99.1328735118029,7.11));
#1220=CARTESIAN_POINT('Ctrl Pts',(144.857819814196,99.1328735118029,7.91));
#1221=CARTESIAN_POINT('Ctrl Pts',(145.050889865824,99.1598291716589,7.11));
#1222=CARTESIAN_POINT('Ctrl Pts',(145.050889865824,99.1598291716589,7.91));
#1223=CARTESIAN_POINT('Ctrl Pts',(145.228628369513,99.2390234497138,7.11));
#1224=CARTESIAN_POINT('Ctrl Pts',(145.228628369513,99.2390234497138,7.91));
#1225=CARTESIAN_POINT('Ctrl Pts',(145.304909634756,99.2730118067924,7.11));
#1226=CARTESIAN_POINT('Ctrl Pts',(145.304909634756,99.2730118067924,7.91));
#1227=CARTESIAN_POINT('',(144.747610974478,99.1174865992729,7.11));
#1228=CARTESIAN_POINT('Ctrl Pts',(145.304909634756,99.2730118067924,7.11));
#1229=CARTESIAN_POINT('Ctrl Pts',(145.228628369513,99.2390234497138,7.11));
#1230=CARTESIAN_POINT('Ctrl Pts',(145.050889865824,99.1598291716589,7.11));
#1231=CARTESIAN_POINT('Ctrl Pts',(144.857819814196,99.1328735118029,7.11));
#1232=CARTESIAN_POINT('Ctrl Pts',(144.747610974478,99.1174865992729,7.11));
#1233=CARTESIAN_POINT('',(144.747610974478,99.1174865992729,7.11));
#1234=CARTESIAN_POINT('Ctrl Pts',(144.08986895101,99.052684429473,7.11));
#1235=CARTESIAN_POINT('Ctrl Pts',(144.08986895101,99.052684429473,7.91));
#1236=CARTESIAN_POINT('Ctrl Pts',(144.171753447855,99.0573036285028,7.11));
#1237=CARTESIAN_POINT('Ctrl Pts',(144.171753447855,99.0573036285028,7.91));
#1238=CARTESIAN_POINT('Ctrl Pts',(144.391844728022,99.0697192317851,7.11));
#1239=CARTESIAN_POINT('Ctrl Pts',(144.391844728022,99.0697192317851,7.91));
#1240=CARTESIAN_POINT('Ctrl Pts',(144.61038079227,99.0990612297803,7.11));
#1241=CARTESIAN_POINT('Ctrl Pts',(144.61038079227,99.0990612297803,7.91));
#1242=CARTESIAN_POINT('Ctrl Pts',(144.747610974478,99.1174865992729,7.11));
#1243=CARTESIAN_POINT('Ctrl Pts',(144.747610974478,99.1174865992729,7.91));
#1244=CARTESIAN_POINT('',(144.08986895101,99.052684429473,7.11));
#1245=CARTESIAN_POINT('Ctrl Pts',(144.747610974478,99.1174865992729,7.11));
#1246=CARTESIAN_POINT('Ctrl Pts',(144.61038079227,99.0990612297803,7.11));
#1247=CARTESIAN_POINT('Ctrl Pts',(144.391844728022,99.0697192317851,7.11));
#1248=CARTESIAN_POINT('Ctrl Pts',(144.171753447855,99.0573036285028,7.11));
#1249=CARTESIAN_POINT('Ctrl Pts',(144.08986895101,99.052684429473,7.11));
#1250=CARTESIAN_POINT('',(144.08986895101,99.052684429473,7.11));
#1251=CARTESIAN_POINT('Origin',(141.556103590297,99.052684429473,7.11));
#1252=CARTESIAN_POINT('',(141.556103590297,99.052684429473,7.11));
#1253=CARTESIAN_POINT('',(143.202929866359,99.052684429473,7.11));
#1254=CARTESIAN_POINT('',(141.556103590297,99.052684429473,7.11));
#1255=CARTESIAN_POINT('Origin',(141.556103590297,103.802684369868,7.11));
#1256=CARTESIAN_POINT('',(141.556103590297,101.595612683411,7.11));
#1257=CARTESIAN_POINT('Origin',(144.849756142422,99.3885409969538,7.11));
#1258=CARTESIAN_POINT('',(146.833598683992,102.757080734856,7.11));
#1259=CARTESIAN_POINT('',(140.489444174735,99.7987529026714,7.11));
#1260=CARTESIAN_POINT('Origin',(143.661521429364,101.277916818764,7.11));
#1261=CARTESIAN_POINT('',(143.058838883252,94.2886681687371,7.11));
#1262=CARTESIAN_POINT('',(143.193836346223,93.9991651751437,7.11));
#1263=CARTESIAN_POINT('',(149.402993392508,97.2469960009219,7.11));
#1264=CARTESIAN_POINT('Origin',(148.158931033232,91.6331907989015,7.11));
#1265=CARTESIAN_POINT('',(146.833598683992,102.757080734856,7.11));
#1266=CARTESIAN_POINT('Origin',(144.849756142422,99.3885409969538,7.11));
#1267=CARTESIAN_POINT('Origin',(143.193836346223,93.9991651751438,7.11));
#1268=CARTESIAN_POINT('',(140.489444174735,99.7987529026714,5.51));
#1269=CARTESIAN_POINT('',(140.489444174735,99.7987529026714,7.11));
#1270=CARTESIAN_POINT('',(143.058838883252,94.2886681687371,5.51));
#1271=CARTESIAN_POINT('',(143.193836346223,93.9991651751437,5.51));
#1272=CARTESIAN_POINT('',(143.058838883252,94.288668168737,7.11));
#1273=CARTESIAN_POINT('Origin',(148.158931033232,91.6331907989015,7.11));
#1274=CARTESIAN_POINT('',(149.402993392508,97.2469960009219,5.51));
#1275=CARTESIAN_POINT('Origin',(148.158931033232,91.6331907989015,5.51));
#1276=CARTESIAN_POINT('',(149.402993392508,97.2469960009219,7.11));
#1277=CARTESIAN_POINT('Origin',(146.833598683992,102.757080734856,7.11));
#1278=CARTESIAN_POINT('',(146.833598683992,102.757080734856,5.51));
#1279=CARTESIAN_POINT('',(146.833598683992,102.757080734856,5.51));
#1280=CARTESIAN_POINT('',(146.833598683992,102.757080734856,7.11));
#1281=CARTESIAN_POINT('Origin',(143.661521429364,101.277916818764,7.11));
#1282=CARTESIAN_POINT('Origin',(143.661521429364,101.277916818764,5.51));
#1283=CARTESIAN_POINT('Origin',(144.849756142422,99.3885409969538,7.11));
#1284=CARTESIAN_POINT('Origin',(144.849756142422,99.3885409969538,5.51));
#1285=UNCERTAINTY_MEASURE_WITH_UNIT(LENGTH_MEASURE(0.01),#1289,
'DISTANCE_ACCURACY_VALUE',
'Maximum model space distance between geometric entities at asserted c
onnectivities');
#1286=UNCERTAINTY_MEASURE_WITH_UNIT(LENGTH_MEASURE(0.01),#1289,
'DISTANCE_ACCURACY_VALUE',
'Maximum model space distance between geometric entities at asserted c
onnectivities');
#1287=(
GEOMETRIC_REPRESENTATION_CONTEXT(3)
GLOBAL_UNCERTAINTY_ASSIGNED_CONTEXT((#1285))
GLOBAL_UNIT_ASSIGNED_CONTEXT((#1289,#1291,#1292))
REPRESENTATION_CONTEXT('','3D')
);
#1288=(
GEOMETRIC_REPRESENTATION_CONTEXT(3)
GLOBAL_UNCERTAINTY_ASSIGNED_CONTEXT((#1286))
GLOBAL_UNIT_ASSIGNED_CONTEXT((#1289,#1291,#1292))
REPRESENTATION_CONTEXT('','3D')
);
#1289=(
LENGTH_UNIT()
NAMED_UNIT(*)
SI_UNIT(.MILLI.,.METRE.)
);
#1290=(
LENGTH_UNIT()
NAMED_UNIT(*)
SI_UNIT($,.METRE.)
);
#1291=(
NAMED_UNIT(*)
PLANE_ANGLE_UNIT()
SI_UNIT($,.RADIAN.)
);
#1292=(
NAMED_UNIT(*)
SI_UNIT($,.STERADIAN.)
SOLID_ANGLE_UNIT()
);
#1293=SHAPE_DEFINITION_REPRESENTATION(#1294,#1295);
#1294=PRODUCT_DEFINITION_SHAPE('',$,#1297);
#1295=SHAPE_REPRESENTATION('',(#665),#1287);
#1296=PRODUCT_DEFINITION_CONTEXT('part definition',#1301,'design');
#1297=PRODUCT_DEFINITION('b_label','b_label',#1298,#1296);
#1298=PRODUCT_DEFINITION_FORMATION('',$,#1303);
#1299=PRODUCT_RELATED_PRODUCT_CATEGORY('b_label','b_label',(#1303));
#1300=APPLICATION_PROTOCOL_DEFINITION('international standard',
'automotive_design',2009,#1301);
#1301=APPLICATION_CONTEXT(
'Core Data for Automotive Mechanical Design Process');
#1302=PRODUCT_CONTEXT('part definition',#1301,'mechanical');
#1303=PRODUCT('b_label','b_label',$,(#1302));
#1304=PRESENTATION_STYLE_ASSIGNMENT((#1305));
#1305=SURFACE_STYLE_USAGE(.BOTH.,#1306);
#1306=SURFACE_SIDE_STYLE('',(#1307));
#1307=SURFACE_STYLE_FILL_AREA(#1308);
#1308=FILL_AREA_STYLE('Steel - Satin',(#1309));
#1309=FILL_AREA_STYLE_COLOUR('Steel - Satin',#1310);
#1310=COLOUR_RGB('Steel - Satin',0.627450980392157,0.627450980392157,0.627450980392157);
ENDSEC;
END-ISO-10303-21;
