ISO-10303-21;
HEADER;
/* Generated by software containing ST-Developer
 * from STEP Tools, Inc. (www.steptools.com) 
 */

FILE_DESCRIPTION(
/* description */ (''),
/* implementation_level */ '2;1');

FILE_NAME(
/* name */ 'button.step',
/* time_stamp */ '2026-07-08T10:56:31+03:00',
/* author */ (''),
/* organization */ (''),
/* preprocessor_version */ 'ST-DEVELOPER v20.1',
/* originating_system */ 'Autodesk Translation Framework v15.8.0.0',
/* authorisation */ '');

FILE_SCHEMA (('AUTOMOTIVE_DESIGN { 1 0 10303 214 3 1 1 }'));
ENDSEC;

DATA;
#10=MECHANICAL_DESIGN_GEOMETRIC_PRESENTATION_REPRESENTATION('',(#13),#177);
#11=SHAPE_REPRESENTATION_RELATIONSHIP('SRR','None',#184,#12);
#12=ADVANCED_BREP_SHAPE_REPRESENTATION('',(#14),#176);
#13=STYLED_ITEM('',(#194),#14);
#14=MANIFOLD_SOLID_BREP('BTN_PROD',#90);
#15=FACE_BOUND('',#36,.T.);
#16=PLANE('',#116);
#17=PLANE('',#117);
#18=LINE('',#165,#20);
#19=LINE('',#170,#21);
#20=VECTOR('',#138,5.);
#21=VECTOR('',#143,6.25);
#22=CYLINDRICAL_SURFACE('',#111,5.375);
#23=CYLINDRICAL_SURFACE('',#113,6.25);
#24=SPHERICAL_SURFACE('',#109,14.9453125000001);
#25=FACE_OUTER_BOUND('',#31,.T.);
#26=FACE_OUTER_BOUND('',#32,.T.);
#27=FACE_OUTER_BOUND('',#33,.T.);
#28=FACE_OUTER_BOUND('',#34,.T.);
#29=FACE_OUTER_BOUND('',#35,.T.);
#30=FACE_OUTER_BOUND('',#37,.T.);
#31=EDGE_LOOP('',(#63,#64,#65,#66,#67));
#32=EDGE_LOOP('',(#68,#69,#70));
#33=EDGE_LOOP('',(#71,#72,#73,#74,#75));
#34=EDGE_LOOP('',(#76,#77,#78,#79));
#35=EDGE_LOOP('',(#80));
#36=EDGE_LOOP('',(#81));
#37=EDGE_LOOP('',(#82));
#38=CIRCLE('',#105,4.68872549019608);
#39=CIRCLE('',#106,1.);
#40=CIRCLE('',#107,5.375);
#41=CIRCLE('',#108,5.375);
#42=CIRCLE('',#110,14.9453125000001);
#43=CIRCLE('',#112,5.375);
#44=CIRCLE('',#114,6.25);
#45=CIRCLE('',#115,6.25);
#46=VERTEX_POINT('',#152);
#47=VERTEX_POINT('',#154);
#48=VERTEX_POINT('',#156);
#49=VERTEX_POINT('',#160);
#50=VERTEX_POINT('',#163);
#51=VERTEX_POINT('',#167);
#52=VERTEX_POINT('',#169);
#53=EDGE_CURVE('',#46,#46,#38,.T.);
#54=EDGE_CURVE('',#46,#47,#39,.T.);
#55=EDGE_CURVE('',#47,#48,#40,.T.);
#56=EDGE_CURVE('',#48,#47,#41,.T.);
#57=EDGE_CURVE('',#49,#46,#42,.T.);
#58=EDGE_CURVE('',#50,#50,#43,.F.);
#59=EDGE_CURVE('',#50,#48,#18,.T.);
#60=EDGE_CURVE('',#51,#51,#44,.T.);
#61=EDGE_CURVE('',#51,#52,#19,.T.);
#62=EDGE_CURVE('',#52,#52,#45,.T.);
#63=ORIENTED_EDGE('',*,*,#53,.T.);
#64=ORIENTED_EDGE('',*,*,#54,.T.);
#65=ORIENTED_EDGE('',*,*,#55,.T.);
#66=ORIENTED_EDGE('',*,*,#56,.T.);
#67=ORIENTED_EDGE('',*,*,#54,.F.);
#68=ORIENTED_EDGE('',*,*,#53,.F.);
#69=ORIENTED_EDGE('',*,*,#57,.F.);
#70=ORIENTED_EDGE('',*,*,#57,.T.);
#71=ORIENTED_EDGE('',*,*,#58,.T.);
#72=ORIENTED_EDGE('',*,*,#59,.T.);
#73=ORIENTED_EDGE('',*,*,#55,.F.);
#74=ORIENTED_EDGE('',*,*,#56,.F.);
#75=ORIENTED_EDGE('',*,*,#59,.F.);
#76=ORIENTED_EDGE('',*,*,#60,.F.);
#77=ORIENTED_EDGE('',*,*,#61,.T.);
#78=ORIENTED_EDGE('',*,*,#62,.T.);
#79=ORIENTED_EDGE('',*,*,#61,.F.);
#80=ORIENTED_EDGE('',*,*,#62,.F.);
#81=ORIENTED_EDGE('',*,*,#58,.F.);
#82=ORIENTED_EDGE('',*,*,#60,.T.);
#83=TOROIDAL_SURFACE('',#104,4.375,1.);
#84=ADVANCED_FACE('',(#25),#83,.T.);
#85=ADVANCED_FACE('',(#26),#24,.T.);
#86=ADVANCED_FACE('',(#27),#22,.T.);
#87=ADVANCED_FACE('',(#28),#23,.T.);
#88=ADVANCED_FACE('',(#29,#15),#16,.F.);
#89=ADVANCED_FACE('',(#30),#17,.F.);
#90=CLOSED_SHELL('',(#84,#85,#86,#87,#88,#89));
#91=DERIVED_UNIT_ELEMENT(#93,1.);
#92=DERIVED_UNIT_ELEMENT(#179,-3.);
#93=(
MASS_UNIT()
NAMED_UNIT(*)
SI_UNIT(.KILO.,.GRAM.)
);
#94=DERIVED_UNIT((#91,#92));
#95=MEASURE_REPRESENTATION_ITEM('density measure',
POSITIVE_RATIO_MEASURE(7850.),#94);
#96=PROPERTY_DEFINITION_REPRESENTATION(#101,#98);
#97=PROPERTY_DEFINITION_REPRESENTATION(#102,#99);
#98=REPRESENTATION('material name',(#100),#176);
#99=REPRESENTATION('density',(#95),#176);
#100=DESCRIPTIVE_REPRESENTATION_ITEM('Steel','Steel');
#101=PROPERTY_DEFINITION('material property','material name',#186);
#102=PROPERTY_DEFINITION('material property','density of part',#186);
#103=AXIS2_PLACEMENT_3D('',#150,#118,#119);
#104=AXIS2_PLACEMENT_3D('',#151,#120,#121);
#105=AXIS2_PLACEMENT_3D('',#153,#122,#123);
#106=AXIS2_PLACEMENT_3D('',#155,#124,#125);
#107=AXIS2_PLACEMENT_3D('',#157,#126,#127);
#108=AXIS2_PLACEMENT_3D('',#158,#128,#129);
#109=AXIS2_PLACEMENT_3D('',#159,#130,#131);
#110=AXIS2_PLACEMENT_3D('',#161,#132,#133);
#111=AXIS2_PLACEMENT_3D('',#162,#134,#135);
#112=AXIS2_PLACEMENT_3D('',#164,#136,#137);
#113=AXIS2_PLACEMENT_3D('',#166,#139,#140);
#114=AXIS2_PLACEMENT_3D('',#168,#141,#142);
#115=AXIS2_PLACEMENT_3D('',#171,#144,#145);
#116=AXIS2_PLACEMENT_3D('',#172,#146,#147);
#117=AXIS2_PLACEMENT_3D('',#173,#148,#149);
#118=DIRECTION('axis',(0.,0.,1.));
#119=DIRECTION('refdir',(1.,0.,0.));
#120=DIRECTION('center_axis',(0.,0.,1.));
#121=DIRECTION('ref_axis',(1.,0.,0.));
#122=DIRECTION('center_axis',(0.,0.,-1.));
#123=DIRECTION('ref_axis',(1.,0.,0.));
#124=DIRECTION('center_axis',(0.,-1.,0.));
#125=DIRECTION('ref_axis',(-1.,0.,0.));
#126=DIRECTION('center_axis',(0.,0.,1.));
#127=DIRECTION('ref_axis',(1.,0.,0.));
#128=DIRECTION('center_axis',(0.,0.,1.));
#129=DIRECTION('ref_axis',(1.,0.,0.));
#130=DIRECTION('center_axis',(0.,0.,1.));
#131=DIRECTION('ref_axis',(1.,0.,0.));
#132=DIRECTION('center_axis',(0.,-1.,0.));
#133=DIRECTION('ref_axis',(-1.,0.,0.));
#134=DIRECTION('center_axis',(0.,0.,-1.));
#135=DIRECTION('ref_axis',(-1.,0.,0.));
#136=DIRECTION('center_axis',(0.,0.,-1.));
#137=DIRECTION('ref_axis',(-1.,0.,0.));
#138=DIRECTION('',(0.,0.,1.));
#139=DIRECTION('center_axis',(0.,0.,-1.));
#140=DIRECTION('ref_axis',(-1.,0.,0.));
#141=DIRECTION('center_axis',(0.,0.,-1.));
#142=DIRECTION('ref_axis',(-1.,0.,0.));
#143=DIRECTION('',(0.,0.,1.));
#144=DIRECTION('center_axis',(0.,0.,-1.));
#145=DIRECTION('ref_axis',(-1.,0.,0.));
#146=DIRECTION('center_axis',(0.,0.,-1.));
#147=DIRECTION('ref_axis',(-1.,0.,0.));
#148=DIRECTION('center_axis',(0.,0.,1.));
#149=DIRECTION('ref_axis',(-1.,0.,0.));
#150=CARTESIAN_POINT('',(0.,0.,0.));
#151=CARTESIAN_POINT('Origin',(-126.546316768663,31.5629806314686,12.8959543310966));
#152=CARTESIAN_POINT('',(-131.235042258859,31.5629806314686,13.845468057591));
#153=CARTESIAN_POINT('Origin',(-126.546316768663,31.5629806314686,13.845468057591));
#154=CARTESIAN_POINT('',(-131.921316768663,31.5629806314686,12.8959543310966));
#155=CARTESIAN_POINT('Origin',(-130.921316768663,31.5629806314686,12.8959543310966));
#156=CARTESIAN_POINT('',(-121.171316768663,31.5629806314686,12.8959543310966));
#157=CARTESIAN_POINT('Origin',(-126.546316768663,31.5629806314686,12.8959543310966));
#158=CARTESIAN_POINT('Origin',(-126.546316768663,31.5629806314686,12.8959543310966));
#159=CARTESIAN_POINT('Origin',(-126.546316768663,31.5629806314686,-0.345311307907056));
#160=CARTESIAN_POINT('',(-126.546316768663,31.5629806314686,14.600001192093));
#161=CARTESIAN_POINT('Origin',(-126.546316768663,31.5629806314686,-0.345311307907056));
#162=CARTESIAN_POINT('Origin',(-126.546316768663,31.5629806314686,8.60000119209299));
#163=CARTESIAN_POINT('',(-121.171316768663,31.5629806314686,5.86));
#164=CARTESIAN_POINT('Origin',(-126.546316768663,31.5629806314686,5.86));
#165=CARTESIAN_POINT('',(-121.171316768663,31.5629806314686,8.60000119209299));
#166=CARTESIAN_POINT('Origin',(-126.546316768663,31.5629806314686,3.61));
#167=CARTESIAN_POINT('',(-120.296316768663,31.5629806314686,2.6));
#168=CARTESIAN_POINT('Origin',(-126.546316768663,31.5629806314686,2.6));
#169=CARTESIAN_POINT('',(-120.296316768663,31.5629806314686,5.86));
#170=CARTESIAN_POINT('',(-120.296316768663,31.5629806314686,3.61));
#171=CARTESIAN_POINT('Origin',(-126.546316768663,31.5629806314686,5.86));
#172=CARTESIAN_POINT('Origin',(-126.546316768663,31.5629806314686,5.86));
#173=CARTESIAN_POINT('Origin',(-126.546316768663,31.5629806314686,2.60000119209299));
#174=UNCERTAINTY_MEASURE_WITH_UNIT(LENGTH_MEASURE(0.01),#178,
'DISTANCE_ACCURACY_VALUE',
'Maximum model space distance between geometric entities at asserted c
onnectivities');
#175=UNCERTAINTY_MEASURE_WITH_UNIT(LENGTH_MEASURE(0.01),#178,
'DISTANCE_ACCURACY_VALUE',
'Maximum model space distance between geometric entities at asserted c
onnectivities');
#176=(
GEOMETRIC_REPRESENTATION_CONTEXT(3)
GLOBAL_UNCERTAINTY_ASSIGNED_CONTEXT((#174))
GLOBAL_UNIT_ASSIGNED_CONTEXT((#178,#180,#181))
REPRESENTATION_CONTEXT('','3D')
);
#177=(
GEOMETRIC_REPRESENTATION_CONTEXT(3)
GLOBAL_UNCERTAINTY_ASSIGNED_CONTEXT((#175))
GLOBAL_UNIT_ASSIGNED_CONTEXT((#178,#180,#181))
REPRESENTATION_CONTEXT('','3D')
);
#178=(
LENGTH_UNIT()
NAMED_UNIT(*)
SI_UNIT(.MILLI.,.METRE.)
);
#179=(
LENGTH_UNIT()
NAMED_UNIT(*)
SI_UNIT($,.METRE.)
);
#180=(
NAMED_UNIT(*)
PLANE_ANGLE_UNIT()
SI_UNIT($,.RADIAN.)
);
#181=(
NAMED_UNIT(*)
SI_UNIT($,.STERADIAN.)
SOLID_ANGLE_UNIT()
);
#182=SHAPE_DEFINITION_REPRESENTATION(#183,#184);
#183=PRODUCT_DEFINITION_SHAPE('',$,#186);
#184=SHAPE_REPRESENTATION('',(#103),#176);
#185=PRODUCT_DEFINITION_CONTEXT('part definition',#190,'design');
#186=PRODUCT_DEFINITION('BTN_PROD','BTN_PROD',#187,#185);
#187=PRODUCT_DEFINITION_FORMATION('',$,#192);
#188=PRODUCT_RELATED_PRODUCT_CATEGORY('BTN_PROD','BTN_PROD',(#192));
#189=APPLICATION_PROTOCOL_DEFINITION('international standard',
'automotive_design',2009,#190);
#190=APPLICATION_CONTEXT(
'Core Data for Automotive Mechanical Design Process');
#191=PRODUCT_CONTEXT('part definition',#190,'mechanical');
#192=PRODUCT('BTN_PROD','BTN_PROD',$,(#191));
#193=PRESENTATION_STYLE_ASSIGNMENT((#195));
#194=PRESENTATION_STYLE_ASSIGNMENT((#196));
#195=SURFACE_STYLE_USAGE(.BOTH.,#197);
#196=SURFACE_STYLE_USAGE(.BOTH.,#198);
#197=SURFACE_SIDE_STYLE('',(#199));
#198=SURFACE_SIDE_STYLE('',(#200));
#199=SURFACE_STYLE_FILL_AREA(#201);
#200=SURFACE_STYLE_FILL_AREA(#202);
#201=FILL_AREA_STYLE('Steel - Satin',(#203));
#202=FILL_AREA_STYLE('Plastic - Matte (Black)',(#204));
#203=FILL_AREA_STYLE_COLOUR('Steel - Satin',#205);
#204=FILL_AREA_STYLE_COLOUR('Plastic - Matte (Black)',#206);
#205=COLOUR_RGB('Steel - Satin',0.627450980392157,0.627450980392157,0.627450980392157);
#206=COLOUR_RGB('Plastic - Matte (Black)',0.0980392156862745,0.0980392156862745,
0.0980392156862745);
ENDSEC;
END-ISO-10303-21;
