ISO-10303-21;
HEADER;
/* Generated by software containing ST-Developer
 * from STEP Tools, Inc. (www.steptools.com) 
 */

FILE_DESCRIPTION(
/* description */ (''),
/* implementation_level */ '2;1');

FILE_NAME(
/* name */ 'fastner.step',
/* time_stamp */ '2026-07-08T10:58:00+03:00',
/* author */ (''),
/* organization */ (''),
/* preprocessor_version */ 'ST-DEVELOPER v20.1',
/* originating_system */ 'Autodesk Translation Framework v15.8.0.0',
/* authorisation */ '');

FILE_SCHEMA (('AUTOMOTIVE_DESIGN { 1 0 10303 214 3 1 1 }'));
ENDSEC;

DATA;
#10=MECHANICAL_DESIGN_GEOMETRIC_PRESENTATION_REPRESENTATION('',(#13),#351);
#11=SHAPE_REPRESENTATION_RELATIONSHIP('SRR','None',#358,#12);
#12=ADVANCED_BREP_SHAPE_REPRESENTATION('',(#14),#350);
#13=STYLED_ITEM('',(#367),#14);
#14=MANIFOLD_SOLID_BREP('Body1',#203);
#15=FACE_BOUND('',#43,.T.);
#16=FACE_BOUND('',#46,.T.);
#17=FACE_BOUND('',#54,.T.);
#18=FACE_BOUND('',#55,.T.);
#19=FACE_BOUND('',#57,.T.);
#20=FACE_BOUND('',#58,.T.);
#21=PLANE('',#220);
#22=PLANE('',#225);
#23=PLANE('',#231);
#24=PLANE('',#232);
#25=PLANE('',#233);
#26=PLANE('',#234);
#27=PLANE('',#235);
#28=PLANE('',#236);
#29=FACE_OUTER_BOUND('',#41,.T.);
#30=FACE_OUTER_BOUND('',#42,.T.);
#31=FACE_OUTER_BOUND('',#44,.T.);
#32=FACE_OUTER_BOUND('',#45,.T.);
#33=FACE_OUTER_BOUND('',#47,.T.);
#34=FACE_OUTER_BOUND('',#48,.T.);
#35=FACE_OUTER_BOUND('',#49,.T.);
#36=FACE_OUTER_BOUND('',#50,.T.);
#37=FACE_OUTER_BOUND('',#51,.T.);
#38=FACE_OUTER_BOUND('',#52,.T.);
#39=FACE_OUTER_BOUND('',#53,.T.);
#40=FACE_OUTER_BOUND('',#56,.T.);
#41=EDGE_LOOP('',(#139,#140,#141,#142));
#42=EDGE_LOOP('',(#143));
#43=EDGE_LOOP('',(#144));
#44=EDGE_LOOP('',(#145,#146,#147,#148));
#45=EDGE_LOOP('',(#149));
#46=EDGE_LOOP('',(#150));
#47=EDGE_LOOP('',(#151,#152,#153,#154));
#48=EDGE_LOOP('',(#155,#156,#157,#158));
#49=EDGE_LOOP('',(#159,#160,#161,#162));
#50=EDGE_LOOP('',(#163,#164,#165,#166));
#51=EDGE_LOOP('',(#167,#168,#169,#170));
#52=EDGE_LOOP('',(#171,#172,#173,#174));
#53=EDGE_LOOP('',(#175,#176,#177,#178));
#54=EDGE_LOOP('',(#179));
#55=EDGE_LOOP('',(#180));
#56=EDGE_LOOP('',(#181,#182,#183,#184));
#57=EDGE_LOOP('',(#185));
#58=EDGE_LOOP('',(#186));
#59=LINE('',#300,#75);
#60=LINE('',#309,#76);
#61=LINE('',#316,#77);
#62=LINE('',#320,#78);
#63=LINE('',#325,#79);
#64=LINE('',#327,#80);
#65=LINE('',#329,#81);
#66=LINE('',#330,#82);
#67=LINE('',#333,#83);
#68=LINE('',#335,#84);
#69=LINE('',#336,#85);
#70=LINE('',#339,#86);
#71=LINE('',#341,#87);
#72=LINE('',#342,#88);
#73=LINE('',#344,#89);
#74=LINE('',#345,#90);
#75=VECTOR('',#243,3.5);
#76=VECTOR('',#254,3.5);
#77=VECTOR('',#263,2.05);
#78=VECTOR('',#268,2.05);
#79=VECTOR('',#273,10.);
#80=VECTOR('',#274,10.);
#81=VECTOR('',#275,10.);
#82=VECTOR('',#276,10.);
#83=VECTOR('',#279,10.);
#84=VECTOR('',#280,10.);
#85=VECTOR('',#281,10.);
#86=VECTOR('',#284,10.);
#87=VECTOR('',#285,10.);
#88=VECTOR('',#286,10.);
#89=VECTOR('',#289,10.);
#90=VECTOR('',#290,10.);
#91=CIRCLE('',#218,3.5);
#92=CIRCLE('',#219,3.5);
#93=CIRCLE('',#221,2.05);
#94=CIRCLE('',#223,3.5);
#95=CIRCLE('',#224,3.5);
#96=CIRCLE('',#226,2.05);
#97=CIRCLE('',#228,2.05);
#98=CIRCLE('',#230,2.05);
#99=VERTEX_POINT('',#297);
#100=VERTEX_POINT('',#299);
#101=VERTEX_POINT('',#303);
#102=VERTEX_POINT('',#306);
#103=VERTEX_POINT('',#308);
#104=VERTEX_POINT('',#312);
#105=VERTEX_POINT('',#315);
#106=VERTEX_POINT('',#319);
#107=VERTEX_POINT('',#323);
#108=VERTEX_POINT('',#324);
#109=VERTEX_POINT('',#326);
#110=VERTEX_POINT('',#328);
#111=VERTEX_POINT('',#332);
#112=VERTEX_POINT('',#334);
#113=VERTEX_POINT('',#338);
#114=VERTEX_POINT('',#340);
#115=EDGE_CURVE('',#99,#99,#91,.T.);
#116=EDGE_CURVE('',#99,#100,#59,.T.);
#117=EDGE_CURVE('',#100,#100,#92,.T.);
#118=EDGE_CURVE('',#101,#101,#93,.T.);
#119=EDGE_CURVE('',#102,#102,#94,.T.);
#120=EDGE_CURVE('',#102,#103,#60,.T.);
#121=EDGE_CURVE('',#103,#103,#95,.T.);
#122=EDGE_CURVE('',#104,#104,#96,.T.);
#123=EDGE_CURVE('',#101,#105,#61,.T.);
#124=EDGE_CURVE('',#105,#105,#97,.T.);
#125=EDGE_CURVE('',#104,#106,#62,.T.);
#126=EDGE_CURVE('',#106,#106,#98,.T.);
#127=EDGE_CURVE('',#107,#108,#63,.T.);
#128=EDGE_CURVE('',#108,#109,#64,.T.);
#129=EDGE_CURVE('',#109,#110,#65,.T.);
#130=EDGE_CURVE('',#107,#110,#66,.T.);
#131=EDGE_CURVE('',#108,#111,#67,.T.);
#132=EDGE_CURVE('',#111,#112,#68,.T.);
#133=EDGE_CURVE('',#112,#109,#69,.T.);
#134=EDGE_CURVE('',#111,#113,#70,.T.);
#135=EDGE_CURVE('',#113,#114,#71,.T.);
#136=EDGE_CURVE('',#114,#112,#72,.T.);
#137=EDGE_CURVE('',#113,#107,#73,.T.);
#138=EDGE_CURVE('',#110,#114,#74,.T.);
#139=ORIENTED_EDGE('',*,*,#115,.T.);
#140=ORIENTED_EDGE('',*,*,#116,.T.);
#141=ORIENTED_EDGE('',*,*,#117,.T.);
#142=ORIENTED_EDGE('',*,*,#116,.F.);
#143=ORIENTED_EDGE('',*,*,#115,.F.);
#144=ORIENTED_EDGE('',*,*,#118,.F.);
#145=ORIENTED_EDGE('',*,*,#119,.T.);
#146=ORIENTED_EDGE('',*,*,#120,.T.);
#147=ORIENTED_EDGE('',*,*,#121,.T.);
#148=ORIENTED_EDGE('',*,*,#120,.F.);
#149=ORIENTED_EDGE('',*,*,#119,.F.);
#150=ORIENTED_EDGE('',*,*,#122,.F.);
#151=ORIENTED_EDGE('',*,*,#118,.T.);
#152=ORIENTED_EDGE('',*,*,#123,.T.);
#153=ORIENTED_EDGE('',*,*,#124,.F.);
#154=ORIENTED_EDGE('',*,*,#123,.F.);
#155=ORIENTED_EDGE('',*,*,#122,.T.);
#156=ORIENTED_EDGE('',*,*,#125,.T.);
#157=ORIENTED_EDGE('',*,*,#126,.F.);
#158=ORIENTED_EDGE('',*,*,#125,.F.);
#159=ORIENTED_EDGE('',*,*,#127,.T.);
#160=ORIENTED_EDGE('',*,*,#128,.T.);
#161=ORIENTED_EDGE('',*,*,#129,.T.);
#162=ORIENTED_EDGE('',*,*,#130,.F.);
#163=ORIENTED_EDGE('',*,*,#131,.T.);
#164=ORIENTED_EDGE('',*,*,#132,.T.);
#165=ORIENTED_EDGE('',*,*,#133,.T.);
#166=ORIENTED_EDGE('',*,*,#128,.F.);
#167=ORIENTED_EDGE('',*,*,#134,.T.);
#168=ORIENTED_EDGE('',*,*,#135,.T.);
#169=ORIENTED_EDGE('',*,*,#136,.T.);
#170=ORIENTED_EDGE('',*,*,#132,.F.);
#171=ORIENTED_EDGE('',*,*,#137,.T.);
#172=ORIENTED_EDGE('',*,*,#130,.T.);
#173=ORIENTED_EDGE('',*,*,#138,.T.);
#174=ORIENTED_EDGE('',*,*,#135,.F.);
#175=ORIENTED_EDGE('',*,*,#138,.F.);
#176=ORIENTED_EDGE('',*,*,#129,.F.);
#177=ORIENTED_EDGE('',*,*,#133,.F.);
#178=ORIENTED_EDGE('',*,*,#136,.F.);
#179=ORIENTED_EDGE('',*,*,#117,.F.);
#180=ORIENTED_EDGE('',*,*,#121,.F.);
#181=ORIENTED_EDGE('',*,*,#137,.F.);
#182=ORIENTED_EDGE('',*,*,#134,.F.);
#183=ORIENTED_EDGE('',*,*,#131,.F.);
#184=ORIENTED_EDGE('',*,*,#127,.F.);
#185=ORIENTED_EDGE('',*,*,#124,.T.);
#186=ORIENTED_EDGE('',*,*,#126,.T.);
#187=CYLINDRICAL_SURFACE('',#217,3.5);
#188=CYLINDRICAL_SURFACE('',#222,3.5);
#189=CYLINDRICAL_SURFACE('',#227,2.05);
#190=CYLINDRICAL_SURFACE('',#229,2.05);
#191=ADVANCED_FACE('',(#29),#187,.T.);
#192=ADVANCED_FACE('',(#30,#15),#21,.F.);
#193=ADVANCED_FACE('',(#31),#188,.T.);
#194=ADVANCED_FACE('',(#32,#16),#22,.F.);
#195=ADVANCED_FACE('',(#33),#189,.F.);
#196=ADVANCED_FACE('',(#34),#190,.F.);
#197=ADVANCED_FACE('',(#35),#23,.F.);
#198=ADVANCED_FACE('',(#36),#24,.F.);
#199=ADVANCED_FACE('',(#37),#25,.F.);
#200=ADVANCED_FACE('',(#38),#26,.F.);
#201=ADVANCED_FACE('',(#39,#17,#18),#27,.F.);
#202=ADVANCED_FACE('',(#40,#19,#20),#28,.T.);
#203=CLOSED_SHELL('',(#191,#192,#193,#194,#195,#196,#197,#198,#199,#200,
#201,#202));
#204=DERIVED_UNIT_ELEMENT(#206,1.);
#205=DERIVED_UNIT_ELEMENT(#353,-3.);
#206=(
MASS_UNIT()
NAMED_UNIT(*)
SI_UNIT(.KILO.,.GRAM.)
);
#207=DERIVED_UNIT((#204,#205));
#208=MEASURE_REPRESENTATION_ITEM('density measure',
POSITIVE_RATIO_MEASURE(7850.),#207);
#209=PROPERTY_DEFINITION_REPRESENTATION(#214,#211);
#210=PROPERTY_DEFINITION_REPRESENTATION(#215,#212);
#211=REPRESENTATION('material name',(#213),#350);
#212=REPRESENTATION('density',(#208),#350);
#213=DESCRIPTIVE_REPRESENTATION_ITEM('Steel','Steel');
#214=PROPERTY_DEFINITION('material property','material name',#360);
#215=PROPERTY_DEFINITION('material property','density of part',#360);
#216=AXIS2_PLACEMENT_3D('',#295,#237,#238);
#217=AXIS2_PLACEMENT_3D('',#296,#239,#240);
#218=AXIS2_PLACEMENT_3D('',#298,#241,#242);
#219=AXIS2_PLACEMENT_3D('',#301,#244,#245);
#220=AXIS2_PLACEMENT_3D('',#302,#246,#247);
#221=AXIS2_PLACEMENT_3D('',#304,#248,#249);
#222=AXIS2_PLACEMENT_3D('',#305,#250,#251);
#223=AXIS2_PLACEMENT_3D('',#307,#252,#253);
#224=AXIS2_PLACEMENT_3D('',#310,#255,#256);
#225=AXIS2_PLACEMENT_3D('',#311,#257,#258);
#226=AXIS2_PLACEMENT_3D('',#313,#259,#260);
#227=AXIS2_PLACEMENT_3D('',#314,#261,#262);
#228=AXIS2_PLACEMENT_3D('',#317,#264,#265);
#229=AXIS2_PLACEMENT_3D('',#318,#266,#267);
#230=AXIS2_PLACEMENT_3D('',#321,#269,#270);
#231=AXIS2_PLACEMENT_3D('',#322,#271,#272);
#232=AXIS2_PLACEMENT_3D('',#331,#277,#278);
#233=AXIS2_PLACEMENT_3D('',#337,#282,#283);
#234=AXIS2_PLACEMENT_3D('',#343,#287,#288);
#235=AXIS2_PLACEMENT_3D('',#346,#291,#292);
#236=AXIS2_PLACEMENT_3D('',#347,#293,#294);
#237=DIRECTION('axis',(0.,0.,1.));
#238=DIRECTION('refdir',(1.,0.,0.));
#239=DIRECTION('center_axis',(0.,1.,0.));
#240=DIRECTION('ref_axis',(-1.,0.,-6.12323399573677E-17));
#241=DIRECTION('center_axis',(0.,1.,0.));
#242=DIRECTION('ref_axis',(-1.,0.,-6.12323399573677E-17));
#243=DIRECTION('',(0.,1.,0.));
#244=DIRECTION('center_axis',(0.,-1.,0.));
#245=DIRECTION('ref_axis',(-1.,0.,-6.12323399573677E-17));
#246=DIRECTION('center_axis',(0.,1.,0.));
#247=DIRECTION('ref_axis',(-1.,0.,-6.12323399573677E-17));
#248=DIRECTION('center_axis',(0.,-1.,0.));
#249=DIRECTION('ref_axis',(-1.,0.,-6.12323399573677E-17));
#250=DIRECTION('center_axis',(0.,1.,0.));
#251=DIRECTION('ref_axis',(-1.,0.,-6.12323399573677E-17));
#252=DIRECTION('center_axis',(0.,1.,0.));
#253=DIRECTION('ref_axis',(-1.,0.,-6.12323399573677E-17));
#254=DIRECTION('',(0.,1.,0.));
#255=DIRECTION('center_axis',(0.,-1.,0.));
#256=DIRECTION('ref_axis',(-1.,0.,-6.12323399573677E-17));
#257=DIRECTION('center_axis',(0.,1.,0.));
#258=DIRECTION('ref_axis',(-1.,0.,-6.12323399573677E-17));
#259=DIRECTION('center_axis',(0.,-1.,0.));
#260=DIRECTION('ref_axis',(-1.,0.,-6.12323399573677E-17));
#261=DIRECTION('center_axis',(0.,1.,0.));
#262=DIRECTION('ref_axis',(-1.,0.,-6.12323399573677E-17));
#263=DIRECTION('',(0.,1.,0.));
#264=DIRECTION('center_axis',(0.,-1.,0.));
#265=DIRECTION('ref_axis',(-1.,0.,-6.12323399573677E-17));
#266=DIRECTION('center_axis',(0.,1.,0.));
#267=DIRECTION('ref_axis',(-1.,0.,-6.12323399573677E-17));
#268=DIRECTION('',(0.,1.,0.));
#269=DIRECTION('center_axis',(0.,-1.,0.));
#270=DIRECTION('ref_axis',(-1.,0.,-6.12323399573677E-17));
#271=DIRECTION('center_axis',(-1.,0.,-6.12323399573677E-17));
#272=DIRECTION('ref_axis',(6.12323399573677E-17,0.,-1.));
#273=DIRECTION('',(-6.12323399573677E-17,0.,1.));
#274=DIRECTION('',(0.,-1.,0.));
#275=DIRECTION('',(6.12323399573677E-17,0.,-1.));
#276=DIRECTION('',(0.,-1.,0.));
#277=DIRECTION('center_axis',(6.12323399573677E-17,0.,-1.));
#278=DIRECTION('ref_axis',(1.,0.,6.12323399573677E-17));
#279=DIRECTION('',(-1.,0.,-6.12323399573677E-17));
#280=DIRECTION('',(0.,-1.,0.));
#281=DIRECTION('',(1.,0.,6.12323399573677E-17));
#282=DIRECTION('center_axis',(1.,0.,6.12323399573677E-17));
#283=DIRECTION('ref_axis',(-6.12323399573677E-17,0.,1.));
#284=DIRECTION('',(6.12323399573677E-17,0.,-1.));
#285=DIRECTION('',(0.,-1.,0.));
#286=DIRECTION('',(-6.12323399573677E-17,0.,1.));
#287=DIRECTION('center_axis',(-6.12323399573677E-17,0.,1.));
#288=DIRECTION('ref_axis',(-1.,0.,-6.12323399573677E-17));
#289=DIRECTION('',(1.,0.,6.12323399573677E-17));
#290=DIRECTION('',(-1.,0.,-6.12323399573677E-17));
#291=DIRECTION('center_axis',(0.,1.,0.));
#292=DIRECTION('ref_axis',(-1.,0.,-6.12323399573677E-17));
#293=DIRECTION('center_axis',(0.,1.,0.));
#294=DIRECTION('ref_axis',(-1.,0.,-6.12323399573677E-17));
#295=CARTESIAN_POINT('',(0.,0.,0.));
#296=CARTESIAN_POINT('Origin',(5.17532992198018,119.271743921451,-16.64));
#297=CARTESIAN_POINT('',(8.67532992198018,114.271743921451,-16.64));
#298=CARTESIAN_POINT('Origin',(5.17532992198018,114.271743921451,-16.64));
#299=CARTESIAN_POINT('',(8.67532992198018,116.271743921451,-16.64));
#300=CARTESIAN_POINT('',(8.67532992198018,119.271743921451,-16.64));
#301=CARTESIAN_POINT('Origin',(5.17532992198018,116.271743921451,-16.64));
#302=CARTESIAN_POINT('Origin',(5.17532992198018,114.271743921451,-16.64));
#303=CARTESIAN_POINT('',(7.22532992198017,114.271743921451,-16.64));
#304=CARTESIAN_POINT('Origin',(5.17532992198018,114.271743921451,-16.64));
#305=CARTESIAN_POINT('Origin',(-16.8246700780198,119.271743921451,-16.64));
#306=CARTESIAN_POINT('',(-13.3246700780198,114.271743921451,-16.64));
#307=CARTESIAN_POINT('Origin',(-16.8246700780198,114.271743921451,-16.64));
#308=CARTESIAN_POINT('',(-13.3246700780198,116.271743921451,-16.64));
#309=CARTESIAN_POINT('',(-13.3246700780198,119.271743921451,-16.64));
#310=CARTESIAN_POINT('Origin',(-16.8246700780198,116.271743921451,-16.64));
#311=CARTESIAN_POINT('Origin',(-16.8246700780198,114.271743921451,-16.64));
#312=CARTESIAN_POINT('',(-14.7746700780198,114.271743921451,-16.64));
#313=CARTESIAN_POINT('Origin',(-16.8246700780198,114.271743921451,-16.64));
#314=CARTESIAN_POINT('Origin',(5.17532992198018,119.271743921451,-16.64));
#315=CARTESIAN_POINT('',(7.22532992198017,119.271743921451,-16.64));
#316=CARTESIAN_POINT('',(7.22532992198017,119.271743921451,-16.64));
#317=CARTESIAN_POINT('Origin',(5.17532992198018,119.271743921451,-16.64));
#318=CARTESIAN_POINT('Origin',(-16.8246700780198,119.271743921451,-16.64));
#319=CARTESIAN_POINT('',(-14.7746700780198,119.271743921451,-16.64));
#320=CARTESIAN_POINT('',(-14.7746700780198,119.271743921451,-16.64));
#321=CARTESIAN_POINT('Origin',(-16.8246700780198,119.271743921451,-16.64));
#322=CARTESIAN_POINT('Origin',(11.6753299219802,119.271743921451,-10.39));
#323=CARTESIAN_POINT('',(11.6753299219802,119.271743921451,-22.89));
#324=CARTESIAN_POINT('',(11.6753299219802,119.271743921451,-10.39));
#325=CARTESIAN_POINT('',(11.6753299219802,119.271743921451,-22.89));
#326=CARTESIAN_POINT('',(11.6753299219802,116.271743921451,-10.39));
#327=CARTESIAN_POINT('',(11.6753299219802,119.271743921451,-10.39));
#328=CARTESIAN_POINT('',(11.6753299219802,116.271743921451,-22.89));
#329=CARTESIAN_POINT('',(11.6753299219802,116.271743921451,-22.89));
#330=CARTESIAN_POINT('',(11.6753299219802,119.271743921451,-22.89));
#331=CARTESIAN_POINT('Origin',(-23.3246700780198,119.271743921451,-10.39));
#332=CARTESIAN_POINT('',(-23.3246700780198,119.271743921451,-10.39));
#333=CARTESIAN_POINT('',(11.6753299219802,119.271743921451,-10.39));
#334=CARTESIAN_POINT('',(-23.3246700780198,116.271743921451,-10.39));
#335=CARTESIAN_POINT('',(-23.3246700780198,119.271743921451,-10.39));
#336=CARTESIAN_POINT('',(11.6753299219802,116.271743921451,-10.39));
#337=CARTESIAN_POINT('Origin',(-23.3246700780198,119.271743921451,-22.89));
#338=CARTESIAN_POINT('',(-23.3246700780198,119.271743921451,-22.89));
#339=CARTESIAN_POINT('',(-23.3246700780198,119.271743921451,-10.39));
#340=CARTESIAN_POINT('',(-23.3246700780198,116.271743921451,-22.89));
#341=CARTESIAN_POINT('',(-23.3246700780198,119.271743921451,-22.89));
#342=CARTESIAN_POINT('',(-23.3246700780198,116.271743921451,-10.39));
#343=CARTESIAN_POINT('Origin',(11.6753299219802,119.271743921451,-22.89));
#344=CARTESIAN_POINT('',(-23.3246700780198,119.271743921451,-22.89));
#345=CARTESIAN_POINT('',(-23.3246700780198,116.271743921451,-22.89));
#346=CARTESIAN_POINT('Origin',(-5.82467007801982,116.271743921451,-16.64));
#347=CARTESIAN_POINT('Origin',(-5.82467007801982,119.271743921451,-16.64));
#348=UNCERTAINTY_MEASURE_WITH_UNIT(LENGTH_MEASURE(0.01),#352,
'DISTANCE_ACCURACY_VALUE',
'Maximum model space distance between geometric entities at asserted c
onnectivities');
#349=UNCERTAINTY_MEASURE_WITH_UNIT(LENGTH_MEASURE(0.01),#352,
'DISTANCE_ACCURACY_VALUE',
'Maximum model space distance between geometric entities at asserted c
onnectivities');
#350=(
GEOMETRIC_REPRESENTATION_CONTEXT(3)
GLOBAL_UNCERTAINTY_ASSIGNED_CONTEXT((#348))
GLOBAL_UNIT_ASSIGNED_CONTEXT((#352,#354,#355))
REPRESENTATION_CONTEXT('','3D')
);
#351=(
GEOMETRIC_REPRESENTATION_CONTEXT(3)
GLOBAL_UNCERTAINTY_ASSIGNED_CONTEXT((#349))
GLOBAL_UNIT_ASSIGNED_CONTEXT((#352,#354,#355))
REPRESENTATION_CONTEXT('','3D')
);
#352=(
LENGTH_UNIT()
NAMED_UNIT(*)
SI_UNIT(.MILLI.,.METRE.)
);
#353=(
LENGTH_UNIT()
NAMED_UNIT(*)
SI_UNIT($,.METRE.)
);
#354=(
NAMED_UNIT(*)
PLANE_ANGLE_UNIT()
SI_UNIT($,.RADIAN.)
);
#355=(
NAMED_UNIT(*)
SI_UNIT($,.STERADIAN.)
SOLID_ANGLE_UNIT()
);
#356=SHAPE_DEFINITION_REPRESENTATION(#357,#358);
#357=PRODUCT_DEFINITION_SHAPE('',$,#360);
#358=SHAPE_REPRESENTATION('',(#216),#350);
#359=PRODUCT_DEFINITION_CONTEXT('part definition',#364,'design');
#360=PRODUCT_DEFINITION('fastner','fastner',#361,#359);
#361=PRODUCT_DEFINITION_FORMATION('',$,#366);
#362=PRODUCT_RELATED_PRODUCT_CATEGORY('fastner','fastner',(#366));
#363=APPLICATION_PROTOCOL_DEFINITION('international standard',
'automotive_design',2009,#364);
#364=APPLICATION_CONTEXT(
'Core Data for Automotive Mechanical Design Process');
#365=PRODUCT_CONTEXT('part definition',#364,'mechanical');
#366=PRODUCT('fastner','fastner',$,(#365));
#367=PRESENTATION_STYLE_ASSIGNMENT((#368));
#368=SURFACE_STYLE_USAGE(.BOTH.,#369);
#369=SURFACE_SIDE_STYLE('',(#370));
#370=SURFACE_STYLE_FILL_AREA(#371);
#371=FILL_AREA_STYLE('Steel - Satin',(#372));
#372=FILL_AREA_STYLE_COLOUR('Steel - Satin',#373);
#373=COLOUR_RGB('Steel - Satin',0.627450980392157,0.627450980392157,0.627450980392157);
ENDSEC;
END-ISO-10303-21;
