ISO-10303-21;
HEADER;
/* Generated by software containing ST-Developer
 * from STEP Tools, Inc. (www.steptools.com) 
 */

FILE_DESCRIPTION(
/* description */ (''),
/* implementation_level */ '2;1');

FILE_NAME(
/* name */ 'menu_label.step',
/* time_stamp */ '2026-07-08T10:59:10+03:00',
/* author */ (''),
/* organization */ (''),
/* preprocessor_version */ 'ST-DEVELOPER v20.1',
/* originating_system */ 'Autodesk Translation Framework v15.8.0.0',
/* authorisation */ '');

FILE_SCHEMA (('AUTOMOTIVE_DESIGN { 1 0 10303 214 3 1 1 }'));
ENDSEC;

DATA;
#10=MECHANICAL_DESIGN_GEOMETRIC_PRESENTATION_REPRESENTATION('',(#13),#296);
#11=SHAPE_REPRESENTATION_RELATIONSHIP('SRR','None',#303,#12);
#12=ADVANCED_BREP_SHAPE_REPRESENTATION('',(#14),#295);
#13=STYLED_ITEM('',(#312),#14);
#14=MANIFOLD_SOLID_BREP('select_label',#172);
#15=FACE_BOUND('',#41,.T.);
#16=CIRCLE('',#192,5.49999999999999);
#17=CIRCLE('',#193,5.49999999999999);
#18=CIRCLE('',#196,3.5);
#19=CIRCLE('',#197,3.5);
#20=CYLINDRICAL_SURFACE('',#191,5.49999999999999);
#21=CYLINDRICAL_SURFACE('',#195,3.5);
#22=FACE_OUTER_BOUND('',#32,.T.);
#23=FACE_OUTER_BOUND('',#33,.T.);
#24=FACE_OUTER_BOUND('',#34,.T.);
#25=FACE_OUTER_BOUND('',#35,.T.);
#26=FACE_OUTER_BOUND('',#36,.T.);
#27=FACE_OUTER_BOUND('',#37,.T.);
#28=FACE_OUTER_BOUND('',#38,.T.);
#29=FACE_OUTER_BOUND('',#39,.T.);
#30=FACE_OUTER_BOUND('',#40,.T.);
#31=FACE_OUTER_BOUND('',#42,.T.);
#32=EDGE_LOOP('',(#112,#113,#114));
#33=EDGE_LOOP('',(#115,#116,#117,#118));
#34=EDGE_LOOP('',(#119,#120,#121,#122));
#35=EDGE_LOOP('',(#123,#124,#125,#126));
#36=EDGE_LOOP('',(#127,#128,#129,#130));
#37=EDGE_LOOP('',(#131,#132,#133,#134));
#38=EDGE_LOOP('',(#135,#136,#137,#138));
#39=EDGE_LOOP('',(#139,#140,#141,#142));
#40=EDGE_LOOP('',(#143,#144,#145,#146));
#41=EDGE_LOOP('',(#147,#148,#149));
#42=EDGE_LOOP('',(#150,#151,#152,#153));
#43=LINE('',#251,#60);
#44=LINE('',#253,#61);
#45=LINE('',#254,#62);
#46=LINE('',#258,#63);
#47=LINE('',#259,#64);
#48=LINE('',#260,#65);
#49=LINE('',#263,#66);
#50=LINE('',#264,#67);
#51=LINE('',#266,#68);
#52=LINE('',#270,#69);
#53=LINE('',#272,#70);
#54=LINE('',#274,#71);
#55=LINE('',#275,#72);
#56=LINE('',#281,#73);
#57=LINE('',#284,#74);
#58=LINE('',#286,#75);
#59=LINE('',#287,#76);
#60=VECTOR('',#204,10.);
#61=VECTOR('',#205,10.);
#62=VECTOR('',#206,10.);
#63=VECTOR('',#209,10.);
#64=VECTOR('',#210,10.);
#65=VECTOR('',#211,10.);
#66=VECTOR('',#214,10.);
#67=VECTOR('',#215,10.);
#68=VECTOR('',#218,10.);
#69=VECTOR('',#221,10.);
#70=VECTOR('',#222,10.);
#71=VECTOR('',#223,10.);
#72=VECTOR('',#224,10.);
#73=VECTOR('',#231,10.);
#74=VECTOR('',#234,10.);
#75=VECTOR('',#235,10.);
#76=VECTOR('',#236,10.);
#77=VERTEX_POINT('',#249);
#78=VERTEX_POINT('',#250);
#79=VERTEX_POINT('',#252);
#80=VERTEX_POINT('',#256);
#81=VERTEX_POINT('',#257);
#82=VERTEX_POINT('',#262);
#83=VERTEX_POINT('',#268);
#84=VERTEX_POINT('',#269);
#85=VERTEX_POINT('',#271);
#86=VERTEX_POINT('',#273);
#87=VERTEX_POINT('',#277);
#88=VERTEX_POINT('',#279);
#89=VERTEX_POINT('',#283);
#90=VERTEX_POINT('',#285);
#91=EDGE_CURVE('',#77,#78,#43,.T.);
#92=EDGE_CURVE('',#78,#79,#44,.T.);
#93=EDGE_CURVE('',#79,#77,#45,.T.);
#94=EDGE_CURVE('',#80,#81,#46,.T.);
#95=EDGE_CURVE('',#80,#77,#47,.T.);
#96=EDGE_CURVE('',#81,#79,#48,.T.);
#97=EDGE_CURVE('',#81,#82,#49,.T.);
#98=EDGE_CURVE('',#82,#78,#50,.T.);
#99=EDGE_CURVE('',#82,#80,#51,.T.);
#100=EDGE_CURVE('',#83,#84,#52,.T.);
#101=EDGE_CURVE('',#84,#85,#53,.T.);
#102=EDGE_CURVE('',#86,#85,#54,.T.);
#103=EDGE_CURVE('',#83,#86,#55,.T.);
#104=EDGE_CURVE('',#87,#83,#16,.T.);
#105=EDGE_CURVE('',#88,#86,#17,.T.);
#106=EDGE_CURVE('',#87,#88,#56,.T.);
#107=EDGE_CURVE('',#89,#87,#57,.T.);
#108=EDGE_CURVE('',#90,#88,#58,.T.);
#109=EDGE_CURVE('',#89,#90,#59,.T.);
#110=EDGE_CURVE('',#89,#84,#18,.T.);
#111=EDGE_CURVE('',#85,#90,#19,.T.);
#112=ORIENTED_EDGE('',*,*,#91,.T.);
#113=ORIENTED_EDGE('',*,*,#92,.T.);
#114=ORIENTED_EDGE('',*,*,#93,.T.);
#115=ORIENTED_EDGE('',*,*,#94,.F.);
#116=ORIENTED_EDGE('',*,*,#95,.T.);
#117=ORIENTED_EDGE('',*,*,#93,.F.);
#118=ORIENTED_EDGE('',*,*,#96,.F.);
#119=ORIENTED_EDGE('',*,*,#97,.F.);
#120=ORIENTED_EDGE('',*,*,#96,.T.);
#121=ORIENTED_EDGE('',*,*,#92,.F.);
#122=ORIENTED_EDGE('',*,*,#98,.F.);
#123=ORIENTED_EDGE('',*,*,#99,.F.);
#124=ORIENTED_EDGE('',*,*,#98,.T.);
#125=ORIENTED_EDGE('',*,*,#91,.F.);
#126=ORIENTED_EDGE('',*,*,#95,.F.);
#127=ORIENTED_EDGE('',*,*,#100,.T.);
#128=ORIENTED_EDGE('',*,*,#101,.T.);
#129=ORIENTED_EDGE('',*,*,#102,.F.);
#130=ORIENTED_EDGE('',*,*,#103,.F.);
#131=ORIENTED_EDGE('',*,*,#104,.T.);
#132=ORIENTED_EDGE('',*,*,#103,.T.);
#133=ORIENTED_EDGE('',*,*,#105,.F.);
#134=ORIENTED_EDGE('',*,*,#106,.F.);
#135=ORIENTED_EDGE('',*,*,#107,.T.);
#136=ORIENTED_EDGE('',*,*,#106,.T.);
#137=ORIENTED_EDGE('',*,*,#108,.F.);
#138=ORIENTED_EDGE('',*,*,#109,.F.);
#139=ORIENTED_EDGE('',*,*,#110,.F.);
#140=ORIENTED_EDGE('',*,*,#109,.T.);
#141=ORIENTED_EDGE('',*,*,#111,.F.);
#142=ORIENTED_EDGE('',*,*,#101,.F.);
#143=ORIENTED_EDGE('',*,*,#110,.T.);
#144=ORIENTED_EDGE('',*,*,#100,.F.);
#145=ORIENTED_EDGE('',*,*,#104,.F.);
#146=ORIENTED_EDGE('',*,*,#107,.F.);
#147=ORIENTED_EDGE('',*,*,#94,.T.);
#148=ORIENTED_EDGE('',*,*,#97,.T.);
#149=ORIENTED_EDGE('',*,*,#99,.T.);
#150=ORIENTED_EDGE('',*,*,#111,.T.);
#151=ORIENTED_EDGE('',*,*,#108,.T.);
#152=ORIENTED_EDGE('',*,*,#105,.T.);
#153=ORIENTED_EDGE('',*,*,#102,.T.);
#154=PLANE('',#186);
#155=PLANE('',#187);
#156=PLANE('',#188);
#157=PLANE('',#189);
#158=PLANE('',#190);
#159=PLANE('',#194);
#160=PLANE('',#198);
#161=PLANE('',#199);
#162=ADVANCED_FACE('',(#22),#154,.T.);
#163=ADVANCED_FACE('',(#23),#155,.T.);
#164=ADVANCED_FACE('',(#24),#156,.T.);
#165=ADVANCED_FACE('',(#25),#157,.T.);
#166=ADVANCED_FACE('',(#26),#158,.T.);
#167=ADVANCED_FACE('',(#27),#20,.F.);
#168=ADVANCED_FACE('',(#28),#159,.T.);
#169=ADVANCED_FACE('',(#29),#21,.T.);
#170=ADVANCED_FACE('',(#30,#15),#160,.T.);
#171=ADVANCED_FACE('',(#31),#161,.F.);
#172=CLOSED_SHELL('',(#162,#163,#164,#165,#166,#167,#168,#169,#170,#171));
#173=DERIVED_UNIT_ELEMENT(#175,1.);
#174=DERIVED_UNIT_ELEMENT(#298,-3.);
#175=(
MASS_UNIT()
NAMED_UNIT(*)
SI_UNIT(.KILO.,.GRAM.)
);
#176=DERIVED_UNIT((#173,#174));
#177=MEASURE_REPRESENTATION_ITEM('density measure',
POSITIVE_RATIO_MEASURE(7850.),#176);
#178=PROPERTY_DEFINITION_REPRESENTATION(#183,#180);
#179=PROPERTY_DEFINITION_REPRESENTATION(#184,#181);
#180=REPRESENTATION('material name',(#182),#295);
#181=REPRESENTATION('density',(#177),#295);
#182=DESCRIPTIVE_REPRESENTATION_ITEM('Steel','Steel');
#183=PROPERTY_DEFINITION('material property','material name',#305);
#184=PROPERTY_DEFINITION('material property','density of part',#305);
#185=AXIS2_PLACEMENT_3D('',#247,#200,#201);
#186=AXIS2_PLACEMENT_3D('',#248,#202,#203);
#187=AXIS2_PLACEMENT_3D('',#255,#207,#208);
#188=AXIS2_PLACEMENT_3D('',#261,#212,#213);
#189=AXIS2_PLACEMENT_3D('',#265,#216,#217);
#190=AXIS2_PLACEMENT_3D('',#267,#219,#220);
#191=AXIS2_PLACEMENT_3D('',#276,#225,#226);
#192=AXIS2_PLACEMENT_3D('',#278,#227,#228);
#193=AXIS2_PLACEMENT_3D('',#280,#229,#230);
#194=AXIS2_PLACEMENT_3D('',#282,#232,#233);
#195=AXIS2_PLACEMENT_3D('',#288,#237,#238);
#196=AXIS2_PLACEMENT_3D('',#289,#239,#240);
#197=AXIS2_PLACEMENT_3D('',#290,#241,#242);
#198=AXIS2_PLACEMENT_3D('',#291,#243,#244);
#199=AXIS2_PLACEMENT_3D('',#292,#245,#246);
#200=DIRECTION('axis',(0.,0.,1.));
#201=DIRECTION('refdir',(1.,0.,0.));
#202=DIRECTION('center_axis',(0.,0.,1.));
#203=DIRECTION('ref_axis',(1.,0.,0.));
#204=DIRECTION('',(0.,-1.,0.));
#205=DIRECTION('',(0.866025403784439,0.5,0.));
#206=DIRECTION('',(-0.866025403784439,0.499999999999999,0.));
#207=DIRECTION('center_axis',(0.499999999999999,0.866025403784439,0.));
#208=DIRECTION('ref_axis',(-0.866025403784439,0.499999999999999,0.));
#209=DIRECTION('',(0.866025403784439,-0.499999999999999,0.));
#210=DIRECTION('',(0.,0.,1.));
#211=DIRECTION('',(0.,0.,1.));
#212=DIRECTION('center_axis',(0.5,-0.866025403784439,0.));
#213=DIRECTION('ref_axis',(0.866025403784439,0.5,0.));
#214=DIRECTION('',(-0.866025403784439,-0.5,0.));
#215=DIRECTION('',(0.,0.,1.));
#216=DIRECTION('center_axis',(-1.,0.,0.));
#217=DIRECTION('ref_axis',(0.,-1.,0.));
#218=DIRECTION('',(0.,1.,0.));
#219=DIRECTION('center_axis',(-0.342020143325684,0.939692620785903,0.));
#220=DIRECTION('ref_axis',(0.939692620785903,0.342020143325684,0.));
#221=DIRECTION('',(0.939692620785903,0.342020143325684,0.));
#222=DIRECTION('',(0.,0.,-1.));
#223=DIRECTION('',(0.939692620785903,0.342020143325684,0.));
#224=DIRECTION('',(0.,0.,-1.));
#225=DIRECTION('center_axis',(0.,0.,-1.));
#226=DIRECTION('ref_axis',(0.939692620785903,0.342020143325684,0.));
#227=DIRECTION('center_axis',(0.,0.,1.));
#228=DIRECTION('ref_axis',(-1.,0.,0.));
#229=DIRECTION('center_axis',(0.,0.,1.));
#230=DIRECTION('ref_axis',(-1.,0.,0.));
#231=DIRECTION('',(0.,0.,-1.));
#232=DIRECTION('center_axis',(0.342020143325684,-0.939692620785903,0.));
#233=DIRECTION('ref_axis',(-0.939692620785903,-0.342020143325684,0.));
#234=DIRECTION('',(-0.939692620785903,-0.342020143325684,0.));
#235=DIRECTION('',(-0.939692620785903,-0.342020143325684,0.));
#236=DIRECTION('',(0.,0.,-1.));
#237=DIRECTION('center_axis',(0.,0.,-1.));
#238=DIRECTION('ref_axis',(0.342020143325686,-0.939692620785902,0.));
#239=DIRECTION('center_axis',(0.,0.,1.));
#240=DIRECTION('ref_axis',(0.342020143325686,-0.939692620785902,0.));
#241=DIRECTION('center_axis',(0.,0.,-1.));
#242=DIRECTION('ref_axis',(0.342020143325686,-0.939692620785902,0.));
#243=DIRECTION('center_axis',(0.,0.,1.));
#244=DIRECTION('ref_axis',(-1.,0.,0.));
#245=DIRECTION('center_axis',(0.,0.,1.));
#246=DIRECTION('ref_axis',(-1.,0.,0.));
#247=CARTESIAN_POINT('',(0.,0.,0.));
#248=CARTESIAN_POINT('Origin',(-115.821316768663,55.2026867888293,7.91));
#249=CARTESIAN_POINT('',(-117.996316768663,57.7141604598043,7.91));
#250=CARTESIAN_POINT('',(-117.996316768663,52.6912131178543,7.91));
#251=CARTESIAN_POINT('',(-117.996316768663,57.7141604598043,7.91));
#252=CARTESIAN_POINT('',(-113.646316768663,55.2026867888293,7.91));
#253=CARTESIAN_POINT('',(-117.996316768663,52.6912131178543,7.91));
#254=CARTESIAN_POINT('',(-113.646316768663,55.2026867888293,7.91));
#255=CARTESIAN_POINT('Origin',(-113.646316768663,55.2026867888293,7.11));
#256=CARTESIAN_POINT('',(-117.996316768663,57.7141604598043,7.11));
#257=CARTESIAN_POINT('',(-113.646316768663,55.2026867888293,7.11));
#258=CARTESIAN_POINT('',(-115.215419658648,56.1086087647482,7.11));
#259=CARTESIAN_POINT('',(-117.996316768663,57.7141604598043,7.11));
#260=CARTESIAN_POINT('',(-113.646316768663,55.2026867888293,7.11));
#261=CARTESIAN_POINT('Origin',(-117.996316768663,52.6912131178543,7.11));
#262=CARTESIAN_POINT('',(-117.996316768663,52.6912131178543,7.11));
#263=CARTESIAN_POINT('',(-117.818573511919,52.7938332349823,7.11));
#264=CARTESIAN_POINT('',(-117.996316768663,52.6912131178543,7.11));
#265=CARTESIAN_POINT('Origin',(-117.996316768663,57.7141604598043,7.11));
#266=CARTESIAN_POINT('',(-117.996316768663,55.9640341394355,7.11));
#267=CARTESIAN_POINT('Origin',(-123.756609123971,56.3029771948056,7.11));
#268=CARTESIAN_POINT('',(-123.756609123971,56.3029771948056,7.11));
#269=CARTESIAN_POINT('',(-117.743387270303,58.4916109615799,7.11));
#270=CARTESIAN_POINT('',(-123.756609123971,56.3029771948056,7.11));
#271=CARTESIAN_POINT('',(-117.743387270303,58.4916109615799,5.51));
#272=CARTESIAN_POINT('',(-117.743387270303,58.4916109615799,7.11));
#273=CARTESIAN_POINT('',(-123.756609123971,56.3029771948056,5.51));
#274=CARTESIAN_POINT('',(-123.756609123971,56.3029771948056,5.51));
#275=CARTESIAN_POINT('',(-123.756609123971,56.3029771948056,7.11));
#276=CARTESIAN_POINT('Origin',(-126.546316768663,51.562984446167,7.11));
#277=CARTESIAN_POINT('',(-121.362468120691,49.7251288493043,7.11));
#278=CARTESIAN_POINT('Origin',(-126.546316768663,51.562984446167,7.11));
#279=CARTESIAN_POINT('',(-121.362468120691,49.7251288493043,5.51));
#280=CARTESIAN_POINT('Origin',(-126.546316768663,51.562984446167,5.51));
#281=CARTESIAN_POINT('',(-121.362468120691,49.7251288493043,7.11));
#282=CARTESIAN_POINT('Origin',(-115.349246267023,51.9137626160786,7.11));
#283=CARTESIAN_POINT('',(-115.349246267023,51.9137626160786,7.11));
#284=CARTESIAN_POINT('',(-115.349246267023,51.9137626160786,7.11));
#285=CARTESIAN_POINT('',(-115.349246267023,51.9137626160786,5.51));
#286=CARTESIAN_POINT('',(-115.349246267023,51.9137626160786,5.51));
#287=CARTESIAN_POINT('',(-115.349246267023,51.9137626160786,7.11));
#288=CARTESIAN_POINT('Origin',(-116.546316768663,55.2026867888292,7.11));
#289=CARTESIAN_POINT('Origin',(-116.546316768663,55.2026867888292,7.11));
#290=CARTESIAN_POINT('Origin',(-116.546316768663,55.2026867888292,5.51));
#291=CARTESIAN_POINT('Origin',(-118.401462946317,54.2139078190668,7.11));
#292=CARTESIAN_POINT('Origin',(-118.401462946317,54.2139078190668,5.51));
#293=UNCERTAINTY_MEASURE_WITH_UNIT(LENGTH_MEASURE(0.01),#297,
'DISTANCE_ACCURACY_VALUE',
'Maximum model space distance between geometric entities at asserted c
onnectivities');
#294=UNCERTAINTY_MEASURE_WITH_UNIT(LENGTH_MEASURE(0.01),#297,
'DISTANCE_ACCURACY_VALUE',
'Maximum model space distance between geometric entities at asserted c
onnectivities');
#295=(
GEOMETRIC_REPRESENTATION_CONTEXT(3)
GLOBAL_UNCERTAINTY_ASSIGNED_CONTEXT((#293))
GLOBAL_UNIT_ASSIGNED_CONTEXT((#297,#299,#300))
REPRESENTATION_CONTEXT('','3D')
);
#296=(
GEOMETRIC_REPRESENTATION_CONTEXT(3)
GLOBAL_UNCERTAINTY_ASSIGNED_CONTEXT((#294))
GLOBAL_UNIT_ASSIGNED_CONTEXT((#297,#299,#300))
REPRESENTATION_CONTEXT('','3D')
);
#297=(
LENGTH_UNIT()
NAMED_UNIT(*)
SI_UNIT(.MILLI.,.METRE.)
);
#298=(
LENGTH_UNIT()
NAMED_UNIT(*)
SI_UNIT($,.METRE.)
);
#299=(
NAMED_UNIT(*)
PLANE_ANGLE_UNIT()
SI_UNIT($,.RADIAN.)
);
#300=(
NAMED_UNIT(*)
SI_UNIT($,.STERADIAN.)
SOLID_ANGLE_UNIT()
);
#301=SHAPE_DEFINITION_REPRESENTATION(#302,#303);
#302=PRODUCT_DEFINITION_SHAPE('',$,#305);
#303=SHAPE_REPRESENTATION('',(#185),#295);
#304=PRODUCT_DEFINITION_CONTEXT('part definition',#309,'design');
#305=PRODUCT_DEFINITION('menu_label','menu_label',#306,#304);
#306=PRODUCT_DEFINITION_FORMATION('',$,#311);
#307=PRODUCT_RELATED_PRODUCT_CATEGORY('menu_label','menu_label',(#311));
#308=APPLICATION_PROTOCOL_DEFINITION('international standard',
'automotive_design',2009,#309);
#309=APPLICATION_CONTEXT(
'Core Data for Automotive Mechanical Design Process');
#310=PRODUCT_CONTEXT('part definition',#309,'mechanical');
#311=PRODUCT('menu_label','menu_label',$,(#310));
#312=PRESENTATION_STYLE_ASSIGNMENT((#313));
#313=SURFACE_STYLE_USAGE(.BOTH.,#314);
#314=SURFACE_SIDE_STYLE('',(#315));
#315=SURFACE_STYLE_FILL_AREA(#316);
#316=FILL_AREA_STYLE('Steel - Satin',(#317));
#317=FILL_AREA_STYLE_COLOUR('Steel - Satin',#318);
#318=COLOUR_RGB('Steel - Satin',0.627450980392157,0.627450980392157,0.627450980392157);
ENDSEC;
END-ISO-10303-21;
