ISO-10303-21;
HEADER;
/* Generated by software containing ST-Developer
 * from STEP Tools, Inc. (www.steptools.com) 
 */

FILE_DESCRIPTION(
/* description */ (''),
/* implementation_level */ '2;1');

FILE_NAME(
/* name */ 'select_label.step',
/* time_stamp */ '2026-07-08T10:59:27+03:00',
/* author */ (''),
/* organization */ (''),
/* preprocessor_version */ 'ST-DEVELOPER v20.1',
/* originating_system */ 'Autodesk Translation Framework v15.8.0.0',
/* authorisation */ '');

FILE_SCHEMA (('AUTOMOTIVE_DESIGN { 1 0 10303 214 3 1 1 }'));
ENDSEC;

DATA;
#10=MECHANICAL_DESIGN_GEOMETRIC_PRESENTATION_REPRESENTATION('',(#13),#329);
#11=SHAPE_REPRESENTATION_RELATIONSHIP('SRR','None',#336,#12);
#12=ADVANCED_BREP_SHAPE_REPRESENTATION('',(#14),#328);
#13=STYLED_ITEM('',(#345),#14);
#14=MANIFOLD_SOLID_BREP('menu_label',#193);
#15=FACE_BOUND('',#43,.T.);
#16=CIRCLE('',#214,5.50000000000001);
#17=CIRCLE('',#215,5.50000000000001);
#18=CIRCLE('',#218,3.5);
#19=CIRCLE('',#219,3.5);
#20=CYLINDRICAL_SURFACE('',#213,5.50000000000001);
#21=CYLINDRICAL_SURFACE('',#217,3.5);
#22=FACE_OUTER_BOUND('',#33,.T.);
#23=FACE_OUTER_BOUND('',#34,.T.);
#24=FACE_OUTER_BOUND('',#35,.T.);
#25=FACE_OUTER_BOUND('',#36,.T.);
#26=FACE_OUTER_BOUND('',#37,.T.);
#27=FACE_OUTER_BOUND('',#38,.T.);
#28=FACE_OUTER_BOUND('',#39,.T.);
#29=FACE_OUTER_BOUND('',#40,.T.);
#30=FACE_OUTER_BOUND('',#41,.T.);
#31=FACE_OUTER_BOUND('',#42,.T.);
#32=FACE_OUTER_BOUND('',#44,.T.);
#33=EDGE_LOOP('',(#125,#126,#127,#128));
#34=EDGE_LOOP('',(#129,#130,#131,#132));
#35=EDGE_LOOP('',(#133,#134,#135,#136));
#36=EDGE_LOOP('',(#137,#138,#139,#140));
#37=EDGE_LOOP('',(#141,#142,#143,#144));
#38=EDGE_LOOP('',(#145,#146,#147,#148));
#39=EDGE_LOOP('',(#149,#150,#151,#152));
#40=EDGE_LOOP('',(#153,#154,#155,#156));
#41=EDGE_LOOP('',(#157,#158,#159,#160));
#42=EDGE_LOOP('',(#161,#162,#163,#164));
#43=EDGE_LOOP('',(#165,#166,#167,#168));
#44=EDGE_LOOP('',(#169,#170,#171,#172));
#45=LINE('',#278,#65);
#46=LINE('',#280,#66);
#47=LINE('',#282,#67);
#48=LINE('',#283,#68);
#49=LINE('',#287,#69);
#50=LINE('',#288,#70);
#51=LINE('',#289,#71);
#52=LINE('',#292,#72);
#53=LINE('',#293,#73);
#54=LINE('',#296,#74);
#55=LINE('',#297,#75);
#56=LINE('',#299,#76);
#57=LINE('',#303,#77);
#58=LINE('',#305,#78);
#59=LINE('',#307,#79);
#60=LINE('',#308,#80);
#61=LINE('',#314,#81);
#62=LINE('',#317,#82);
#63=LINE('',#319,#83);
#64=LINE('',#320,#84);
#65=VECTOR('',#226,10.);
#66=VECTOR('',#227,10.);
#67=VECTOR('',#228,10.);
#68=VECTOR('',#229,10.);
#69=VECTOR('',#232,10.);
#70=VECTOR('',#233,10.);
#71=VECTOR('',#234,10.);
#72=VECTOR('',#237,10.);
#73=VECTOR('',#238,10.);
#74=VECTOR('',#241,10.);
#75=VECTOR('',#242,10.);
#76=VECTOR('',#245,10.);
#77=VECTOR('',#248,10.);
#78=VECTOR('',#249,10.);
#79=VECTOR('',#250,10.);
#80=VECTOR('',#251,10.);
#81=VECTOR('',#258,10.);
#82=VECTOR('',#261,10.);
#83=VECTOR('',#262,10.);
#84=VECTOR('',#263,10.);
#85=VERTEX_POINT('',#276);
#86=VERTEX_POINT('',#277);
#87=VERTEX_POINT('',#279);
#88=VERTEX_POINT('',#281);
#89=VERTEX_POINT('',#285);
#90=VERTEX_POINT('',#286);
#91=VERTEX_POINT('',#291);
#92=VERTEX_POINT('',#295);
#93=VERTEX_POINT('',#301);
#94=VERTEX_POINT('',#302);
#95=VERTEX_POINT('',#304);
#96=VERTEX_POINT('',#306);
#97=VERTEX_POINT('',#310);
#98=VERTEX_POINT('',#312);
#99=VERTEX_POINT('',#316);
#100=VERTEX_POINT('',#318);
#101=EDGE_CURVE('',#85,#86,#45,.T.);
#102=EDGE_CURVE('',#86,#87,#46,.T.);
#103=EDGE_CURVE('',#87,#88,#47,.T.);
#104=EDGE_CURVE('',#88,#85,#48,.T.);
#105=EDGE_CURVE('',#89,#90,#49,.T.);
#106=EDGE_CURVE('',#89,#85,#50,.T.);
#107=EDGE_CURVE('',#90,#88,#51,.T.);
#108=EDGE_CURVE('',#90,#91,#52,.T.);
#109=EDGE_CURVE('',#91,#87,#53,.T.);
#110=EDGE_CURVE('',#91,#92,#54,.T.);
#111=EDGE_CURVE('',#92,#86,#55,.T.);
#112=EDGE_CURVE('',#92,#89,#56,.T.);
#113=EDGE_CURVE('',#93,#94,#57,.T.);
#114=EDGE_CURVE('',#94,#95,#58,.T.);
#115=EDGE_CURVE('',#96,#95,#59,.T.);
#116=EDGE_CURVE('',#93,#96,#60,.T.);
#117=EDGE_CURVE('',#97,#93,#16,.T.);
#118=EDGE_CURVE('',#98,#96,#17,.T.);
#119=EDGE_CURVE('',#97,#98,#61,.T.);
#120=EDGE_CURVE('',#99,#97,#62,.T.);
#121=EDGE_CURVE('',#100,#98,#63,.T.);
#122=EDGE_CURVE('',#99,#100,#64,.T.);
#123=EDGE_CURVE('',#99,#94,#18,.T.);
#124=EDGE_CURVE('',#95,#100,#19,.T.);
#125=ORIENTED_EDGE('',*,*,#101,.T.);
#126=ORIENTED_EDGE('',*,*,#102,.T.);
#127=ORIENTED_EDGE('',*,*,#103,.T.);
#128=ORIENTED_EDGE('',*,*,#104,.T.);
#129=ORIENTED_EDGE('',*,*,#105,.F.);
#130=ORIENTED_EDGE('',*,*,#106,.T.);
#131=ORIENTED_EDGE('',*,*,#104,.F.);
#132=ORIENTED_EDGE('',*,*,#107,.F.);
#133=ORIENTED_EDGE('',*,*,#108,.F.);
#134=ORIENTED_EDGE('',*,*,#107,.T.);
#135=ORIENTED_EDGE('',*,*,#103,.F.);
#136=ORIENTED_EDGE('',*,*,#109,.F.);
#137=ORIENTED_EDGE('',*,*,#110,.F.);
#138=ORIENTED_EDGE('',*,*,#109,.T.);
#139=ORIENTED_EDGE('',*,*,#102,.F.);
#140=ORIENTED_EDGE('',*,*,#111,.F.);
#141=ORIENTED_EDGE('',*,*,#112,.F.);
#142=ORIENTED_EDGE('',*,*,#111,.T.);
#143=ORIENTED_EDGE('',*,*,#101,.F.);
#144=ORIENTED_EDGE('',*,*,#106,.F.);
#145=ORIENTED_EDGE('',*,*,#113,.T.);
#146=ORIENTED_EDGE('',*,*,#114,.T.);
#147=ORIENTED_EDGE('',*,*,#115,.F.);
#148=ORIENTED_EDGE('',*,*,#116,.F.);
#149=ORIENTED_EDGE('',*,*,#117,.T.);
#150=ORIENTED_EDGE('',*,*,#116,.T.);
#151=ORIENTED_EDGE('',*,*,#118,.F.);
#152=ORIENTED_EDGE('',*,*,#119,.F.);
#153=ORIENTED_EDGE('',*,*,#120,.T.);
#154=ORIENTED_EDGE('',*,*,#119,.T.);
#155=ORIENTED_EDGE('',*,*,#121,.F.);
#156=ORIENTED_EDGE('',*,*,#122,.F.);
#157=ORIENTED_EDGE('',*,*,#123,.F.);
#158=ORIENTED_EDGE('',*,*,#122,.T.);
#159=ORIENTED_EDGE('',*,*,#124,.F.);
#160=ORIENTED_EDGE('',*,*,#114,.F.);
#161=ORIENTED_EDGE('',*,*,#123,.T.);
#162=ORIENTED_EDGE('',*,*,#113,.F.);
#163=ORIENTED_EDGE('',*,*,#117,.F.);
#164=ORIENTED_EDGE('',*,*,#120,.F.);
#165=ORIENTED_EDGE('',*,*,#105,.T.);
#166=ORIENTED_EDGE('',*,*,#108,.T.);
#167=ORIENTED_EDGE('',*,*,#110,.T.);
#168=ORIENTED_EDGE('',*,*,#112,.T.);
#169=ORIENTED_EDGE('',*,*,#124,.T.);
#170=ORIENTED_EDGE('',*,*,#121,.T.);
#171=ORIENTED_EDGE('',*,*,#118,.T.);
#172=ORIENTED_EDGE('',*,*,#115,.T.);
#173=PLANE('',#207);
#174=PLANE('',#208);
#175=PLANE('',#209);
#176=PLANE('',#210);
#177=PLANE('',#211);
#178=PLANE('',#212);
#179=PLANE('',#216);
#180=PLANE('',#220);
#181=PLANE('',#221);
#182=ADVANCED_FACE('',(#22),#173,.T.);
#183=ADVANCED_FACE('',(#23),#174,.T.);
#184=ADVANCED_FACE('',(#24),#175,.T.);
#185=ADVANCED_FACE('',(#25),#176,.T.);
#186=ADVANCED_FACE('',(#26),#177,.T.);
#187=ADVANCED_FACE('',(#27),#178,.T.);
#188=ADVANCED_FACE('',(#28),#20,.F.);
#189=ADVANCED_FACE('',(#29),#179,.T.);
#190=ADVANCED_FACE('',(#30),#21,.T.);
#191=ADVANCED_FACE('',(#31,#15),#180,.T.);
#192=ADVANCED_FACE('',(#32),#181,.F.);
#193=CLOSED_SHELL('',(#182,#183,#184,#185,#186,#187,#188,#189,#190,#191,
#192));
#194=DERIVED_UNIT_ELEMENT(#196,1.);
#195=DERIVED_UNIT_ELEMENT(#331,-3.);
#196=(
MASS_UNIT()
NAMED_UNIT(*)
SI_UNIT(.KILO.,.GRAM.)
);
#197=DERIVED_UNIT((#194,#195));
#198=MEASURE_REPRESENTATION_ITEM('density measure',
POSITIVE_RATIO_MEASURE(7850.),#197);
#199=PROPERTY_DEFINITION_REPRESENTATION(#204,#201);
#200=PROPERTY_DEFINITION_REPRESENTATION(#205,#202);
#201=REPRESENTATION('material name',(#203),#328);
#202=REPRESENTATION('density',(#198),#328);
#203=DESCRIPTIVE_REPRESENTATION_ITEM('Steel','Steel');
#204=PROPERTY_DEFINITION('material property','material name',#338);
#205=PROPERTY_DEFINITION('material property','density of part',#338);
#206=AXIS2_PLACEMENT_3D('',#274,#222,#223);
#207=AXIS2_PLACEMENT_3D('',#275,#224,#225);
#208=AXIS2_PLACEMENT_3D('',#284,#230,#231);
#209=AXIS2_PLACEMENT_3D('',#290,#235,#236);
#210=AXIS2_PLACEMENT_3D('',#294,#239,#240);
#211=AXIS2_PLACEMENT_3D('',#298,#243,#244);
#212=AXIS2_PLACEMENT_3D('',#300,#246,#247);
#213=AXIS2_PLACEMENT_3D('',#309,#252,#253);
#214=AXIS2_PLACEMENT_3D('',#311,#254,#255);
#215=AXIS2_PLACEMENT_3D('',#313,#256,#257);
#216=AXIS2_PLACEMENT_3D('',#315,#259,#260);
#217=AXIS2_PLACEMENT_3D('',#321,#264,#265);
#218=AXIS2_PLACEMENT_3D('',#322,#266,#267);
#219=AXIS2_PLACEMENT_3D('',#323,#268,#269);
#220=AXIS2_PLACEMENT_3D('',#324,#270,#271);
#221=AXIS2_PLACEMENT_3D('',#325,#272,#273);
#222=DIRECTION('axis',(0.,0.,1.));
#223=DIRECTION('refdir',(1.,0.,0.));
#224=DIRECTION('center_axis',(0.,0.,1.));
#225=DIRECTION('ref_axis',(1.,0.,0.));
#226=DIRECTION('',(-1.,0.,0.));
#227=DIRECTION('',(0.,-1.,0.));
#228=DIRECTION('',(1.,0.,0.));
#229=DIRECTION('',(3.92523114670944E-15,1.,0.));
#230=DIRECTION('center_axis',(1.,-3.92523114670944E-15,0.));
#231=DIRECTION('ref_axis',(3.92523114670944E-15,1.,0.));
#232=DIRECTION('',(-3.92523114670944E-15,-1.,0.));
#233=DIRECTION('',(0.,0.,1.));
#234=DIRECTION('',(0.,0.,1.));
#235=DIRECTION('center_axis',(0.,-1.,0.));
#236=DIRECTION('ref_axis',(1.,0.,0.));
#237=DIRECTION('',(-1.,0.,0.));
#238=DIRECTION('',(0.,0.,1.));
#239=DIRECTION('center_axis',(-1.,0.,0.));
#240=DIRECTION('ref_axis',(0.,-1.,0.));
#241=DIRECTION('',(0.,1.,0.));
#242=DIRECTION('',(0.,0.,1.));
#243=DIRECTION('center_axis',(0.,1.,0.));
#244=DIRECTION('ref_axis',(-1.,0.,0.));
#245=DIRECTION('',(1.,0.,0.));
#246=DIRECTION('center_axis',(-0.342020143325685,0.939692620785903,0.));
#247=DIRECTION('ref_axis',(0.939692620785902,0.342020143325685,0.));
#248=DIRECTION('',(0.939692620785902,0.342020143325685,0.));
#249=DIRECTION('',(0.,0.,-1.));
#250=DIRECTION('',(0.939692620785902,0.342020143325685,0.));
#251=DIRECTION('',(0.,0.,-1.));
#252=DIRECTION('center_axis',(0.,0.,-1.));
#253=DIRECTION('ref_axis',(0.9396926207859,0.342020143325691,0.));
#254=DIRECTION('center_axis',(0.,0.,1.));
#255=DIRECTION('ref_axis',(-1.,0.,0.));
#256=DIRECTION('center_axis',(0.,0.,1.));
#257=DIRECTION('ref_axis',(-1.,0.,0.));
#258=DIRECTION('',(0.,0.,-1.));
#259=DIRECTION('center_axis',(0.342020143325686,-0.939692620785902,0.));
#260=DIRECTION('ref_axis',(-0.939692620785902,-0.342020143325686,0.));
#261=DIRECTION('',(-0.939692620785902,-0.342020143325686,0.));
#262=DIRECTION('',(-0.939692620785902,-0.342020143325686,0.));
#263=DIRECTION('',(0.,0.,-1.));
#264=DIRECTION('center_axis',(0.,0.,-1.));
#265=DIRECTION('ref_axis',(0.342020143325687,-0.939692620785902,0.));
#266=DIRECTION('center_axis',(0.,0.,1.));
#267=DIRECTION('ref_axis',(0.342020143325687,-0.939692620785902,0.));
#268=DIRECTION('center_axis',(0.,0.,-1.));
#269=DIRECTION('ref_axis',(0.342020143325687,-0.939692620785902,0.));
#270=DIRECTION('center_axis',(0.,0.,1.));
#271=DIRECTION('ref_axis',(-1.,0.,0.));
#272=DIRECTION('center_axis',(0.,0.,1.));
#273=DIRECTION('ref_axis',(-1.,0.,0.));
#274=CARTESIAN_POINT('',(0.,0.,0.));
#275=CARTESIAN_POINT('Origin',(-116.546316768663,35.2026829741308,7.91));
#276=CARTESIAN_POINT('',(-114.283575068866,37.4654246739278,7.91));
#277=CARTESIAN_POINT('',(-118.80905846846,37.4654246739278,7.91));
#278=CARTESIAN_POINT('',(-118.80905846846,37.4654246739278,7.91));
#279=CARTESIAN_POINT('',(-118.80905846846,32.9399412743339,7.91));
#280=CARTESIAN_POINT('',(-118.80905846846,32.9399412743339,7.91));
#281=CARTESIAN_POINT('',(-114.283575068866,32.9399412743339,7.91));
#282=CARTESIAN_POINT('',(-114.283575068866,32.9399412743339,7.91));
#283=CARTESIAN_POINT('',(-114.283575068866,37.4654246739278,7.91));
#284=CARTESIAN_POINT('Origin',(-114.283575068866,32.9399412743339,7.11));
#285=CARTESIAN_POINT('',(-114.283575068866,37.4654246739278,7.11));
#286=CARTESIAN_POINT('',(-114.283575068866,32.9399412743339,7.11));
#287=CARTESIAN_POINT('',(-114.283575068866,33.5769226393511,7.11));
#288=CARTESIAN_POINT('',(-114.283575068866,37.4654246739278,7.11));
#289=CARTESIAN_POINT('',(-114.283575068866,32.9399412743339,7.11));
#290=CARTESIAN_POINT('Origin',(-118.80905846846,32.9399412743339,7.11));
#291=CARTESIAN_POINT('',(-118.80905846846,32.9399412743339,7.11));
#292=CARTESIAN_POINT('',(-118.605260707388,32.9399412743339,7.11));
#293=CARTESIAN_POINT('',(-118.80905846846,32.9399412743339,7.11));
#294=CARTESIAN_POINT('Origin',(-118.80905846846,37.4654246739278,7.11));
#295=CARTESIAN_POINT('',(-118.80905846846,37.4654246739278,7.11));
#296=CARTESIAN_POINT('',(-118.80905846846,35.8396643391481,7.11));
#297=CARTESIAN_POINT('',(-118.80905846846,37.4654246739278,7.11));
#298=CARTESIAN_POINT('Origin',(-114.283575068866,37.4654246739278,7.11));
#299=CARTESIAN_POINT('',(-116.342519007592,37.4654246739278,7.11));
#300=CARTESIAN_POINT('Origin',(-123.756609123971,36.3029733801072,7.11));
#301=CARTESIAN_POINT('',(-123.756609123971,36.3029733801072,7.11));
#302=CARTESIAN_POINT('',(-117.743387270303,38.4916071468815,7.11));
#303=CARTESIAN_POINT('',(-123.756609123971,36.3029733801072,7.11));
#304=CARTESIAN_POINT('',(-117.743387270303,38.4916071468815,5.51));
#305=CARTESIAN_POINT('',(-117.743387270303,38.4916071468815,7.11));
#306=CARTESIAN_POINT('',(-123.756609123971,36.3029733801072,5.51));
#307=CARTESIAN_POINT('',(-123.756609123971,36.3029733801072,5.51));
#308=CARTESIAN_POINT('',(-123.756609123971,36.3029733801072,7.11));
#309=CARTESIAN_POINT('Origin',(-126.546316768663,31.5629806314686,7.11));
#310=CARTESIAN_POINT('',(-121.362468120691,29.7251250346059,7.11));
#311=CARTESIAN_POINT('Origin',(-126.546316768663,31.5629806314686,7.11));
#312=CARTESIAN_POINT('',(-121.362468120691,29.7251250346059,5.51));
#313=CARTESIAN_POINT('Origin',(-126.546316768663,31.5629806314686,5.51));
#314=CARTESIAN_POINT('',(-121.362468120691,29.7251250346059,7.11));
#315=CARTESIAN_POINT('Origin',(-115.349246267023,31.9137588013802,7.11));
#316=CARTESIAN_POINT('',(-115.349246267023,31.9137588013802,7.11));
#317=CARTESIAN_POINT('',(-115.349246267023,31.9137588013802,7.11));
#318=CARTESIAN_POINT('',(-115.349246267023,31.9137588013802,5.51));
#319=CARTESIAN_POINT('',(-115.349246267023,31.9137588013802,5.51));
#320=CARTESIAN_POINT('',(-115.349246267023,31.9137588013802,7.11));
#321=CARTESIAN_POINT('Origin',(-116.546316768663,35.2026829741308,7.11));
#322=CARTESIAN_POINT('Origin',(-116.546316768663,35.2026829741308,7.11));
#323=CARTESIAN_POINT('Origin',(-116.546316768663,35.2026829741308,5.51));
#324=CARTESIAN_POINT('Origin',(-118.401462946317,34.2139040043684,7.11));
#325=CARTESIAN_POINT('Origin',(-118.401462946317,34.2139040043684,5.51));
#326=UNCERTAINTY_MEASURE_WITH_UNIT(LENGTH_MEASURE(0.01),#330,
'DISTANCE_ACCURACY_VALUE',
'Maximum model space distance between geometric entities at asserted c
onnectivities');
#327=UNCERTAINTY_MEASURE_WITH_UNIT(LENGTH_MEASURE(0.01),#330,
'DISTANCE_ACCURACY_VALUE',
'Maximum model space distance between geometric entities at asserted c
onnectivities');
#328=(
GEOMETRIC_REPRESENTATION_CONTEXT(3)
GLOBAL_UNCERTAINTY_ASSIGNED_CONTEXT((#326))
GLOBAL_UNIT_ASSIGNED_CONTEXT((#330,#332,#333))
REPRESENTATION_CONTEXT('','3D')
);
#329=(
GEOMETRIC_REPRESENTATION_CONTEXT(3)
GLOBAL_UNCERTAINTY_ASSIGNED_CONTEXT((#327))
GLOBAL_UNIT_ASSIGNED_CONTEXT((#330,#332,#333))
REPRESENTATION_CONTEXT('','3D')
);
#330=(
LENGTH_UNIT()
NAMED_UNIT(*)
SI_UNIT(.MILLI.,.METRE.)
);
#331=(
LENGTH_UNIT()
NAMED_UNIT(*)
SI_UNIT($,.METRE.)
);
#332=(
NAMED_UNIT(*)
PLANE_ANGLE_UNIT()
SI_UNIT($,.RADIAN.)
);
#333=(
NAMED_UNIT(*)
SI_UNIT($,.STERADIAN.)
SOLID_ANGLE_UNIT()
);
#334=SHAPE_DEFINITION_REPRESENTATION(#335,#336);
#335=PRODUCT_DEFINITION_SHAPE('',$,#338);
#336=SHAPE_REPRESENTATION('',(#206),#328);
#337=PRODUCT_DEFINITION_CONTEXT('part definition',#342,'design');
#338=PRODUCT_DEFINITION('select_label','select_label',#339,#337);
#339=PRODUCT_DEFINITION_FORMATION('',$,#344);
#340=PRODUCT_RELATED_PRODUCT_CATEGORY('select_label','select_label',(#344));
#341=APPLICATION_PROTOCOL_DEFINITION('international standard',
'automotive_design',2009,#342);
#342=APPLICATION_CONTEXT(
'Core Data for Automotive Mechanical Design Process');
#343=PRODUCT_CONTEXT('part definition',#342,'mechanical');
#344=PRODUCT('select_label','select_label',$,(#343));
#345=PRESENTATION_STYLE_ASSIGNMENT((#346));
#346=SURFACE_STYLE_USAGE(.BOTH.,#347);
#347=SURFACE_SIDE_STYLE('',(#348));
#348=SURFACE_STYLE_FILL_AREA(#349);
#349=FILL_AREA_STYLE('Steel - Satin',(#350));
#350=FILL_AREA_STYLE_COLOUR('Steel - Satin',#351);
#351=COLOUR_RGB('Steel - Satin',0.627450980392157,0.627450980392157,0.627450980392157);
ENDSEC;
END-ISO-10303-21;
