ISO-10303-21;
HEADER;
/* Generated by software containing ST-Developer
 * from STEP Tools, Inc. (www.steptools.com) 
 */

FILE_DESCRIPTION(
/* description */ (''),
/* implementation_level */ '2;1');

FILE_NAME(
/* name */ 'x_label.step',
/* time_stamp */ '2026-07-08T10:56:09+03:00',
/* author */ (''),
/* organization */ (''),
/* preprocessor_version */ 'ST-DEVELOPER v20.1',
/* originating_system */ 'Autodesk Translation Framework v15.8.0.0',
/* authorisation */ '');

FILE_SCHEMA (('AUTOMOTIVE_DESIGN { 1 0 10303 214 3 1 1 }'));
ENDSEC;

DATA;
#10=MECHANICAL_DESIGN_GEOMETRIC_PRESENTATION_REPRESENTATION('',(#13),#593);
#11=SHAPE_REPRESENTATION_RELATIONSHIP('SRR','None',#600,#12);
#12=ADVANCED_BREP_SHAPE_REPRESENTATION('',(#14),#592);
#13=STYLED_ITEM('',(#609),#14);
#14=MANIFOLD_SOLID_BREP('x_label',#361);
#15=FACE_BOUND('',#59,.T.);
#16=CIRCLE('',#390,5.75000000000001);
#17=CIRCLE('',#391,5.75000000000001);
#18=CIRCLE('',#394,3.50000000000002);
#19=CIRCLE('',#395,3.50000000000002);
#20=CYLINDRICAL_SURFACE('',#389,5.75000000000001);
#21=CYLINDRICAL_SURFACE('',#393,3.50000000000002);
#22=FACE_OUTER_BOUND('',#41,.T.);
#23=FACE_OUTER_BOUND('',#42,.T.);
#24=FACE_OUTER_BOUND('',#43,.T.);
#25=FACE_OUTER_BOUND('',#44,.T.);
#26=FACE_OUTER_BOUND('',#45,.T.);
#27=FACE_OUTER_BOUND('',#46,.T.);
#28=FACE_OUTER_BOUND('',#47,.T.);
#29=FACE_OUTER_BOUND('',#48,.T.);
#30=FACE_OUTER_BOUND('',#49,.T.);
#31=FACE_OUTER_BOUND('',#50,.T.);
#32=FACE_OUTER_BOUND('',#51,.T.);
#33=FACE_OUTER_BOUND('',#52,.T.);
#34=FACE_OUTER_BOUND('',#53,.T.);
#35=FACE_OUTER_BOUND('',#54,.T.);
#36=FACE_OUTER_BOUND('',#55,.T.);
#37=FACE_OUTER_BOUND('',#56,.T.);
#38=FACE_OUTER_BOUND('',#57,.T.);
#39=FACE_OUTER_BOUND('',#58,.T.);
#40=FACE_OUTER_BOUND('',#60,.T.);
#41=EDGE_LOOP('',(#229,#230,#231,#232,#233,#234,#235,#236,#237,#238,#239,
#240));
#42=EDGE_LOOP('',(#241,#242,#243,#244));
#43=EDGE_LOOP('',(#245,#246,#247,#248));
#44=EDGE_LOOP('',(#249,#250,#251,#252));
#45=EDGE_LOOP('',(#253,#254,#255,#256));
#46=EDGE_LOOP('',(#257,#258,#259,#260));
#47=EDGE_LOOP('',(#261,#262,#263,#264));
#48=EDGE_LOOP('',(#265,#266,#267,#268));
#49=EDGE_LOOP('',(#269,#270,#271,#272));
#50=EDGE_LOOP('',(#273,#274,#275,#276));
#51=EDGE_LOOP('',(#277,#278,#279,#280));
#52=EDGE_LOOP('',(#281,#282,#283,#284));
#53=EDGE_LOOP('',(#285,#286,#287,#288));
#54=EDGE_LOOP('',(#289,#290,#291,#292));
#55=EDGE_LOOP('',(#293,#294,#295,#296));
#56=EDGE_LOOP('',(#297,#298,#299,#300));
#57=EDGE_LOOP('',(#301,#302,#303,#304));
#58=EDGE_LOOP('',(#305,#306,#307,#308));
#59=EDGE_LOOP('',(#309,#310,#311,#312,#313,#314,#315,#316,#317,#318,#319,
#320));
#60=EDGE_LOOP('',(#321,#322,#323,#324));
#61=LINE('',#494,#105);
#62=LINE('',#496,#106);
#63=LINE('',#498,#107);
#64=LINE('',#500,#108);
#65=LINE('',#502,#109);
#66=LINE('',#504,#110);
#67=LINE('',#506,#111);
#68=LINE('',#508,#112);
#69=LINE('',#510,#113);
#70=LINE('',#512,#114);
#71=LINE('',#514,#115);
#72=LINE('',#515,#116);
#73=LINE('',#519,#117);
#74=LINE('',#520,#118);
#75=LINE('',#521,#119);
#76=LINE('',#524,#120);
#77=LINE('',#525,#121);
#78=LINE('',#528,#122);
#79=LINE('',#529,#123);
#80=LINE('',#532,#124);
#81=LINE('',#533,#125);
#82=LINE('',#536,#126);
#83=LINE('',#537,#127);
#84=LINE('',#540,#128);
#85=LINE('',#541,#129);
#86=LINE('',#544,#130);
#87=LINE('',#545,#131);
#88=LINE('',#548,#132);
#89=LINE('',#549,#133);
#90=LINE('',#552,#134);
#91=LINE('',#553,#135);
#92=LINE('',#556,#136);
#93=LINE('',#557,#137);
#94=LINE('',#560,#138);
#95=LINE('',#561,#139);
#96=LINE('',#563,#140);
#97=LINE('',#567,#141);
#98=LINE('',#569,#142);
#99=LINE('',#571,#143);
#100=LINE('',#572,#144);
#101=LINE('',#578,#145);
#102=LINE('',#581,#146);
#103=LINE('',#583,#147);
#104=LINE('',#584,#148);
#105=VECTOR('',#402,10.);
#106=VECTOR('',#403,10.);
#107=VECTOR('',#404,10.);
#108=VECTOR('',#405,10.);
#109=VECTOR('',#406,10.);
#110=VECTOR('',#407,10.);
#111=VECTOR('',#408,10.);
#112=VECTOR('',#409,10.);
#113=VECTOR('',#410,10.);
#114=VECTOR('',#411,10.);
#115=VECTOR('',#412,10.);
#116=VECTOR('',#413,10.);
#117=VECTOR('',#416,10.);
#118=VECTOR('',#417,10.);
#119=VECTOR('',#418,10.);
#120=VECTOR('',#421,10.);
#121=VECTOR('',#422,10.);
#122=VECTOR('',#425,10.);
#123=VECTOR('',#426,10.);
#124=VECTOR('',#429,10.);
#125=VECTOR('',#430,10.);
#126=VECTOR('',#433,10.);
#127=VECTOR('',#434,10.);
#128=VECTOR('',#437,10.);
#129=VECTOR('',#438,10.);
#130=VECTOR('',#441,10.);
#131=VECTOR('',#442,10.);
#132=VECTOR('',#445,10.);
#133=VECTOR('',#446,10.);
#134=VECTOR('',#449,10.);
#135=VECTOR('',#450,10.);
#136=VECTOR('',#453,10.);
#137=VECTOR('',#454,10.);
#138=VECTOR('',#457,10.);
#139=VECTOR('',#458,10.);
#140=VECTOR('',#461,10.);
#141=VECTOR('',#464,10.);
#142=VECTOR('',#465,10.);
#143=VECTOR('',#466,10.);
#144=VECTOR('',#467,10.);
#145=VECTOR('',#474,10.);
#146=VECTOR('',#477,10.);
#147=VECTOR('',#478,10.);
#148=VECTOR('',#479,10.);
#149=VERTEX_POINT('',#492);
#150=VERTEX_POINT('',#493);
#151=VERTEX_POINT('',#495);
#152=VERTEX_POINT('',#497);
#153=VERTEX_POINT('',#499);
#154=VERTEX_POINT('',#501);
#155=VERTEX_POINT('',#503);
#156=VERTEX_POINT('',#505);
#157=VERTEX_POINT('',#507);
#158=VERTEX_POINT('',#509);
#159=VERTEX_POINT('',#511);
#160=VERTEX_POINT('',#513);
#161=VERTEX_POINT('',#517);
#162=VERTEX_POINT('',#518);
#163=VERTEX_POINT('',#523);
#164=VERTEX_POINT('',#527);
#165=VERTEX_POINT('',#531);
#166=VERTEX_POINT('',#535);
#167=VERTEX_POINT('',#539);
#168=VERTEX_POINT('',#543);
#169=VERTEX_POINT('',#547);
#170=VERTEX_POINT('',#551);
#171=VERTEX_POINT('',#555);
#172=VERTEX_POINT('',#559);
#173=VERTEX_POINT('',#565);
#174=VERTEX_POINT('',#566);
#175=VERTEX_POINT('',#568);
#176=VERTEX_POINT('',#570);
#177=VERTEX_POINT('',#574);
#178=VERTEX_POINT('',#576);
#179=VERTEX_POINT('',#580);
#180=VERTEX_POINT('',#582);
#181=EDGE_CURVE('',#149,#150,#61,.T.);
#182=EDGE_CURVE('',#150,#151,#62,.T.);
#183=EDGE_CURVE('',#151,#152,#63,.T.);
#184=EDGE_CURVE('',#152,#153,#64,.T.);
#185=EDGE_CURVE('',#153,#154,#65,.T.);
#186=EDGE_CURVE('',#154,#155,#66,.T.);
#187=EDGE_CURVE('',#155,#156,#67,.T.);
#188=EDGE_CURVE('',#156,#157,#68,.T.);
#189=EDGE_CURVE('',#157,#158,#69,.T.);
#190=EDGE_CURVE('',#158,#159,#70,.T.);
#191=EDGE_CURVE('',#159,#160,#71,.T.);
#192=EDGE_CURVE('',#160,#149,#72,.T.);
#193=EDGE_CURVE('',#161,#162,#73,.T.);
#194=EDGE_CURVE('',#161,#149,#74,.T.);
#195=EDGE_CURVE('',#162,#160,#75,.T.);
#196=EDGE_CURVE('',#162,#163,#76,.T.);
#197=EDGE_CURVE('',#163,#159,#77,.T.);
#198=EDGE_CURVE('',#163,#164,#78,.T.);
#199=EDGE_CURVE('',#164,#158,#79,.T.);
#200=EDGE_CURVE('',#164,#165,#80,.T.);
#201=EDGE_CURVE('',#165,#157,#81,.T.);
#202=EDGE_CURVE('',#165,#166,#82,.T.);
#203=EDGE_CURVE('',#166,#156,#83,.T.);
#204=EDGE_CURVE('',#166,#167,#84,.T.);
#205=EDGE_CURVE('',#167,#155,#85,.T.);
#206=EDGE_CURVE('',#167,#168,#86,.T.);
#207=EDGE_CURVE('',#168,#154,#87,.T.);
#208=EDGE_CURVE('',#168,#169,#88,.T.);
#209=EDGE_CURVE('',#169,#153,#89,.T.);
#210=EDGE_CURVE('',#169,#170,#90,.T.);
#211=EDGE_CURVE('',#170,#152,#91,.T.);
#212=EDGE_CURVE('',#170,#171,#92,.T.);
#213=EDGE_CURVE('',#171,#151,#93,.T.);
#214=EDGE_CURVE('',#171,#172,#94,.T.);
#215=EDGE_CURVE('',#172,#150,#95,.T.);
#216=EDGE_CURVE('',#172,#161,#96,.T.);
#217=EDGE_CURVE('',#173,#174,#97,.T.);
#218=EDGE_CURVE('',#174,#175,#98,.T.);
#219=EDGE_CURVE('',#176,#175,#99,.T.);
#220=EDGE_CURVE('',#173,#176,#100,.T.);
#221=EDGE_CURVE('',#177,#173,#16,.T.);
#222=EDGE_CURVE('',#178,#176,#17,.T.);
#223=EDGE_CURVE('',#177,#178,#101,.F.);
#224=EDGE_CURVE('',#179,#177,#102,.T.);
#225=EDGE_CURVE('',#180,#178,#103,.T.);
#226=EDGE_CURVE('',#179,#180,#104,.T.);
#227=EDGE_CURVE('',#179,#174,#18,.T.);
#228=EDGE_CURVE('',#175,#180,#19,.T.);
#229=ORIENTED_EDGE('',*,*,#181,.T.);
#230=ORIENTED_EDGE('',*,*,#182,.T.);
#231=ORIENTED_EDGE('',*,*,#183,.T.);
#232=ORIENTED_EDGE('',*,*,#184,.T.);
#233=ORIENTED_EDGE('',*,*,#185,.T.);
#234=ORIENTED_EDGE('',*,*,#186,.T.);
#235=ORIENTED_EDGE('',*,*,#187,.T.);
#236=ORIENTED_EDGE('',*,*,#188,.T.);
#237=ORIENTED_EDGE('',*,*,#189,.T.);
#238=ORIENTED_EDGE('',*,*,#190,.T.);
#239=ORIENTED_EDGE('',*,*,#191,.T.);
#240=ORIENTED_EDGE('',*,*,#192,.T.);
#241=ORIENTED_EDGE('',*,*,#193,.F.);
#242=ORIENTED_EDGE('',*,*,#194,.T.);
#243=ORIENTED_EDGE('',*,*,#192,.F.);
#244=ORIENTED_EDGE('',*,*,#195,.F.);
#245=ORIENTED_EDGE('',*,*,#196,.F.);
#246=ORIENTED_EDGE('',*,*,#195,.T.);
#247=ORIENTED_EDGE('',*,*,#191,.F.);
#248=ORIENTED_EDGE('',*,*,#197,.F.);
#249=ORIENTED_EDGE('',*,*,#198,.F.);
#250=ORIENTED_EDGE('',*,*,#197,.T.);
#251=ORIENTED_EDGE('',*,*,#190,.F.);
#252=ORIENTED_EDGE('',*,*,#199,.F.);
#253=ORIENTED_EDGE('',*,*,#200,.F.);
#254=ORIENTED_EDGE('',*,*,#199,.T.);
#255=ORIENTED_EDGE('',*,*,#189,.F.);
#256=ORIENTED_EDGE('',*,*,#201,.F.);
#257=ORIENTED_EDGE('',*,*,#202,.F.);
#258=ORIENTED_EDGE('',*,*,#201,.T.);
#259=ORIENTED_EDGE('',*,*,#188,.F.);
#260=ORIENTED_EDGE('',*,*,#203,.F.);
#261=ORIENTED_EDGE('',*,*,#204,.F.);
#262=ORIENTED_EDGE('',*,*,#203,.T.);
#263=ORIENTED_EDGE('',*,*,#187,.F.);
#264=ORIENTED_EDGE('',*,*,#205,.F.);
#265=ORIENTED_EDGE('',*,*,#206,.F.);
#266=ORIENTED_EDGE('',*,*,#205,.T.);
#267=ORIENTED_EDGE('',*,*,#186,.F.);
#268=ORIENTED_EDGE('',*,*,#207,.F.);
#269=ORIENTED_EDGE('',*,*,#208,.F.);
#270=ORIENTED_EDGE('',*,*,#207,.T.);
#271=ORIENTED_EDGE('',*,*,#185,.F.);
#272=ORIENTED_EDGE('',*,*,#209,.F.);
#273=ORIENTED_EDGE('',*,*,#210,.F.);
#274=ORIENTED_EDGE('',*,*,#209,.T.);
#275=ORIENTED_EDGE('',*,*,#184,.F.);
#276=ORIENTED_EDGE('',*,*,#211,.F.);
#277=ORIENTED_EDGE('',*,*,#212,.F.);
#278=ORIENTED_EDGE('',*,*,#211,.T.);
#279=ORIENTED_EDGE('',*,*,#183,.F.);
#280=ORIENTED_EDGE('',*,*,#213,.F.);
#281=ORIENTED_EDGE('',*,*,#214,.F.);
#282=ORIENTED_EDGE('',*,*,#213,.T.);
#283=ORIENTED_EDGE('',*,*,#182,.F.);
#284=ORIENTED_EDGE('',*,*,#215,.F.);
#285=ORIENTED_EDGE('',*,*,#216,.F.);
#286=ORIENTED_EDGE('',*,*,#215,.T.);
#287=ORIENTED_EDGE('',*,*,#181,.F.);
#288=ORIENTED_EDGE('',*,*,#194,.F.);
#289=ORIENTED_EDGE('',*,*,#217,.T.);
#290=ORIENTED_EDGE('',*,*,#218,.T.);
#291=ORIENTED_EDGE('',*,*,#219,.F.);
#292=ORIENTED_EDGE('',*,*,#220,.F.);
#293=ORIENTED_EDGE('',*,*,#221,.T.);
#294=ORIENTED_EDGE('',*,*,#220,.T.);
#295=ORIENTED_EDGE('',*,*,#222,.F.);
#296=ORIENTED_EDGE('',*,*,#223,.F.);
#297=ORIENTED_EDGE('',*,*,#224,.T.);
#298=ORIENTED_EDGE('',*,*,#223,.T.);
#299=ORIENTED_EDGE('',*,*,#225,.F.);
#300=ORIENTED_EDGE('',*,*,#226,.F.);
#301=ORIENTED_EDGE('',*,*,#227,.F.);
#302=ORIENTED_EDGE('',*,*,#226,.T.);
#303=ORIENTED_EDGE('',*,*,#228,.F.);
#304=ORIENTED_EDGE('',*,*,#218,.F.);
#305=ORIENTED_EDGE('',*,*,#227,.T.);
#306=ORIENTED_EDGE('',*,*,#217,.F.);
#307=ORIENTED_EDGE('',*,*,#221,.F.);
#308=ORIENTED_EDGE('',*,*,#224,.F.);
#309=ORIENTED_EDGE('',*,*,#193,.T.);
#310=ORIENTED_EDGE('',*,*,#196,.T.);
#311=ORIENTED_EDGE('',*,*,#198,.T.);
#312=ORIENTED_EDGE('',*,*,#200,.T.);
#313=ORIENTED_EDGE('',*,*,#202,.T.);
#314=ORIENTED_EDGE('',*,*,#204,.T.);
#315=ORIENTED_EDGE('',*,*,#206,.T.);
#316=ORIENTED_EDGE('',*,*,#208,.T.);
#317=ORIENTED_EDGE('',*,*,#210,.T.);
#318=ORIENTED_EDGE('',*,*,#212,.T.);
#319=ORIENTED_EDGE('',*,*,#214,.T.);
#320=ORIENTED_EDGE('',*,*,#216,.T.);
#321=ORIENTED_EDGE('',*,*,#228,.T.);
#322=ORIENTED_EDGE('',*,*,#225,.T.);
#323=ORIENTED_EDGE('',*,*,#222,.T.);
#324=ORIENTED_EDGE('',*,*,#219,.T.);
#325=PLANE('',#375);
#326=PLANE('',#376);
#327=PLANE('',#377);
#328=PLANE('',#378);
#329=PLANE('',#379);
#330=PLANE('',#380);
#331=PLANE('',#381);
#332=PLANE('',#382);
#333=PLANE('',#383);
#334=PLANE('',#384);
#335=PLANE('',#385);
#336=PLANE('',#386);
#337=PLANE('',#387);
#338=PLANE('',#388);
#339=PLANE('',#392);
#340=PLANE('',#396);
#341=PLANE('',#397);
#342=ADVANCED_FACE('',(#22),#325,.T.);
#343=ADVANCED_FACE('',(#23),#326,.T.);
#344=ADVANCED_FACE('',(#24),#327,.T.);
#345=ADVANCED_FACE('',(#25),#328,.T.);
#346=ADVANCED_FACE('',(#26),#329,.T.);
#347=ADVANCED_FACE('',(#27),#330,.T.);
#348=ADVANCED_FACE('',(#28),#331,.T.);
#349=ADVANCED_FACE('',(#29),#332,.T.);
#350=ADVANCED_FACE('',(#30),#333,.T.);
#351=ADVANCED_FACE('',(#31),#334,.T.);
#352=ADVANCED_FACE('',(#32),#335,.T.);
#353=ADVANCED_FACE('',(#33),#336,.T.);
#354=ADVANCED_FACE('',(#34),#337,.T.);
#355=ADVANCED_FACE('',(#35),#338,.T.);
#356=ADVANCED_FACE('',(#36),#20,.F.);
#357=ADVANCED_FACE('',(#37),#339,.T.);
#358=ADVANCED_FACE('',(#38),#21,.T.);
#359=ADVANCED_FACE('',(#39,#15),#340,.T.);
#360=ADVANCED_FACE('',(#40),#341,.F.);
#361=CLOSED_SHELL('',(#342,#343,#344,#345,#346,#347,#348,#349,#350,#351,
#352,#353,#354,#355,#356,#357,#358,#359,#360));
#362=DERIVED_UNIT_ELEMENT(#364,1.);
#363=DERIVED_UNIT_ELEMENT(#595,-3.);
#364=(
MASS_UNIT()
NAMED_UNIT(*)
SI_UNIT(.KILO.,.GRAM.)
);
#365=DERIVED_UNIT((#362,#363));
#366=MEASURE_REPRESENTATION_ITEM('density measure',
POSITIVE_RATIO_MEASURE(7850.),#365);
#367=PROPERTY_DEFINITION_REPRESENTATION(#372,#369);
#368=PROPERTY_DEFINITION_REPRESENTATION(#373,#370);
#369=REPRESENTATION('material name',(#371),#592);
#370=REPRESENTATION('density',(#366),#592);
#371=DESCRIPTIVE_REPRESENTATION_ITEM('Steel','Steel');
#372=PROPERTY_DEFINITION('material property','material name',#602);
#373=PROPERTY_DEFINITION('material property','density of part',#602);
#374=AXIS2_PLACEMENT_3D('',#490,#398,#399);
#375=AXIS2_PLACEMENT_3D('',#491,#400,#401);
#376=AXIS2_PLACEMENT_3D('',#516,#414,#415);
#377=AXIS2_PLACEMENT_3D('',#522,#419,#420);
#378=AXIS2_PLACEMENT_3D('',#526,#423,#424);
#379=AXIS2_PLACEMENT_3D('',#530,#427,#428);
#380=AXIS2_PLACEMENT_3D('',#534,#431,#432);
#381=AXIS2_PLACEMENT_3D('',#538,#435,#436);
#382=AXIS2_PLACEMENT_3D('',#542,#439,#440);
#383=AXIS2_PLACEMENT_3D('',#546,#443,#444);
#384=AXIS2_PLACEMENT_3D('',#550,#447,#448);
#385=AXIS2_PLACEMENT_3D('',#554,#451,#452);
#386=AXIS2_PLACEMENT_3D('',#558,#455,#456);
#387=AXIS2_PLACEMENT_3D('',#562,#459,#460);
#388=AXIS2_PLACEMENT_3D('',#564,#462,#463);
#389=AXIS2_PLACEMENT_3D('',#573,#468,#469);
#390=AXIS2_PLACEMENT_3D('',#575,#470,#471);
#391=AXIS2_PLACEMENT_3D('',#577,#472,#473);
#392=AXIS2_PLACEMENT_3D('',#579,#475,#476);
#393=AXIS2_PLACEMENT_3D('',#585,#480,#481);
#394=AXIS2_PLACEMENT_3D('',#586,#482,#483);
#395=AXIS2_PLACEMENT_3D('',#587,#484,#485);
#396=AXIS2_PLACEMENT_3D('',#588,#486,#487);
#397=AXIS2_PLACEMENT_3D('',#589,#488,#489);
#398=DIRECTION('axis',(0.,0.,1.));
#399=DIRECTION('refdir',(1.,0.,0.));
#400=DIRECTION('center_axis',(0.,0.,1.));
#401=DIRECTION('ref_axis',(1.,0.,0.));
#402=DIRECTION('',(0.547823233925859,-0.836594109691799,0.));
#403=DIRECTION('',(-0.551942257664792,-0.833882332349051,0.));
#404=DIRECTION('',(1.,0.,0.));
#405=DIRECTION('',(0.5236432745595,0.851937627416822,0.));
#406=DIRECTION('',(0.523643334935318,-0.851937590306836,0.));
#407=DIRECTION('',(1.,0.,0.));
#408=DIRECTION('',(-0.551101119753203,0.834438467357999,0.));
#409=DIRECTION('',(0.540647153891884,0.841249460617126,0.));
#410=DIRECTION('',(-1.,0.,0.));
#411=DIRECTION('',(-0.488515056103524,-0.872555465262908,0.));
#412=DIRECTION('',(-0.498723851201384,0.866760936038802,0.));
#413=DIRECTION('',(-1.,0.,0.));
#414=DIRECTION('center_axis',(0.,1.,0.));
#415=DIRECTION('ref_axis',(-1.,0.,0.));
#416=DIRECTION('',(1.,0.,0.));
#417=DIRECTION('',(0.,0.,1.));
#418=DIRECTION('',(0.,0.,1.));
#419=DIRECTION('center_axis',(0.866760936038802,0.498723851201384,0.));
#420=DIRECTION('ref_axis',(-0.498723851201384,0.866760936038802,0.));
#421=DIRECTION('',(0.498723851201384,-0.866760936038802,0.));
#422=DIRECTION('',(0.,0.,1.));
#423=DIRECTION('center_axis',(-0.872555465262908,0.488515056103524,0.));
#424=DIRECTION('ref_axis',(-0.488515056103524,-0.872555465262908,0.));
#425=DIRECTION('',(0.488515056103524,0.872555465262908,0.));
#426=DIRECTION('',(0.,0.,1.));
#427=DIRECTION('center_axis',(0.,1.,0.));
#428=DIRECTION('ref_axis',(-1.,0.,0.));
#429=DIRECTION('',(1.,0.,0.));
#430=DIRECTION('',(0.,0.,1.));
#431=DIRECTION('center_axis',(0.841249460617126,-0.540647153891884,0.));
#432=DIRECTION('ref_axis',(0.540647153891884,0.841249460617126,0.));
#433=DIRECTION('',(-0.540647153891884,-0.841249460617126,0.));
#434=DIRECTION('',(0.,0.,1.));
#435=DIRECTION('center_axis',(0.834438467357999,0.551101119753203,0.));
#436=DIRECTION('ref_axis',(-0.551101119753203,0.834438467357999,0.));
#437=DIRECTION('',(0.551101119753203,-0.834438467357999,0.));
#438=DIRECTION('',(0.,0.,1.));
#439=DIRECTION('center_axis',(0.,-1.,0.));
#440=DIRECTION('ref_axis',(1.,0.,0.));
#441=DIRECTION('',(-1.,0.,0.));
#442=DIRECTION('',(0.,0.,1.));
#443=DIRECTION('center_axis',(-0.851937590306836,-0.523643334935318,0.));
#444=DIRECTION('ref_axis',(0.523643334935318,-0.851937590306836,0.));
#445=DIRECTION('',(-0.523643334935318,0.851937590306836,0.));
#446=DIRECTION('',(0.,0.,1.));
#447=DIRECTION('center_axis',(0.851937627416822,-0.5236432745595,0.));
#448=DIRECTION('ref_axis',(0.5236432745595,0.851937627416822,0.));
#449=DIRECTION('',(-0.5236432745595,-0.851937627416822,0.));
#450=DIRECTION('',(0.,0.,1.));
#451=DIRECTION('center_axis',(0.,-1.,0.));
#452=DIRECTION('ref_axis',(1.,0.,0.));
#453=DIRECTION('',(-1.,0.,0.));
#454=DIRECTION('',(0.,0.,1.));
#455=DIRECTION('center_axis',(-0.833882332349051,0.551942257664792,0.));
#456=DIRECTION('ref_axis',(-0.551942257664792,-0.833882332349051,0.));
#457=DIRECTION('',(0.551942257664792,0.833882332349051,0.));
#458=DIRECTION('',(0.,0.,1.));
#459=DIRECTION('center_axis',(-0.836594109691799,-0.547823233925859,0.));
#460=DIRECTION('ref_axis',(0.547823233925859,-0.836594109691799,0.));
#461=DIRECTION('',(-0.547823233925859,0.836594109691799,0.));
#462=DIRECTION('center_axis',(-0.906307787036653,-0.422618261740692,0.));
#463=DIRECTION('ref_axis',(-0.422618261740692,0.906307787036653,0.));
#464=DIRECTION('',(-0.422618261740692,0.906307787036653,0.));
#465=DIRECTION('',(0.,0.,-1.));
#466=DIRECTION('',(-0.422618261740692,0.906307787036653,0.));
#467=DIRECTION('',(0.,0.,-1.));
#468=DIRECTION('center_axis',(0.,0.,-1.));
#469=DIRECTION('ref_axis',(-1.,0.,0.));
#470=DIRECTION('center_axis',(0.,0.,1.));
#471=DIRECTION('ref_axis',(-1.,0.,0.));
#472=DIRECTION('center_axis',(0.,0.,1.));
#473=DIRECTION('ref_axis',(-1.,0.,0.));
#474=DIRECTION('',(0.,0.,1.));
#475=DIRECTION('center_axis',(0.906307787036652,0.422618261740695,0.));
#476=DIRECTION('ref_axis',(0.422618261740695,-0.906307787036652,0.));
#477=DIRECTION('',(0.422618261740695,-0.906307787036652,0.));
#478=DIRECTION('',(0.422618261740695,-0.906307787036652,0.));
#479=DIRECTION('',(0.,0.,-1.));
#480=DIRECTION('center_axis',(0.,0.,-1.));
#481=DIRECTION('ref_axis',(0.906307787036651,0.422618261740698,0.));
#482=DIRECTION('center_axis',(0.,0.,1.));
#483=DIRECTION('ref_axis',(0.906307787036651,0.422618261740698,0.));
#484=DIRECTION('center_axis',(0.,0.,-1.));
#485=DIRECTION('ref_axis',(0.906307787036651,0.422618261740698,0.));
#486=DIRECTION('center_axis',(0.,0.,1.));
#487=DIRECTION('ref_axis',(-1.,0.,0.));
#488=DIRECTION('center_axis',(0.,0.,1.));
#489=DIRECTION('ref_axis',(-1.,0.,0.));
#490=CARTESIAN_POINT('',(0.,0.,0.));
#491=CARTESIAN_POINT('Origin',(152.261506525978,101.289142082232,7.91));
#492=CARTESIAN_POINT('',(149.828184490037,103.66414205243,7.91));
#493=CARTESIAN_POINT('',(151.317622271312,101.389585594434,7.91));
#494=CARTESIAN_POINT('',(151.317622271312,101.389585594434,7.91));
#495=CARTESIAN_POINT('',(149.679139464573,98.9141421120346,7.91));
#496=CARTESIAN_POINT('',(149.679139464573,98.9141421120346,7.91));
#497=CARTESIAN_POINT('',(151.318634805215,98.9141421120346,7.91));
#498=CARTESIAN_POINT('',(151.318634805215,98.9141421120346,7.91));
#499=CARTESIAN_POINT('',(152.256646362078,100.44023321082,7.91));
#500=CARTESIAN_POINT('',(152.256646362078,100.44023321082,7.91));
#501=CARTESIAN_POINT('',(153.194658067954,98.9141421120346,7.91));
#502=CARTESIAN_POINT('',(153.194658067954,98.9141421120346,7.91));
#503=CARTESIAN_POINT('',(154.843873587382,98.9141421120346,7.91));
#504=CARTESIAN_POINT('',(154.843873587382,98.9141421120346,7.91));
#505=CARTESIAN_POINT('',(153.22609743191,101.363664726514,7.91));
#506=CARTESIAN_POINT('',(153.22609743191,101.363664726514,7.91));
#507=CARTESIAN_POINT('',(154.704548922313,103.66414205243,7.91));
#508=CARTESIAN_POINT('',(154.704548922313,103.66414205243,7.91));
#509=CARTESIAN_POINT('',(153.103935030234,103.66414205243,7.91));
#510=CARTESIAN_POINT('',(153.103935030234,103.66414205243,7.91));
#511=CARTESIAN_POINT('',(152.285807338488,102.202852825421,7.91));
#512=CARTESIAN_POINT('',(152.285807338488,102.202852825421,7.91));
#513=CARTESIAN_POINT('',(151.444999036324,103.66414205243,7.91));
#514=CARTESIAN_POINT('',(151.444999036324,103.66414205243,7.91));
#515=CARTESIAN_POINT('',(149.828184490037,103.66414205243,7.91));
#516=CARTESIAN_POINT('Origin',(151.444999036324,103.66414205243,7.11));
#517=CARTESIAN_POINT('',(149.828184490037,103.66414205243,7.11));
#518=CARTESIAN_POINT('',(151.444999036324,103.66414205243,7.11));
#519=CARTESIAN_POINT('',(152.423927688722,103.66414205243,7.11));
#520=CARTESIAN_POINT('',(149.828184490037,103.66414205243,7.11));
#521=CARTESIAN_POINT('',(151.444999036324,103.66414205243,7.11));
#522=CARTESIAN_POINT('Origin',(152.285807338488,102.202852825421,7.11));
#523=CARTESIAN_POINT('',(152.285807338488,102.202852825421,7.11));
#524=CARTESIAN_POINT('',(153.033004024152,100.904256624114,7.11));
#525=CARTESIAN_POINT('',(152.285807338488,102.202852825421,7.11));
#526=CARTESIAN_POINT('Origin',(153.103935030234,103.66414205243,7.11));
#527=CARTESIAN_POINT('',(153.103935030234,103.66414205243,7.11));
#528=CARTESIAN_POINT('',(152.228352028988,102.100229695005,7.11));
#529=CARTESIAN_POINT('',(153.103935030234,103.66414205243,7.11));
#530=CARTESIAN_POINT('Origin',(154.704548922313,103.66414205243,7.11));
#531=CARTESIAN_POINT('',(154.704548922313,103.66414205243,7.11));
#532=CARTESIAN_POINT('',(154.053702631716,103.66414205243,7.11));
#533=CARTESIAN_POINT('',(154.704548922313,103.66414205243,7.11));
#534=CARTESIAN_POINT('Origin',(153.22609743191,101.363664726514,7.11));
#535=CARTESIAN_POINT('',(153.22609743191,101.363664726514,7.11));
#536=CARTESIAN_POINT('',(152.802768663805,100.704963214319,7.11));
#537=CARTESIAN_POINT('',(153.22609743191,101.363664726514,7.11));
#538=CARTESIAN_POINT('Origin',(154.843873587382,98.9141421120346,7.11));
#539=CARTESIAN_POINT('',(154.843873587382,98.9141421120346,7.11));
#540=CARTESIAN_POINT('',(154.515967623011,99.4106342085661,7.11));
#541=CARTESIAN_POINT('',(154.843873587382,98.9141421120346,7.11));
#542=CARTESIAN_POINT('Origin',(153.194658067954,98.9141421120346,7.11));
#543=CARTESIAN_POINT('',(153.194658067954,98.9141421120346,7.11));
#544=CARTESIAN_POINT('',(153.298757204537,98.9141421120346,7.11));
#545=CARTESIAN_POINT('',(153.194658067954,98.9141421120346,7.11));
#546=CARTESIAN_POINT('Origin',(152.256646362078,100.44023321082,7.11));
#547=CARTESIAN_POINT('',(152.256646362078,100.44023321082,7.11));
#548=CARTESIAN_POINT('',(152.648379057024,99.8029066453685,7.11));
#549=CARTESIAN_POINT('',(152.256646362078,100.44023321082,7.11));
#550=CARTESIAN_POINT('Origin',(151.318634805215,98.9141421120346,7.11));
#551=CARTESIAN_POINT('',(151.318634805215,98.9141421120346,7.11));
#552=CARTESIAN_POINT('',(151.710201330224,99.5511984297602,7.11));
#553=CARTESIAN_POINT('',(151.318634805215,98.9141421120346,7.11));
#554=CARTESIAN_POINT('Origin',(149.679139464573,98.9141421120346,7.11));
#555=CARTESIAN_POINT('',(149.679139464573,98.9141421120346,7.11));
#556=CARTESIAN_POINT('',(151.540997902847,98.9141421120346,7.11));
#557=CARTESIAN_POINT('',(149.679139464573,98.9141421120346,7.11));
#558=CARTESIAN_POINT('Origin',(151.317622271312,101.389585594434,7.11));
#559=CARTESIAN_POINT('',(151.317622271312,101.389585594434,7.11));
#560=CARTESIAN_POINT('',(151.174750103826,101.173732260871,7.11));
#561=CARTESIAN_POINT('',(151.317622271312,101.389585594434,7.11));
#562=CARTESIAN_POINT('Origin',(149.828184490037,103.66414205243,7.11));
#563=CARTESIAN_POINT('',(151.344348550387,101.34877124728,7.11));
#564=CARTESIAN_POINT('Origin',(151.746936544921,93.9991651751438,7.11));
#565=CARTESIAN_POINT('',(151.61193908195,94.2886681687371,7.11));
#566=CARTESIAN_POINT('',(149.042544373434,99.7987529026714,7.11));
#567=CARTESIAN_POINT('',(151.746936544921,93.9991651751437,7.11));
#568=CARTESIAN_POINT('',(149.042544373434,99.7987529026714,5.51));
#569=CARTESIAN_POINT('',(149.042544373434,99.7987529026714,7.11));
#570=CARTESIAN_POINT('',(151.61193908195,94.2886681687371,5.51));
#571=CARTESIAN_POINT('',(151.746936544921,93.9991651751437,5.51));
#572=CARTESIAN_POINT('',(151.61193908195,94.288668168737,7.11));
#573=CARTESIAN_POINT('Origin',(156.71203123193,91.6331907989015,7.11));
#574=CARTESIAN_POINT('',(157.956093591207,97.2469960009219,7.11));
#575=CARTESIAN_POINT('Origin',(156.71203123193,91.6331907989015,7.11));
#576=CARTESIAN_POINT('',(157.956093591207,97.2469960009219,5.51));
#577=CARTESIAN_POINT('Origin',(156.71203123193,91.6331907989015,5.51));
#578=CARTESIAN_POINT('',(157.956093591207,97.2469960009219,7.11));
#579=CARTESIAN_POINT('Origin',(155.38669888269,102.757080734856,7.11));
#580=CARTESIAN_POINT('',(155.38669888269,102.757080734856,7.11));
#581=CARTESIAN_POINT('',(155.38669888269,102.757080734856,7.11));
#582=CARTESIAN_POINT('',(155.38669888269,102.757080734856,5.51));
#583=CARTESIAN_POINT('',(155.38669888269,102.757080734856,5.51));
#584=CARTESIAN_POINT('',(155.38669888269,102.757080734856,7.11));
#585=CARTESIAN_POINT('Origin',(152.214621628062,101.277916818764,7.11));
#586=CARTESIAN_POINT('Origin',(152.214621628062,101.277916818764,7.11));
#587=CARTESIAN_POINT('Origin',(152.214621628062,101.277916818764,5.51));
#588=CARTESIAN_POINT('Origin',(153.40285634112,99.3885409969538,7.11));
#589=CARTESIAN_POINT('Origin',(153.40285634112,99.3885409969538,5.51));
#590=UNCERTAINTY_MEASURE_WITH_UNIT(LENGTH_MEASURE(0.01),#594,
'DISTANCE_ACCURACY_VALUE',
'Maximum model space distance between geometric entities at asserted c
onnectivities');
#591=UNCERTAINTY_MEASURE_WITH_UNIT(LENGTH_MEASURE(0.01),#594,
'DISTANCE_ACCURACY_VALUE',
'Maximum model space distance between geometric entities at asserted c
onnectivities');
#592=(
GEOMETRIC_REPRESENTATION_CONTEXT(3)
GLOBAL_UNCERTAINTY_ASSIGNED_CONTEXT((#590))
GLOBAL_UNIT_ASSIGNED_CONTEXT((#594,#596,#597))
REPRESENTATION_CONTEXT('','3D')
);
#593=(
GEOMETRIC_REPRESENTATION_CONTEXT(3)
GLOBAL_UNCERTAINTY_ASSIGNED_CONTEXT((#591))
GLOBAL_UNIT_ASSIGNED_CONTEXT((#594,#596,#597))
REPRESENTATION_CONTEXT('','3D')
);
#594=(
LENGTH_UNIT()
NAMED_UNIT(*)
SI_UNIT(.MILLI.,.METRE.)
);
#595=(
LENGTH_UNIT()
NAMED_UNIT(*)
SI_UNIT($,.METRE.)
);
#596=(
NAMED_UNIT(*)
PLANE_ANGLE_UNIT()
SI_UNIT($,.RADIAN.)
);
#597=(
NAMED_UNIT(*)
SI_UNIT($,.STERADIAN.)
SOLID_ANGLE_UNIT()
);
#598=SHAPE_DEFINITION_REPRESENTATION(#599,#600);
#599=PRODUCT_DEFINITION_SHAPE('',$,#602);
#600=SHAPE_REPRESENTATION('',(#374),#592);
#601=PRODUCT_DEFINITION_CONTEXT('part definition',#606,'design');
#602=PRODUCT_DEFINITION('x_label','x_label',#603,#601);
#603=PRODUCT_DEFINITION_FORMATION('',$,#608);
#604=PRODUCT_RELATED_PRODUCT_CATEGORY('x_label','x_label',(#608));
#605=APPLICATION_PROTOCOL_DEFINITION('international standard',
'automotive_design',2009,#606);
#606=APPLICATION_CONTEXT(
'Core Data for Automotive Mechanical Design Process');
#607=PRODUCT_CONTEXT('part definition',#606,'mechanical');
#608=PRODUCT('x_label','x_label',$,(#607));
#609=PRESENTATION_STYLE_ASSIGNMENT((#610));
#610=SURFACE_STYLE_USAGE(.BOTH.,#611);
#611=SURFACE_SIDE_STYLE('',(#612));
#612=SURFACE_STYLE_FILL_AREA(#613);
#613=FILL_AREA_STYLE('Steel - Satin',(#614));
#614=FILL_AREA_STYLE_COLOUR('Steel - Satin',#615);
#615=COLOUR_RGB('Steel - Satin',0.627450980392157,0.627450980392157,0.627450980392157);
ENDSEC;
END-ISO-10303-21;
