ISO-10303-21;
HEADER;
/* Generated by software containing ST-Developer
 * from STEP Tools, Inc. (www.steptools.com) 
 */

FILE_DESCRIPTION(
/* description */ (''),
/* implementation_level */ '2;1');

FILE_NAME(
/* name */ 'y_label.step',
/* time_stamp */ '2026-07-08T10:56:19+03:00',
/* author */ (''),
/* organization */ (''),
/* preprocessor_version */ 'ST-DEVELOPER v20.1',
/* originating_system */ 'Autodesk Translation Framework v15.8.0.0',
/* authorisation */ '');

FILE_SCHEMA (('AUTOMOTIVE_DESIGN { 1 0 10303 214 3 1 1 }'));
ENDSEC;

DATA;
#10=MECHANICAL_DESIGN_GEOMETRIC_PRESENTATION_REPRESENTATION('',(#13),#494);
#11=SHAPE_REPRESENTATION_RELATIONSHIP('SRR','None',#501,#12);
#12=ADVANCED_BREP_SHAPE_REPRESENTATION('',(#14),#493);
#13=STYLED_ITEM('',(#510),#14);
#14=MANIFOLD_SOLID_BREP('y_label',#298);
#15=FACE_BOUND('',#53,.T.);
#16=CIRCLE('',#324,5.75000000000001);
#17=CIRCLE('',#325,5.75000000000001);
#18=CIRCLE('',#328,3.50000000000002);
#19=CIRCLE('',#329,3.50000000000002);
#20=CYLINDRICAL_SURFACE('',#323,5.75000000000001);
#21=CYLINDRICAL_SURFACE('',#327,3.50000000000002);
#22=FACE_OUTER_BOUND('',#38,.T.);
#23=FACE_OUTER_BOUND('',#39,.T.);
#24=FACE_OUTER_BOUND('',#40,.T.);
#25=FACE_OUTER_BOUND('',#41,.T.);
#26=FACE_OUTER_BOUND('',#42,.T.);
#27=FACE_OUTER_BOUND('',#43,.T.);
#28=FACE_OUTER_BOUND('',#44,.T.);
#29=FACE_OUTER_BOUND('',#45,.T.);
#30=FACE_OUTER_BOUND('',#46,.T.);
#31=FACE_OUTER_BOUND('',#47,.T.);
#32=FACE_OUTER_BOUND('',#48,.T.);
#33=FACE_OUTER_BOUND('',#49,.T.);
#34=FACE_OUTER_BOUND('',#50,.T.);
#35=FACE_OUTER_BOUND('',#51,.T.);
#36=FACE_OUTER_BOUND('',#52,.T.);
#37=FACE_OUTER_BOUND('',#54,.T.);
#38=EDGE_LOOP('',(#190,#191,#192,#193,#194,#195,#196,#197,#198));
#39=EDGE_LOOP('',(#199,#200,#201,#202));
#40=EDGE_LOOP('',(#203,#204,#205,#206));
#41=EDGE_LOOP('',(#207,#208,#209,#210));
#42=EDGE_LOOP('',(#211,#212,#213,#214));
#43=EDGE_LOOP('',(#215,#216,#217,#218));
#44=EDGE_LOOP('',(#219,#220,#221,#222));
#45=EDGE_LOOP('',(#223,#224,#225,#226));
#46=EDGE_LOOP('',(#227,#228,#229,#230));
#47=EDGE_LOOP('',(#231,#232,#233,#234));
#48=EDGE_LOOP('',(#235,#236,#237,#238));
#49=EDGE_LOOP('',(#239,#240,#241,#242));
#50=EDGE_LOOP('',(#243,#244,#245,#246));
#51=EDGE_LOOP('',(#247,#248,#249,#250));
#52=EDGE_LOOP('',(#251,#252,#253,#254));
#53=EDGE_LOOP('',(#255,#256,#257,#258,#259,#260,#261,#262,#263));
#54=EDGE_LOOP('',(#264,#265,#266,#267));
#55=LINE('',#413,#90);
#56=LINE('',#415,#91);
#57=LINE('',#417,#92);
#58=LINE('',#419,#93);
#59=LINE('',#421,#94);
#60=LINE('',#423,#95);
#61=LINE('',#425,#96);
#62=LINE('',#427,#97);
#63=LINE('',#428,#98);
#64=LINE('',#432,#99);
#65=LINE('',#433,#100);
#66=LINE('',#434,#101);
#67=LINE('',#437,#102);
#68=LINE('',#438,#103);
#69=LINE('',#441,#104);
#70=LINE('',#442,#105);
#71=LINE('',#445,#106);
#72=LINE('',#446,#107);
#73=LINE('',#449,#108);
#74=LINE('',#450,#109);
#75=LINE('',#453,#110);
#76=LINE('',#454,#111);
#77=LINE('',#457,#112);
#78=LINE('',#458,#113);
#79=LINE('',#461,#114);
#80=LINE('',#462,#115);
#81=LINE('',#464,#116);
#82=LINE('',#468,#117);
#83=LINE('',#470,#118);
#84=LINE('',#472,#119);
#85=LINE('',#473,#120);
#86=LINE('',#479,#121);
#87=LINE('',#482,#122);
#88=LINE('',#484,#123);
#89=LINE('',#485,#124);
#90=VECTOR('',#336,10.);
#91=VECTOR('',#337,10.);
#92=VECTOR('',#338,10.);
#93=VECTOR('',#339,10.);
#94=VECTOR('',#340,10.);
#95=VECTOR('',#341,10.);
#96=VECTOR('',#342,10.);
#97=VECTOR('',#343,10.);
#98=VECTOR('',#344,10.);
#99=VECTOR('',#347,10.);
#100=VECTOR('',#348,10.);
#101=VECTOR('',#349,10.);
#102=VECTOR('',#352,10.);
#103=VECTOR('',#353,10.);
#104=VECTOR('',#356,10.);
#105=VECTOR('',#357,10.);
#106=VECTOR('',#360,10.);
#107=VECTOR('',#361,10.);
#108=VECTOR('',#364,10.);
#109=VECTOR('',#365,10.);
#110=VECTOR('',#368,10.);
#111=VECTOR('',#369,10.);
#112=VECTOR('',#372,10.);
#113=VECTOR('',#373,10.);
#114=VECTOR('',#376,10.);
#115=VECTOR('',#377,10.);
#116=VECTOR('',#380,10.);
#117=VECTOR('',#383,10.);
#118=VECTOR('',#384,10.);
#119=VECTOR('',#385,10.);
#120=VECTOR('',#386,10.);
#121=VECTOR('',#393,10.);
#122=VECTOR('',#396,10.);
#123=VECTOR('',#397,10.);
#124=VECTOR('',#398,10.);
#125=VERTEX_POINT('',#411);
#126=VERTEX_POINT('',#412);
#127=VERTEX_POINT('',#414);
#128=VERTEX_POINT('',#416);
#129=VERTEX_POINT('',#418);
#130=VERTEX_POINT('',#420);
#131=VERTEX_POINT('',#422);
#132=VERTEX_POINT('',#424);
#133=VERTEX_POINT('',#426);
#134=VERTEX_POINT('',#430);
#135=VERTEX_POINT('',#431);
#136=VERTEX_POINT('',#436);
#137=VERTEX_POINT('',#440);
#138=VERTEX_POINT('',#444);
#139=VERTEX_POINT('',#448);
#140=VERTEX_POINT('',#452);
#141=VERTEX_POINT('',#456);
#142=VERTEX_POINT('',#460);
#143=VERTEX_POINT('',#466);
#144=VERTEX_POINT('',#467);
#145=VERTEX_POINT('',#469);
#146=VERTEX_POINT('',#471);
#147=VERTEX_POINT('',#475);
#148=VERTEX_POINT('',#477);
#149=VERTEX_POINT('',#481);
#150=VERTEX_POINT('',#483);
#151=EDGE_CURVE('',#125,#126,#55,.T.);
#152=EDGE_CURVE('',#126,#127,#56,.T.);
#153=EDGE_CURVE('',#127,#128,#57,.T.);
#154=EDGE_CURVE('',#128,#129,#58,.T.);
#155=EDGE_CURVE('',#129,#130,#59,.T.);
#156=EDGE_CURVE('',#130,#131,#60,.T.);
#157=EDGE_CURVE('',#131,#132,#61,.T.);
#158=EDGE_CURVE('',#132,#133,#62,.T.);
#159=EDGE_CURVE('',#133,#125,#63,.T.);
#160=EDGE_CURVE('',#134,#135,#64,.T.);
#161=EDGE_CURVE('',#134,#125,#65,.T.);
#162=EDGE_CURVE('',#135,#133,#66,.T.);
#163=EDGE_CURVE('',#135,#136,#67,.T.);
#164=EDGE_CURVE('',#136,#132,#68,.T.);
#165=EDGE_CURVE('',#136,#137,#69,.T.);
#166=EDGE_CURVE('',#137,#131,#70,.T.);
#167=EDGE_CURVE('',#137,#138,#71,.T.);
#168=EDGE_CURVE('',#138,#130,#72,.T.);
#169=EDGE_CURVE('',#138,#139,#73,.T.);
#170=EDGE_CURVE('',#139,#129,#74,.T.);
#171=EDGE_CURVE('',#139,#140,#75,.T.);
#172=EDGE_CURVE('',#140,#128,#76,.T.);
#173=EDGE_CURVE('',#140,#141,#77,.T.);
#174=EDGE_CURVE('',#141,#127,#78,.T.);
#175=EDGE_CURVE('',#141,#142,#79,.T.);
#176=EDGE_CURVE('',#142,#126,#80,.T.);
#177=EDGE_CURVE('',#142,#134,#81,.T.);
#178=EDGE_CURVE('',#143,#144,#82,.T.);
#179=EDGE_CURVE('',#144,#145,#83,.T.);
#180=EDGE_CURVE('',#146,#145,#84,.T.);
#181=EDGE_CURVE('',#143,#146,#85,.T.);
#182=EDGE_CURVE('',#147,#143,#16,.T.);
#183=EDGE_CURVE('',#148,#146,#17,.T.);
#184=EDGE_CURVE('',#147,#148,#86,.F.);
#185=EDGE_CURVE('',#149,#147,#87,.T.);
#186=EDGE_CURVE('',#150,#148,#88,.T.);
#187=EDGE_CURVE('',#149,#150,#89,.T.);
#188=EDGE_CURVE('',#149,#144,#18,.T.);
#189=EDGE_CURVE('',#145,#150,#19,.T.);
#190=ORIENTED_EDGE('',*,*,#151,.T.);
#191=ORIENTED_EDGE('',*,*,#152,.T.);
#192=ORIENTED_EDGE('',*,*,#153,.T.);
#193=ORIENTED_EDGE('',*,*,#154,.T.);
#194=ORIENTED_EDGE('',*,*,#155,.T.);
#195=ORIENTED_EDGE('',*,*,#156,.T.);
#196=ORIENTED_EDGE('',*,*,#157,.T.);
#197=ORIENTED_EDGE('',*,*,#158,.T.);
#198=ORIENTED_EDGE('',*,*,#159,.T.);
#199=ORIENTED_EDGE('',*,*,#160,.F.);
#200=ORIENTED_EDGE('',*,*,#161,.T.);
#201=ORIENTED_EDGE('',*,*,#159,.F.);
#202=ORIENTED_EDGE('',*,*,#162,.F.);
#203=ORIENTED_EDGE('',*,*,#163,.F.);
#204=ORIENTED_EDGE('',*,*,#162,.T.);
#205=ORIENTED_EDGE('',*,*,#158,.F.);
#206=ORIENTED_EDGE('',*,*,#164,.F.);
#207=ORIENTED_EDGE('',*,*,#165,.F.);
#208=ORIENTED_EDGE('',*,*,#164,.T.);
#209=ORIENTED_EDGE('',*,*,#157,.F.);
#210=ORIENTED_EDGE('',*,*,#166,.F.);
#211=ORIENTED_EDGE('',*,*,#167,.F.);
#212=ORIENTED_EDGE('',*,*,#166,.T.);
#213=ORIENTED_EDGE('',*,*,#156,.F.);
#214=ORIENTED_EDGE('',*,*,#168,.F.);
#215=ORIENTED_EDGE('',*,*,#169,.F.);
#216=ORIENTED_EDGE('',*,*,#168,.T.);
#217=ORIENTED_EDGE('',*,*,#155,.F.);
#218=ORIENTED_EDGE('',*,*,#170,.F.);
#219=ORIENTED_EDGE('',*,*,#171,.F.);
#220=ORIENTED_EDGE('',*,*,#170,.T.);
#221=ORIENTED_EDGE('',*,*,#154,.F.);
#222=ORIENTED_EDGE('',*,*,#172,.F.);
#223=ORIENTED_EDGE('',*,*,#173,.F.);
#224=ORIENTED_EDGE('',*,*,#172,.T.);
#225=ORIENTED_EDGE('',*,*,#153,.F.);
#226=ORIENTED_EDGE('',*,*,#174,.F.);
#227=ORIENTED_EDGE('',*,*,#175,.F.);
#228=ORIENTED_EDGE('',*,*,#174,.T.);
#229=ORIENTED_EDGE('',*,*,#152,.F.);
#230=ORIENTED_EDGE('',*,*,#176,.F.);
#231=ORIENTED_EDGE('',*,*,#177,.F.);
#232=ORIENTED_EDGE('',*,*,#176,.T.);
#233=ORIENTED_EDGE('',*,*,#151,.F.);
#234=ORIENTED_EDGE('',*,*,#161,.F.);
#235=ORIENTED_EDGE('',*,*,#178,.T.);
#236=ORIENTED_EDGE('',*,*,#179,.T.);
#237=ORIENTED_EDGE('',*,*,#180,.F.);
#238=ORIENTED_EDGE('',*,*,#181,.F.);
#239=ORIENTED_EDGE('',*,*,#182,.T.);
#240=ORIENTED_EDGE('',*,*,#181,.T.);
#241=ORIENTED_EDGE('',*,*,#183,.F.);
#242=ORIENTED_EDGE('',*,*,#184,.F.);
#243=ORIENTED_EDGE('',*,*,#185,.T.);
#244=ORIENTED_EDGE('',*,*,#184,.T.);
#245=ORIENTED_EDGE('',*,*,#186,.F.);
#246=ORIENTED_EDGE('',*,*,#187,.F.);
#247=ORIENTED_EDGE('',*,*,#188,.F.);
#248=ORIENTED_EDGE('',*,*,#187,.T.);
#249=ORIENTED_EDGE('',*,*,#189,.F.);
#250=ORIENTED_EDGE('',*,*,#179,.F.);
#251=ORIENTED_EDGE('',*,*,#188,.T.);
#252=ORIENTED_EDGE('',*,*,#178,.F.);
#253=ORIENTED_EDGE('',*,*,#182,.F.);
#254=ORIENTED_EDGE('',*,*,#185,.F.);
#255=ORIENTED_EDGE('',*,*,#160,.T.);
#256=ORIENTED_EDGE('',*,*,#163,.T.);
#257=ORIENTED_EDGE('',*,*,#165,.T.);
#258=ORIENTED_EDGE('',*,*,#167,.T.);
#259=ORIENTED_EDGE('',*,*,#169,.T.);
#260=ORIENTED_EDGE('',*,*,#171,.T.);
#261=ORIENTED_EDGE('',*,*,#173,.T.);
#262=ORIENTED_EDGE('',*,*,#175,.T.);
#263=ORIENTED_EDGE('',*,*,#177,.T.);
#264=ORIENTED_EDGE('',*,*,#189,.T.);
#265=ORIENTED_EDGE('',*,*,#186,.T.);
#266=ORIENTED_EDGE('',*,*,#183,.T.);
#267=ORIENTED_EDGE('',*,*,#180,.T.);
#268=PLANE('',#312);
#269=PLANE('',#313);
#270=PLANE('',#314);
#271=PLANE('',#315);
#272=PLANE('',#316);
#273=PLANE('',#317);
#274=PLANE('',#318);
#275=PLANE('',#319);
#276=PLANE('',#320);
#277=PLANE('',#321);
#278=PLANE('',#322);
#279=PLANE('',#326);
#280=PLANE('',#330);
#281=PLANE('',#331);
#282=ADVANCED_FACE('',(#22),#268,.T.);
#283=ADVANCED_FACE('',(#23),#269,.T.);
#284=ADVANCED_FACE('',(#24),#270,.T.);
#285=ADVANCED_FACE('',(#25),#271,.T.);
#286=ADVANCED_FACE('',(#26),#272,.T.);
#287=ADVANCED_FACE('',(#27),#273,.T.);
#288=ADVANCED_FACE('',(#28),#274,.T.);
#289=ADVANCED_FACE('',(#29),#275,.T.);
#290=ADVANCED_FACE('',(#30),#276,.T.);
#291=ADVANCED_FACE('',(#31),#277,.T.);
#292=ADVANCED_FACE('',(#32),#278,.T.);
#293=ADVANCED_FACE('',(#33),#20,.F.);
#294=ADVANCED_FACE('',(#34),#279,.T.);
#295=ADVANCED_FACE('',(#35),#21,.T.);
#296=ADVANCED_FACE('',(#36,#15),#280,.T.);
#297=ADVANCED_FACE('',(#37),#281,.F.);
#298=CLOSED_SHELL('',(#282,#283,#284,#285,#286,#287,#288,#289,#290,#291,
#292,#293,#294,#295,#296,#297));
#299=DERIVED_UNIT_ELEMENT(#301,1.);
#300=DERIVED_UNIT_ELEMENT(#496,-3.);
#301=(
MASS_UNIT()
NAMED_UNIT(*)
SI_UNIT(.KILO.,.GRAM.)
);
#302=DERIVED_UNIT((#299,#300));
#303=MEASURE_REPRESENTATION_ITEM('density measure',
POSITIVE_RATIO_MEASURE(7850.),#302);
#304=PROPERTY_DEFINITION_REPRESENTATION(#309,#306);
#305=PROPERTY_DEFINITION_REPRESENTATION(#310,#307);
#306=REPRESENTATION('material name',(#308),#493);
#307=REPRESENTATION('density',(#303),#493);
#308=DESCRIPTIVE_REPRESENTATION_ITEM('Steel','Steel');
#309=PROPERTY_DEFINITION('material property','material name',#503);
#310=PROPERTY_DEFINITION('material property','density of part',#503);
#311=AXIS2_PLACEMENT_3D('',#409,#332,#333);
#312=AXIS2_PLACEMENT_3D('',#410,#334,#335);
#313=AXIS2_PLACEMENT_3D('',#429,#345,#346);
#314=AXIS2_PLACEMENT_3D('',#435,#350,#351);
#315=AXIS2_PLACEMENT_3D('',#439,#354,#355);
#316=AXIS2_PLACEMENT_3D('',#443,#358,#359);
#317=AXIS2_PLACEMENT_3D('',#447,#362,#363);
#318=AXIS2_PLACEMENT_3D('',#451,#366,#367);
#319=AXIS2_PLACEMENT_3D('',#455,#370,#371);
#320=AXIS2_PLACEMENT_3D('',#459,#374,#375);
#321=AXIS2_PLACEMENT_3D('',#463,#378,#379);
#322=AXIS2_PLACEMENT_3D('',#465,#381,#382);
#323=AXIS2_PLACEMENT_3D('',#474,#387,#388);
#324=AXIS2_PLACEMENT_3D('',#476,#389,#390);
#325=AXIS2_PLACEMENT_3D('',#478,#391,#392);
#326=AXIS2_PLACEMENT_3D('',#480,#394,#395);
#327=AXIS2_PLACEMENT_3D('',#486,#399,#400);
#328=AXIS2_PLACEMENT_3D('',#487,#401,#402);
#329=AXIS2_PLACEMENT_3D('',#488,#403,#404);
#330=AXIS2_PLACEMENT_3D('',#489,#405,#406);
#331=AXIS2_PLACEMENT_3D('',#490,#407,#408);
#332=DIRECTION('axis',(0.,0.,1.));
#333=DIRECTION('refdir',(1.,0.,0.));
#334=DIRECTION('center_axis',(0.,0.,1.));
#335=DIRECTION('ref_axis',(1.,0.,0.));
#336=DIRECTION('',(0.556723516333702,-0.830697855035775,0.));
#337=DIRECTION('',(0.,-1.,0.));
#338=DIRECTION('',(1.,0.,0.));
#339=DIRECTION('',(0.,1.,0.));
#340=DIRECTION('',(0.556050132107532,0.831148753583374,0.));
#341=DIRECTION('',(-1.,0.,0.));
#342=DIRECTION('',(-0.513506641397304,-0.858085618828832,0.));
#343=DIRECTION('',(-0.512787527438032,0.858515551230139,0.));
#344=DIRECTION('',(-1.,0.,0.));
#345=DIRECTION('center_axis',(0.,1.,0.));
#346=DIRECTION('ref_axis',(-1.,0.,0.));
#347=DIRECTION('',(1.,0.,0.));
#348=DIRECTION('',(0.,0.,1.));
#349=DIRECTION('',(0.,0.,1.));
#350=DIRECTION('center_axis',(0.858515551230139,0.512787527438032,0.));
#351=DIRECTION('ref_axis',(-0.512787527438032,0.858515551230139,0.));
#352=DIRECTION('',(0.512787527438032,-0.858515551230139,0.));
#353=DIRECTION('',(0.,0.,1.));
#354=DIRECTION('center_axis',(-0.858085618828832,0.513506641397305,0.));
#355=DIRECTION('ref_axis',(-0.513506641397304,-0.858085618828832,0.));
#356=DIRECTION('',(0.513506641397304,0.858085618828832,0.));
#357=DIRECTION('',(0.,0.,1.));
#358=DIRECTION('center_axis',(0.,1.,0.));
#359=DIRECTION('ref_axis',(-1.,0.,0.));
#360=DIRECTION('',(1.,0.,0.));
#361=DIRECTION('',(0.,0.,1.));
#362=DIRECTION('center_axis',(0.831148753583374,-0.556050132107532,0.));
#363=DIRECTION('ref_axis',(0.556050132107532,0.831148753583374,0.));
#364=DIRECTION('',(-0.556050132107532,-0.831148753583374,0.));
#365=DIRECTION('',(0.,0.,1.));
#366=DIRECTION('center_axis',(1.,0.,0.));
#367=DIRECTION('ref_axis',(0.,1.,0.));
#368=DIRECTION('',(0.,-1.,0.));
#369=DIRECTION('',(0.,0.,1.));
#370=DIRECTION('center_axis',(0.,-1.,0.));
#371=DIRECTION('ref_axis',(1.,0.,0.));
#372=DIRECTION('',(-1.,0.,0.));
#373=DIRECTION('',(0.,0.,1.));
#374=DIRECTION('center_axis',(-1.,0.,0.));
#375=DIRECTION('ref_axis',(0.,-1.,0.));
#376=DIRECTION('',(0.,1.,0.));
#377=DIRECTION('',(0.,0.,1.));
#378=DIRECTION('center_axis',(-0.830697855035775,-0.556723516333702,0.));
#379=DIRECTION('ref_axis',(0.556723516333702,-0.830697855035775,0.));
#380=DIRECTION('',(-0.556723516333702,0.830697855035775,0.));
#381=DIRECTION('center_axis',(-0.906307787036653,-0.422618261740692,0.));
#382=DIRECTION('ref_axis',(-0.422618261740692,0.906307787036653,0.));
#383=DIRECTION('',(-0.422618261740692,0.906307787036653,0.));
#384=DIRECTION('',(0.,0.,-1.));
#385=DIRECTION('',(-0.422618261740692,0.906307787036653,0.));
#386=DIRECTION('',(0.,0.,-1.));
#387=DIRECTION('center_axis',(0.,0.,-1.));
#388=DIRECTION('ref_axis',(-1.,0.,0.));
#389=DIRECTION('center_axis',(0.,0.,1.));
#390=DIRECTION('ref_axis',(-1.,0.,0.));
#391=DIRECTION('center_axis',(0.,0.,1.));
#392=DIRECTION('ref_axis',(-1.,0.,0.));
#393=DIRECTION('',(0.,0.,1.));
#394=DIRECTION('center_axis',(0.906307787036652,0.422618261740695,0.));
#395=DIRECTION('ref_axis',(0.422618261740695,-0.906307787036652,0.));
#396=DIRECTION('',(0.422618261740695,-0.906307787036652,0.));
#397=DIRECTION('',(0.422618261740695,-0.906307787036652,0.));
#398=DIRECTION('',(0.,0.,-1.));
#399=DIRECTION('center_axis',(0.,0.,-1.));
#400=DIRECTION('ref_axis',(0.906307787036651,0.422618261740698,0.));
#401=DIRECTION('center_axis',(0.,0.,1.));
#402=DIRECTION('ref_axis',(0.906307787036651,0.422618261740698,0.));
#403=DIRECTION('center_axis',(0.,0.,-1.));
#404=DIRECTION('ref_axis',(0.906307787036651,0.422618261740698,0.));
#405=DIRECTION('center_axis',(0.,0.,1.));
#406=DIRECTION('ref_axis',(-1.,0.,0.));
#407=DIRECTION('center_axis',(0.,0.,1.));
#408=DIRECTION('ref_axis',(-1.,0.,0.));
#409=CARTESIAN_POINT('',(0.,0.,0.));
#410=CARTESIAN_POINT('Origin',(161.081995268233,101.129987538025,7.91));
#411=CARTESIAN_POINT('',(158.498008152002,103.504987508223,7.91));
#412=CARTESIAN_POINT('',(160.348110545657,100.744414180682,7.91));
#413=CARTESIAN_POINT('',(160.348110545657,100.744414180682,7.91));
#414=CARTESIAN_POINT('',(160.348110545657,98.7549875678277,7.91));
#415=CARTESIAN_POINT('',(160.348110545657,98.7549875678277,7.91));
#416=CARTESIAN_POINT('',(161.819120247147,98.7549875678277,7.91));
#417=CARTESIAN_POINT('',(161.819120247147,98.7549875678277,7.91));
#418=CARTESIAN_POINT('',(161.819120247147,100.744414180682,7.91));
#419=CARTESIAN_POINT('',(161.819120247147,100.744414180682,7.91));
#420=CARTESIAN_POINT('',(163.665982384465,103.504987508223,7.91));
#421=CARTESIAN_POINT('',(163.665982384465,103.504987508223,7.91));
#422=CARTESIAN_POINT('',(162.04435845115,103.504987508223,7.91));
#423=CARTESIAN_POINT('',(162.04435845115,103.504987508223,7.91));
#424=CARTESIAN_POINT('',(161.085438031934,101.902601570056,7.91));
#425=CARTESIAN_POINT('',(161.085438031934,101.902601570056,7.91));
#426=CARTESIAN_POINT('',(160.128340024731,103.504987508223,7.91));
#427=CARTESIAN_POINT('',(160.128340024731,103.504987508223,7.91));
#428=CARTESIAN_POINT('',(158.498008152002,103.504987508223,7.91));
#429=CARTESIAN_POINT('Origin',(160.128340024731,103.504987508223,7.11));
#430=CARTESIAN_POINT('',(158.498008152002,103.504987508223,7.11));
#431=CARTESIAN_POINT('',(160.128340024731,103.504987508223,7.11));
#432=CARTESIAN_POINT('',(161.19311745504,103.504987508223,7.11));
#433=CARTESIAN_POINT('',(158.498008152002,103.504987508223,7.11));
#434=CARTESIAN_POINT('',(160.128340024731,103.504987508223,7.11));
#435=CARTESIAN_POINT('Origin',(161.085438031934,101.902601570056,7.11));
#436=CARTESIAN_POINT('',(161.085438031934,101.902601570056,7.11));
#437=CARTESIAN_POINT('',(161.792977480455,100.718029818283,7.11));
#438=CARTESIAN_POINT('',(161.085438031934,101.902601570056,7.11));
#439=CARTESIAN_POINT('Origin',(162.04435845115,103.504987508223,7.11));
#440=CARTESIAN_POINT('',(162.04435845115,103.504987508223,7.11));
#441=CARTESIAN_POINT('',(161.165591666545,102.036540794229,7.11));
#442=CARTESIAN_POINT('',(162.04435845115,103.504987508223,7.11));
#443=CARTESIAN_POINT('Origin',(163.665982384465,103.504987508223,7.11));
#444=CARTESIAN_POINT('',(163.665982384465,103.504987508223,7.11));
#445=CARTESIAN_POINT('',(162.961938634907,103.504987508223,7.11));
#446=CARTESIAN_POINT('',(163.665982384465,103.504987508223,7.11));
#447=CARTESIAN_POINT('Origin',(161.819120247147,100.744414180682,7.11));
#448=CARTESIAN_POINT('',(161.819120247147,100.744414180682,7.11));
#449=CARTESIAN_POINT('',(161.573637567139,100.377482115147,7.11));
#450=CARTESIAN_POINT('',(161.819120247147,100.744414180682,7.11));
#451=CARTESIAN_POINT('Origin',(161.819120247147,98.7549875678277,7.11));
#452=CARTESIAN_POINT('',(161.819120247147,98.7549875678277,7.11));
#453=CARTESIAN_POINT('',(161.819120247147,99.0717642823908,7.11));
#454=CARTESIAN_POINT('',(161.819120247147,98.7549875678277,7.11));
#455=CARTESIAN_POINT('Origin',(160.348110545657,98.7549875678277,7.11));
#456=CARTESIAN_POINT('',(160.348110545657,98.7549875678277,7.11));
#457=CARTESIAN_POINT('',(161.303002715503,98.7549875678277,7.11));
#458=CARTESIAN_POINT('',(160.348110545657,98.7549875678277,7.11));
#459=CARTESIAN_POINT('Origin',(160.348110545657,100.744414180682,7.11));
#460=CARTESIAN_POINT('',(160.348110545657,100.744414180682,7.11));
#461=CARTESIAN_POINT('',(160.348110545657,100.066477588818,7.11));
#462=CARTESIAN_POINT('',(160.348110545657,100.744414180682,7.11));
#463=CARTESIAN_POINT('Origin',(158.498008152002,103.504987508223,7.11));
#464=CARTESIAN_POINT('',(160.032544331789,101.215276591359,7.11));
#465=CARTESIAN_POINT('Origin',(160.60197508915,93.9991651751438,7.11));
#466=CARTESIAN_POINT('',(160.466977626179,94.288668168737,7.11));
#467=CARTESIAN_POINT('',(157.897582917662,99.7987529026714,7.11));
#468=CARTESIAN_POINT('',(160.60197508915,93.9991651751437,7.11));
#469=CARTESIAN_POINT('',(157.897582917662,99.7987529026714,5.51));
#470=CARTESIAN_POINT('',(157.897582917662,99.7987529026714,7.11));
#471=CARTESIAN_POINT('',(160.466977626179,94.288668168737,5.51));
#472=CARTESIAN_POINT('',(160.60197508915,93.9991651751437,5.51));
#473=CARTESIAN_POINT('',(160.466977626179,94.2886681687371,7.11));
#474=CARTESIAN_POINT('Origin',(165.567069776159,91.6331907989015,7.11));
#475=CARTESIAN_POINT('',(166.811132135435,97.2469960009219,7.11));
#476=CARTESIAN_POINT('Origin',(165.567069776159,91.6331907989015,7.11));
#477=CARTESIAN_POINT('',(166.811132135435,97.2469960009219,5.51));
#478=CARTESIAN_POINT('Origin',(165.567069776159,91.6331907989015,5.51));
#479=CARTESIAN_POINT('',(166.811132135435,97.2469960009219,7.11));
#480=CARTESIAN_POINT('Origin',(164.241737426919,102.757080734856,7.11));
#481=CARTESIAN_POINT('',(164.241737426919,102.757080734856,7.11));
#482=CARTESIAN_POINT('',(164.241737426919,102.757080734856,7.11));
#483=CARTESIAN_POINT('',(164.241737426919,102.757080734856,5.51));
#484=CARTESIAN_POINT('',(164.241737426919,102.757080734856,5.51));
#485=CARTESIAN_POINT('',(164.241737426919,102.757080734856,7.11));
#486=CARTESIAN_POINT('Origin',(161.06966017229,101.277916818764,7.11));
#487=CARTESIAN_POINT('Origin',(161.06966017229,101.277916818764,7.11));
#488=CARTESIAN_POINT('Origin',(161.06966017229,101.277916818764,5.51));
#489=CARTESIAN_POINT('Origin',(162.257894885348,99.3885409969538,7.11));
#490=CARTESIAN_POINT('Origin',(162.257894885348,99.3885409969538,5.51));
#491=UNCERTAINTY_MEASURE_WITH_UNIT(LENGTH_MEASURE(0.01),#495,
'DISTANCE_ACCURACY_VALUE',
'Maximum model space distance between geometric entities at asserted c
onnectivities');
#492=UNCERTAINTY_MEASURE_WITH_UNIT(LENGTH_MEASURE(0.01),#495,
'DISTANCE_ACCURACY_VALUE',
'Maximum model space distance between geometric entities at asserted c
onnectivities');
#493=(
GEOMETRIC_REPRESENTATION_CONTEXT(3)
GLOBAL_UNCERTAINTY_ASSIGNED_CONTEXT((#491))
GLOBAL_UNIT_ASSIGNED_CONTEXT((#495,#497,#498))
REPRESENTATION_CONTEXT('','3D')
);
#494=(
GEOMETRIC_REPRESENTATION_CONTEXT(3)
GLOBAL_UNCERTAINTY_ASSIGNED_CONTEXT((#492))
GLOBAL_UNIT_ASSIGNED_CONTEXT((#495,#497,#498))
REPRESENTATION_CONTEXT('','3D')
);
#495=(
LENGTH_UNIT()
NAMED_UNIT(*)
SI_UNIT(.MILLI.,.METRE.)
);
#496=(
LENGTH_UNIT()
NAMED_UNIT(*)
SI_UNIT($,.METRE.)
);
#497=(
NAMED_UNIT(*)
PLANE_ANGLE_UNIT()
SI_UNIT($,.RADIAN.)
);
#498=(
NAMED_UNIT(*)
SI_UNIT($,.STERADIAN.)
SOLID_ANGLE_UNIT()
);
#499=SHAPE_DEFINITION_REPRESENTATION(#500,#501);
#500=PRODUCT_DEFINITION_SHAPE('',$,#503);
#501=SHAPE_REPRESENTATION('',(#311),#493);
#502=PRODUCT_DEFINITION_CONTEXT('part definition',#507,'design');
#503=PRODUCT_DEFINITION('y_label','y_label',#504,#502);
#504=PRODUCT_DEFINITION_FORMATION('',$,#509);
#505=PRODUCT_RELATED_PRODUCT_CATEGORY('y_label','y_label',(#509));
#506=APPLICATION_PROTOCOL_DEFINITION('international standard',
'automotive_design',2009,#507);
#507=APPLICATION_CONTEXT(
'Core Data for Automotive Mechanical Design Process');
#508=PRODUCT_CONTEXT('part definition',#507,'mechanical');
#509=PRODUCT('y_label','y_label',$,(#508));
#510=PRESENTATION_STYLE_ASSIGNMENT((#511));
#511=SURFACE_STYLE_USAGE(.BOTH.,#512);
#512=SURFACE_SIDE_STYLE('',(#513));
#513=SURFACE_STYLE_FILL_AREA(#514);
#514=FILL_AREA_STYLE('Steel - Satin',(#515));
#515=FILL_AREA_STYLE_COLOUR('Steel - Satin',#516);
#516=COLOUR_RGB('Steel - Satin',0.627450980392157,0.627450980392157,0.627450980392157);
ENDSEC;
END-ISO-10303-21;
